<svg xmlns="http://www.w3.org/2000/svg" width="33.091" height="41.379" viewBox="0 0 33.091 41.379">
  <g id="Group_497" data-name="Group 497" transform="translate(-2716.104 -5868.5)">
    <path id="Path_96" data-name="Path 96" d="M489.677,1505.2v-13.971c0-.9-.027-1.792-.06-2.687-.114-3.059.512-13.547,14.435-13.547,16.3,0,15.63,15.63,15.63,15.63V1503.4a1.8,1.8,0,0,1-1.8,1.8H496.361" transform="translate(2228 4403.177)" fill="none" stroke="#fff" stroke-linecap="round" stroke-linejoin="round" stroke-width="3"/>
    <path id="Path_97" data-name="Path 97" d="M502.712,1514.8h11.116s5.621.336,5.621-5.393v-.139" transform="translate(2221.016 4386.214)" fill="none" stroke="#fff" stroke-linecap="round" stroke-linejoin="round" stroke-width="3"/>
    <line id="Line_231" data-name="Line 231" x2="10.07" transform="translate(2723.935 5893.276)" fill="none" stroke="#fff" stroke-linecap="round" stroke-linejoin="round" stroke-width="3"/>
    <path id="Path_98" data-name="Path 98" d="M519.916,1462.954h0c0-3.013-3.146-5.455-7.027-5.455h-2.274c-3.881,0-7.027,2.443-7.027,5.455h0" transform="translate(2220.549 4412.502)" fill="none" stroke="#fff" stroke-linecap="round" stroke-linejoin="round" stroke-width="3"/>
    <line id="Line_232" data-name="Line 232" y1="0.824" transform="translate(2732.646 5885.882)" fill="none" stroke="#fff" stroke-linecap="round" stroke-linejoin="round" stroke-width="3"/>
  </g>
</svg>
