<svg xmlns="http://www.w3.org/2000/svg" width="259.641" height="171.78" viewBox="0 0 259.641 171.78">
  <g id="Group_632" data-name="Group 632" transform="translate(-1077.16 -565.81)">
    <g id="Group_625" data-name="Group 625" transform="translate(1253.428 654.217)">
      <path id="Path_240" data-name="Path 240" d="M1615.686,823.16a33.526,33.526,0,1,1-33.527,33.526,33.565,33.565,0,0,1,33.527-33.526m0-8.16a41.686,41.686,0,1,0,41.687,41.686A41.687,41.687,0,0,0,1615.686,815Z" transform="translate(-1574 -815)" fill="#ebf0fc"/>
    </g>
    <g id="Group_626" data-name="Group 626" transform="translate(1084.554 654.217)">
      <path id="Path_241" data-name="Path 241" d="M1139.686,823.16a33.526,33.526,0,1,1-33.527,33.526,33.565,33.565,0,0,1,33.527-33.526m0-8.16a41.686,41.686,0,1,0,41.686,41.686A41.687,41.687,0,0,0,1139.686,815Z" transform="translate(-1098 -815)" fill="#ebf0fc"/>
    </g>
    <g id="Group_627" data-name="Group 627" transform="translate(1077.16 569.424)">
      <path id="Path_242" data-name="Path 242" d="M1307.893,654.73a4.438,4.438,0,0,1-5.112,3.633c-6.542-1.107-13.978-.454-23.4,2.061q-.921.245-1.831.543c10.157,25.821,20.7,40.345,20.85,40.551a4.08,4.08,0,0,1-6.567,4.843c-.653-.883-11.385-15.628-21.762-41.967-10.242,6.138-17.778,17.1-19.1,28.84a4.434,4.434,0,0,1-4.4,3.938,4.79,4.79,0,0,1-.5-.028,4.432,4.432,0,0,1-3.91-4.9,47.494,47.494,0,0,1,11.378-25.384,49.212,49.212,0,0,1,13.389-10.874q-1.091-3.076-2.157-6.326l-69.976,56.353-5.116-6.358,72.488-58.379q-1.953-6.647-3.7-13.914a156.918,156.918,0,0,1-25.948,30.518,97.949,97.949,0,0,1-28.194,17.962,66,66,0,0,1-23.089,5.07l5.439,16.38-7.741,2.569-15.532-46.763-33.817,47.927a4.081,4.081,0,0,1-6.67-4.7l24.483-34.7c-5.623-2.462-15.61-4.882-25.75-4.882-15.28,0-30.383,10.253-35.914,24.377a4.435,4.435,0,1,1-8.259-3.232,48.547,48.547,0,0,1,44.173-30.014c10.321,0,22.039,2.306,29.858,5.875a4.426,4.426,0,0,1,1,.635l7.7-10.909-6.251-18.821,7.741-2.569,6.751,20.329.284.855,9.785,29.457c3.64.17,12.222-.082,23.348-4.687a90.71,90.71,0,0,0,25.6-16.579c10.331-9.263,20.066-21.4,28.943-36.063a23.788,23.788,0,0,1,1.071-6.89c.876-2.813,2.011-5.872,3.381-9.086,1.731-4.076.713-5.882.376-6.475-2.98-5.279-16.384-7.17-25.25-8.419l-2.831-.4a4.081,4.081,0,1,1,1.185-8.075c.9.131,1.831.263,2.785.4,11.7,1.65,26.254,3.7,31.217,12.488,2.214,3.917,2.221,8.522.025,13.68-1.26,2.966-2.3,5.762-3.1,8.313a15.706,15.706,0,0,0-.355,7.933,269.111,269.111,0,0,0,9.536,33.8q1.32-.447,2.654-.8c10.693-2.852,19.325-3.562,27.166-2.235A4.436,4.436,0,0,1,1307.893,654.73Z" transform="translate(-1077.16 -575.997)" fill="#fe0e37"/>
    </g>
    <g id="Group_628" data-name="Group 628" transform="translate(1168.437 635.833)">
      <path id="Path_243" data-name="Path 243" d="M1334.724,764.035l-.284-.855A3.83,3.83,0,0,1,1334.724,764.035Z" transform="translate(-1334.44 -763.18)"/>
    </g>
    <g id="Group_629" data-name="Group 629" transform="translate(1172.893 684.728)">
      <path id="Path_244" data-name="Path 244" d="M1393.657,922.609,1392.3,927.2,1376,922.4a15.219,15.219,0,1,1,1.249-4.623Z" transform="translate(-1347 -901)" fill="#a8d0ff"/>
    </g>
    <g id="Group_630" data-name="Group 630" transform="translate(1138.835 602.732)">
      <path id="Path_245" data-name="Path 245" d="M1261.977,686.419h25.358a6.706,6.706,0,0,0,6.706-6.706h0a6.706,6.706,0,0,0-6.706-6.706h-15.266a34.527,34.527,0,0,1-13.362-2.69h0a5.557,5.557,0,0,0-7.707,5.124h0A10.977,10.977,0,0,0,1261.977,686.419Z" transform="translate(-1251 -669.879)" fill="#a8d0ff"/>
    </g>
    <g id="Group_631" data-name="Group 631" transform="translate(1209.79 703.886)">
      <rect id="Rectangle_179" data-name="Rectangle 179" width="19.158" height="9.224" rx="4.612" fill="#6e98c9"/>
    </g>
    <rect id="Rectangle_180" data-name="Rectangle 180" width="29.765" height="12.908" rx="6.454" transform="translate(1229.525 565.81) rotate(11.75)" fill="#fff"/>
  </g>
</svg>
