<svg xmlns="http://www.w3.org/2000/svg" width="12.087" height="12.087" viewBox="0 0 12.087 12.087">
  <g id="Group_499" data-name="Group 499" transform="translate(-2566 -6009.502)">
    <g id="Group_482" data-name="Group 482" transform="translate(2566 6009.502)">
      <g id="Group_479" data-name="Group 479" transform="translate(0 0)">
        <path id="Path_93" data-name="Path 93" d="M349.628,1600.744l-1.221,1.221a4.566,4.566,0,0,1,.13,1.078,4.5,4.5,0,0,1-4.494,4.494,4.571,4.571,0,0,1-1.079-.13l-1.221,1.221a5.914,5.914,0,0,0,2.3.459,6.051,6.051,0,0,0,6.043-6.043A5.912,5.912,0,0,0,349.628,1600.744ZM344.043,1597a6.051,6.051,0,0,0-6.043,6.043,5.914,5.914,0,0,0,.459,2.3l1.221-1.221a4.568,4.568,0,0,1-.13-1.079,4.5,4.5,0,0,1,4.494-4.494,4.571,4.571,0,0,1,1.079.13l1.221-1.221A5.912,5.912,0,0,0,344.043,1597Z" transform="translate(-338 -1597)" fill="#5e80a9"/>
      </g>
      <g id="Group_481" data-name="Group 481" transform="translate(0.078 0.077)">
        <g id="Group_480" data-name="Group 480">
          <path id="Path_94" data-name="Path 94" d="M349.957,1598.573l-10.382,10.382a.778.778,0,0,1-1.1,0,.78.78,0,0,1,0-1.1l.955-.955,1.11-1.11,7.364-7.364.955-.955a.778.778,0,0,1,1.1,0A.78.78,0,0,1,349.957,1598.573Z" transform="translate(-338.253 -1597.25)" fill="#5e80a9"/>
        </g>
      </g>
    </g>
  </g>
</svg>
