<svg xmlns="http://www.w3.org/2000/svg" width="26.5" height="35.394" viewBox="0 0 26.5 35.394">
  <g id="Group_750" data-name="Group 750" transform="translate(-654.55 -528.966)">
    <g id="Group_749" data-name="Group 749" transform="translate(655.55 531.226)">
      <path id="Path_350" data-name="Path 350" d="M658.986,533.381l-3.167,3.167a.919.919,0,0,0,0,1.3l3.159,3.159" transform="translate(-655.551 -533.381)" fill="none" stroke="#fff" stroke-linecap="round" stroke-miterlimit="10" stroke-width="2"/>
      <line id="Line_257" data-name="Line 257" x1="4.272" transform="translate(2.92 3.813)" fill="none" stroke="#fff" stroke-linecap="round" stroke-miterlimit="10" stroke-width="2"/>
    </g>
    <path id="Path_351" data-name="Path 351" d="M700.58,531.375c.7-.808,1.923-1.873,3.2-1.116,1.566.928.309,4.6-.491,6.341-.529,1.152-1.055,2.306-1.567,3.467l-3.221,7.3" transform="translate(-27.377 0)" fill="none" stroke="#fff" stroke-linecap="round" stroke-miterlimit="10" stroke-width="2"/>
    <path id="Path_352" data-name="Path 352" d="M702.053,536.973" transform="translate(-29.64 -4.444)" fill="none" stroke="#fff" stroke-linecap="round" stroke-miterlimit="10" stroke-width="2"/>
    <path id="Path_353" data-name="Path 353" d="M698.846,543.115" transform="translate(-27.596 -8.359)" fill="none" stroke="#fff" stroke-linecap="round" stroke-miterlimit="10" stroke-width="2"/>
    <line id="Line_258" data-name="Line 258" y1="10.048" x2="5.246" transform="translate(666.004 534.756)" fill="none" stroke="#fff" stroke-linecap="round" stroke-miterlimit="10" stroke-width="2"/>
    <path id="Path_354" data-name="Path 354" d="M661.6,583.062c.528,1.888,2.033,3.912,5.322,5.96,10.934,6.808,13.616-2.888,15.886-6.847l.067-.118c1.147-2.063,1.539-3.949.157-5.365a1.589,1.589,0,0,0-1.653-.388h0a1.591,1.591,0,0,1-2.021-.985l-.469-1.357" transform="translate(-3.855 -28.02)" fill="none" stroke="#fff" stroke-linecap="round" stroke-miterlimit="10" stroke-width="2"/>
    <path id="Path_355" data-name="Path 355" d="M670.891,559.376a1.265,1.265,0,0,0-.212-1.474,2.367,2.367,0,0,0-3.166-.381c-2.068,1.416-4.2,4.905-5.017,6.64a25.567,25.567,0,0,0-1.44,3.306" transform="translate(-3.509 -17.263)" fill="none" stroke="#fff" stroke-linecap="round" stroke-miterlimit="10" stroke-width="2"/>
    <path id="Path_356" data-name="Path 356" d="M703.149,579.844" transform="translate(-30.338 -31.769)" fill="none" stroke="#fff" stroke-linecap="round" stroke-miterlimit="10" stroke-width="2"/>
  </g>
</svg>
