<svg xmlns="http://www.w3.org/2000/svg" width="130.207" height="130.207" viewBox="0 0 130.207 130.207">
  <g id="Group_620" data-name="Group 620" transform="translate(-326 -1139.205)">
    <circle id="Ellipse_34" data-name="Ellipse 34" cx="65.104" cy="65.104" r="65.104" transform="translate(326 1139.205)" fill="#fe0e37"/>
    <path id="Path_192" data-name="Path 192" d="M367.729,1188.836c12.067-4.935,37.25-19.3,35.669-52.851a39.4,39.4,0,0,0-10.459-25.473c-5.3-5.551-11.421-8.312-12.861,6.082-1.212,12.118.141,25.864-6.71,36.569a53.536,53.536,0,0,1-7.725,8.862l-8.835,8.742c-2.61,2.58-5.867,5.062-7.658,8.272-2.74,4.908-.914,8.607,4.411,10.414A20.3,20.3,0,0,0,367.729,1188.836Z" transform="translate(36.271 62.47)" fill="#ffa9a9"/>
  </g>
</svg>
