<svg xmlns="http://www.w3.org/2000/svg" width="213.213" height="273" viewBox="0 0 213.213 273">
  <g id="Group_583" data-name="Group 583" transform="translate(-621.866 -850)">
    <path id="Path_239" data-name="Path 239" d="M716.944,1123H640.952v-34.351Z" transform="translate(0.383)" fill="#4c5d7c"/>
    <path id="Path_203" data-name="Path 203" d="M778.47,875.724,799.6,857.837a9.011,9.011,0,0,1,7.026-2.036c8.438,1.12,26.736,5.929,28.417,26.56a9.179,9.179,0,0,1-1.211,5.4L807.872,931.9l-32.76-25.111Z" fill="#bf0f2d"/>
    <path id="Path_204" data-name="Path 204" d="M759.424,1055.974s-1.134,11.934,6.513,6.931S775.819,1050,772.525,1050a11.912,11.912,0,0,0-3.14,1.3,3.045,3.045,0,0,0-1.63,1.934c-.922,2.814-3.237,7.934-5.5-2.59" fill="#567"/>
    <path id="Path_205" data-name="Path 205" d="M783.111,1009.405l-27.164-8.109-43.625,53.454-8.19,68.25h44.826l33.743-47.229a16.327,16.327,0,0,0,3.058-10.347Zm-6.17,55.146a2.257,2.257,0,0,1-.41,1.31l-16.926,25.8a2.418,2.418,0,0,1-4.449-1.311v-25.826a2.457,2.457,0,0,1,.436-1.365l16.926-24.379a2.433,2.433,0,0,1,4.423,1.393Z" fill="#2f394b"/>
    <path id="Path_206" data-name="Path 206" d="M794.222,993.4l19.36-32.563a17.65,17.65,0,0,0,2.48-9.022v-82.7l-26.653,10.92-8.837,16.38v47.745Z" fill="#c1c1c1"/>
    <path id="Path_207" data-name="Path 207" d="M704.132,1123l90.09-129.6V903.69l-30.03,6.37-73.71,62.79-13.65,62.79-8.19,54.6Z" fill="#5e80a9"/>
    <path id="Path_208" data-name="Path 208" d="M641.342,1101.16l62.79,21.84V1014.629a1.008,1.008,0,0,0-.814-.989l-62.886-12.352Z" fill="#88b0e0"/>
    <path id="Path_209" data-name="Path 209" d="M705.112,1018.671l89.11-114.981-62.108-23.66-91.682,121.258,58.123,19.374A5.925,5.925,0,0,0,705.112,1018.671Z" fill="#2f394b"/>
    <path id="Path_210" data-name="Path 210" d="M732.114,880.03,766.922,850l49.14,19.11-21.84,34.58Z" fill="#e2e2e2"/>
    <circle id="Ellipse_35" data-name="Ellipse 35" cx="27.3" cy="27.3" r="27.3" transform="translate(687.752 869.11)" fill="#fe0e37"/>
    <path id="Path_211" data-name="Path 211" d="M720.46,916.118c5.06-2.07,15.62-8.095,14.956-22.163a16.522,16.522,0,0,0-4.385-10.681c-2.225-2.329-4.79-3.485-5.393,2.55-.509,5.082.059,10.846-2.814,15.335a22.338,22.338,0,0,1-3.24,3.716l-3.7,3.666a17.389,17.389,0,0,0-3.212,3.469c-1.149,2.058-.383,3.609,1.851,4.367A8.508,8.508,0,0,0,720.46,916.118Z" fill="#ffa9a9"/>
    <circle id="Ellipse_36" data-name="Ellipse 36" cx="27.3" cy="27.3" r="27.3" transform="translate(649.532 912.79)" fill="#fe0e37"/>
    <path id="Path_212" data-name="Path 212" d="M682.24,959.8c5.06-2.07,15.62-8.095,14.956-22.163a16.521,16.521,0,0,0-4.385-10.681c-2.225-2.329-4.79-3.485-5.393,2.55-.509,5.082.059,10.846-2.814,15.335a22.34,22.34,0,0,1-3.24,3.716l-3.7,3.666a17.393,17.393,0,0,0-3.212,3.469c-1.149,2.058-.383,3.609,1.851,4.367A8.508,8.508,0,0,0,682.24,959.8Z" fill="#ffa9a9"/>
    <circle id="Ellipse_37" data-name="Ellipse 37" cx="27.3" cy="27.3" r="27.3" transform="translate(624.962 967.39)" fill="#fe0e37"/>
    <path id="Path_213" data-name="Path 213" d="M657.67,1014.4c5.06-2.07,15.62-8.1,14.956-22.163a16.521,16.521,0,0,0-4.385-10.681c-2.225-2.329-4.79-3.485-5.393,2.55-.509,5.082.059,10.846-2.814,15.335a22.34,22.34,0,0,1-3.24,3.716l-3.7,3.666a17.391,17.391,0,0,0-3.212,3.469c-1.149,2.058-.383,3.609,1.851,4.367A8.508,8.508,0,0,0,657.67,1014.4Z" fill="#ffa9a9"/>
    <circle id="Ellipse_38" data-name="Ellipse 38" cx="27.3" cy="27.3" r="27.3" transform="translate(627.692 1024.72)" fill="#fe0e37"/>
    <path id="Path_214" data-name="Path 214" d="M660.4,1071.728c5.06-2.07,15.62-8.095,14.956-22.163a16.521,16.521,0,0,0-4.385-10.681c-2.225-2.329-4.79-3.485-5.393,2.55-.509,5.082.059,10.846-2.814,15.335a22.337,22.337,0,0,1-3.24,3.716l-3.7,3.666a17.393,17.393,0,0,0-3.212,3.469c-1.149,2.058-.383,3.609,1.851,4.367A8.509,8.509,0,0,0,660.4,1071.728Z" fill="#ffa9a9"/>
    <path id="Path_215" data-name="Path 215" d="M640.432,931.254s-18.922,16.571-18.561,70.034c.15,22.171.174,37.826.152,48.556a32.68,32.68,0,0,0,25.664,32.08,80,80,0,0,0,20.955,1.635c21.1-1.06,24.678-24.282,24.941-38a9.71,9.71,0,0,0-9.71-9.916c-4.629,0-4.389-6.1-4.061-9.355L681.858,1006c1.835-18.189,15.182-33.154,26.047-47.31q10.422-13.579,21.988-26.228.807-.882,1.658-1.755c6.51-6.694,14.648-13.078,18.917-21.252,7.627-14.6,2.286-33.01-13.027-40.068l-18.037-5.6a28.26,28.26,0,0,0-30.08,8.881Z" fill="#7b90a8" opacity="0.73"/>
    <path id="Path_216" data-name="Path 216" d="M710.109,1024.72,736.9,990.155v9.866l-26.787,35.143Z" fill="#1d2233"/>
    <path id="Path_218" data-name="Path 218" d="M710.109,1024.72,736.9,990.155v9.866l-26.787,35.143Z" transform="translate(0 14.836)" fill="#1d2233"/>
    <path id="Path_219" data-name="Path 219" d="M710.109,1024.72,736.9,990.155v9.866l-26.787,35.143Z" transform="translate(0.29 28.966)" fill="#1d2233"/>
    <path id="Path_221" data-name="Path 221" d="M710.109,1024.72,736.9,990.155v9.866l-26.787,35.143Z" transform="translate(0.29 45.009)" fill="#1d2233"/>
    <path id="Path_217" data-name="Path 217" d="M710.109,1024.72,736.9,990.155v9.866l-26.787,35.143Z" transform="translate(30.41 -37.792)" fill="#1d2233"/>
    <path id="Path_220" data-name="Path 220" d="M710.109,1024.72,736.9,990.155v9.866l-26.787,35.143Z" transform="translate(30.41 -20.09)" fill="#1d2233"/>
  </g>
</svg>
