<svg id="Group_544" data-name="Group 544" xmlns="http://www.w3.org/2000/svg" width="257.62" height="236.629" viewBox="0 0 257.62 236.629">
  <g id="Group_514" data-name="Group 514" transform="translate(131.127 105.029)">
    <path id="Path_117" data-name="Path 117" d="M162,1058.3V1172c.538-.037,1.149-.13,1.854-.241a23.981,23.981,0,0,0,6.581-2.243,3.926,3.926,0,0,0,.556-.278,29.534,29.534,0,0,0,2.577-1.5q.445-.278.89-.612c.593-.408,1.2-.871,1.817-1.353,8.675-6.951,18.686-21.466,24.432-51.775.056-.278.111-.575.167-.853q1.029-5.617,1.872-11.975c.519-3.967.982-8.175,1.353-12.605.019-.111.019-.222.037-.334C207.972,1043,185.134,1045.321,162,1058.3Z" transform="translate(-162 -1050.14)" fill="#333"/>
  </g>
  <g id="Group_515" data-name="Group 515" transform="translate(131.127 94.857)">
    <path id="Path_118" data-name="Path 118" d="M210.475,1088.953c-.093,1.149-.2,2.28-.315,3.411q-.64,7.09-1.539,13.458-.7,5.033-1.5,9.658c-.167.908-.315,1.8-.482,2.669-6.469,34.683-17.722,51.793-27.658,60.209-.3.241-.593.482-.871.723-6.673,5.339-12.679,6.84-16.109,7.229v-9.621c.538-.037,1.149-.13,1.854-.241a23.988,23.988,0,0,0,6.581-2.243,3.927,3.927,0,0,0,.556-.278,29.534,29.534,0,0,0,2.577-1.5q.445-.278.89-.612c.593-.408,1.2-.871,1.817-1.353,8.675-6.951,18.686-21.466,24.432-51.775.056-.278.111-.574.167-.853q1.029-5.617,1.872-11.975c.519-3.967.982-8.175,1.353-12.605.019-.111.019-.222.037-.334,3.837-45.231-19-42.913-42.135-29.937v-9.139a81.61,81.61,0,0,1,18.815-7.953,2.414,2.414,0,0,1,.352-.074,30.8,30.8,0,0,1,12.068-.908h.019c.389.055.779.13,1.168.2C205.84,1047.559,212.959,1059.719,210.475,1088.953Z" transform="translate(-162 -1044.652)" fill="#333"/>
  </g>
  <g id="Group_516" data-name="Group 516" transform="translate(179.95)">
    <path id="Path_119" data-name="Path 119" d="M216.474,1091.808s42.606-7.459,42.606-55.656c0,0-9.269,1.854-11.122-3.707,0,0,5.561-3.708,1.854-9.269,0,0-5.561-1.854-5.561-7.415l3.707-5.561s-4.779,1.854-7.951,0c0,0-1.318-7.415,6.1-16.684,0,0-32.8-2.512-52.549,34.893S216.474,1091.808,216.474,1091.808Z" transform="translate(-188.338 -993.481)" fill="#dd729b"/>
  </g>
  <g id="Group_517" data-name="Group 517" transform="translate(196.007 21.353)">
    <path id="Path_120" data-name="Path 120" d="M206.455,1056.716l14.643-20.2-4.785-6.343,8.492-25.17-17,25.858,3.2,6.872-7.036,9.594L197,1053.2Z" transform="translate(-197 -1005)" fill="#212121"/>
  </g>
  <g id="Group_518" data-name="Group 518" transform="translate(131.127 105.029)">
    <path id="Path_121" data-name="Path 121" d="M204.135,1088.234c-.019.111-.019.223-.037.334-.371,4.43-.834,8.638-1.353,12.605q-.834,6.367-1.872,11.975c-.056.278-.111.575-.167.853-5.747,30.308-15.757,44.823-24.432,51.775-.612.482-1.223.945-1.817,1.353q-.445.334-.89.612a29.534,29.534,0,0,1-2.577,1.5,3.926,3.926,0,0,1-.556.278,23.981,23.981,0,0,1-6.581,2.243c-.7.111-1.316.2-1.854.241V1058.3C185.134,1045.321,207.972,1043,204.135,1088.234Z" transform="translate(-162 -1050.14)" fill="#bd272d"/>
  </g>
  <g id="Group_519" data-name="Group 519" transform="translate(132.981 214.14)">
    <path id="Path_122" data-name="Path 122" d="M175.42,1115.525a28.072,28.072,0,0,1-12.42,5.987V1109l10.474,1.854Z" transform="translate(-163 -1109)" fill="#fffbb6"/>
  </g>
  <g id="Group_520" data-name="Group 520" transform="translate(132.981 169.503)">
    <path id="Path_123" data-name="Path 123" d="M186.159,1088.614l-6.926,31.675L163,1118.435v-25.986l10.58-7.529Z" transform="translate(-163 -1084.92)" fill="#fffbb6"/>
  </g>
  <g id="Group_521" data-name="Group 521" transform="translate(91.013 171.041)">
    <path id="Path_124" data-name="Path 124" d="M180.475,1091.7v49.9a13.311,13.311,0,0,1-1.854.037,2.269,2.269,0,0,1-.334-.019,23.737,23.737,0,0,1-14.088-5.8c-12.587-10.4-19.89-32.718-23.839-50.069a93.451,93.451,0,0,0,15.553,4.227,114.2,114.2,0,0,0,22.708,1.78Z" transform="translate(-140.36 -1085.75)" fill="#9b232c"/>
  </g>
  <g id="Group_522" data-name="Group 522" transform="translate(106.12 169.503)">
    <path id="Path_125" data-name="Path 125" d="M171.663,1092.446v27.843h-9.139a7.1,7.1,0,0,0-.26-1.854,2.267,2.267,0,0,0-2.187-1.835s.463-3.726-3.244-3.726a4.689,4.689,0,0,0-.445-1.724l-.019-.018a6.9,6.9,0,0,0-1.39-1.965,4.049,4.049,0,0,0-2.206-1l-3.819-17.48-.445-2.076,12.568-3.689Z" transform="translate(-148.51 -1084.92)" fill="#fff89f"/>
  </g>
  <g id="Group_523" data-name="Group 523" transform="translate(112.108 214.14)">
    <path id="Path_126" data-name="Path 126" d="M151.74,1123.941,156.873,1109h12.032v13.132l-7.842,3.551Z" transform="translate(-151.74 -1109)" fill="#fff89f"/>
  </g>
  <g id="Group_524" data-name="Group 524" transform="translate(80.735 19.107)">
    <path id="Path_127" data-name="Path 127" d="M242.376,1113.291a119.17,119.17,0,0,1-6.062,10.974,148,148,0,0,1-11.956,16.387c-.593.7-1.186,1.427-1.817,2.15a36.778,36.778,0,0,1-9.565,7.563c-1.464.853-3,1.668-4.653,2.447h-.037c-.556.259-1.149.519-1.724.76a90.135,90.135,0,0,1-13.773,4.635,117.185,117.185,0,0,1-22.912,3.374c-.667.037-1.353.074-2.021.093l-50.393-61.853,50.393-95.157c.315-.019.649-.074.964-.111,9.732-1.372,36.518-3.021,56.372,15.849,7.026,6.673,13.18,15.924,17.388,28.659.89,2.632,1.668,5.413,2.373,8.342a136.911,136.911,0,0,1,3.374,25.47l.056,1A62.546,62.546,0,0,1,242.376,1113.291Z" transform="translate(-117.464 -1003.789)" fill="#4d4d4d"/>
  </g>
  <g id="Group_525" data-name="Group 525" transform="translate(131.127 125.643)">
    <path id="Path_128" data-name="Path 128" d="M172.251,1096.536H162V1061.26a7.84,7.84,0,0,1,6.006,3.93l11.159,19.353A7.99,7.99,0,0,1,172.251,1096.536Z" transform="translate(-162 -1061.26)" fill="#dd729b"/>
  </g>
  <g id="Group_526" data-name="Group 526" transform="translate(156.152 128.753)">
    <path id="Path_129" data-name="Path 129" d="M178.277,1082.518a2.781,2.781,0,0,1-.4-5.531l95.467-14.018a2.78,2.78,0,1,1,.808,5.5l-95.467,14.02A2.78,2.78,0,0,1,178.277,1082.518Z" transform="translate(-175.5 -1062.937)" fill="#212121"/>
  </g>
  <g id="Group_527" data-name="Group 527" transform="translate(161.209 152.967)">
    <path id="Path_130" data-name="Path 130" d="M181.009,1081.908a2.781,2.781,0,0,1-.017-5.561l60.75-.347h.017a2.781,2.781,0,0,1,.017,5.561l-60.75.347Z" transform="translate(-178.228 -1076)" fill="#212121"/>
  </g>
  <g id="Group_528" data-name="Group 528" transform="translate(155.713 164.631)">
    <path id="Path_131" data-name="Path 131" d="M274.393,1093.14c-.052,0-.1,0-.156,0l-96.345-5.285a2.78,2.78,0,1,1,.3-5.552l96.345,5.283a2.781,2.781,0,0,1-.148,5.557Z" transform="translate(-175.263 -1082.292)" fill="#212121"/>
  </g>
  <g id="Group_529" data-name="Group 529" transform="translate(143.705 77.468)">
    <path id="Path_132" data-name="Path 132" d="M168.785,1049.626s13.717-16.263,31.495-14.168c0,0-9.773,5.763-10.362,11.985S171.951,1060.389,168.785,1049.626Z" transform="translate(-168.785 -1035.271)" fill="#fff"/>
  </g>
  <g id="Group_530" data-name="Group 530" transform="translate(106.12 169.503)">
    <path id="Path_133" data-name="Path 133" d="M161.078,1084.92l-12.568,3.689.445,2.076a114.209,114.209,0,0,0,22.708,1.78v-.019Z" transform="translate(-148.51 -1084.92)" fill="#3d3d3d"/>
  </g>
  <g id="Group_531" data-name="Group 531" transform="translate(48.546 19.981)">
    <path id="Path_134" data-name="Path 134" d="M200.032,1004.26v105.662a7.915,7.915,0,0,0-7.86,3.93L181.013,1133.2a7.99,7.99,0,0,0,6.914,11.994h12.1v16.072l-1.854.056v-.019l-10.585-7.526-12.568,3.689.445,2.076a93.439,93.439,0,0,1-15.553-4.227,73.734,73.734,0,0,1-7.934-3.429h-.019c-.686-.353-1.372-.7-2.039-1.057a63.723,63.723,0,0,1-15.423-11.586l-.834-.89a56.722,56.722,0,0,1-10.084-15.071c-.278-.63-.556-1.26-.816-1.891-3.782-9.027-5.728-19.779-5.246-32.514a2.014,2.014,0,0,0,.019-.333,125.005,125.005,0,0,1,4.023-27.621v-.037a88.133,88.133,0,0,1,5.172-14.385,71.744,71.744,0,0,1,13.347-19.8c18.537-19.26,43.192-21.781,52.942-21.966A68.087,68.087,0,0,0,200.032,1004.26Z" transform="translate(-117.451 -1004.26)" fill="#3d3d3d"/>
  </g>
  <g id="Group_532" data-name="Group 532" transform="translate(111.024 125.587)">
    <path id="Path_135" data-name="Path 135" d="M171.259,1061.286v35.276h-12.1a7.99,7.99,0,0,1-6.914-11.994l11.159-19.353A7.915,7.915,0,0,1,171.259,1061.286Z" transform="translate(-151.155 -1061.23)" fill="#bf527f"/>
  </g>
  <g id="Group_533" data-name="Group 533" transform="translate(82.532 77.468)">
    <path id="Path_136" data-name="Path 136" d="M167.28,1049.626s-13.718-16.263-31.495-14.168c0,0,9.775,5.763,10.362,11.985S164.114,1060.389,167.28,1049.626Z" transform="translate(-135.785 -1035.271)" fill="#fff"/>
  </g>
  <g id="Group_534" data-name="Group 534" transform="translate(83.06 167.612)">
    <path id="Path_137" data-name="Path 137" d="M184.137,1143.182v9.621a15.6,15.6,0,0,1-3.077.074c-26.36-1.372-39.3-42.061-44.99-68.977h.019a73.659,73.659,0,0,0,7.934,3.429c3.948,17.351,11.252,39.67,23.839,50.069a23.736,23.736,0,0,0,14.088,5.8,2.254,2.254,0,0,0,.334.019A13.3,13.3,0,0,0,184.137,1143.182Z" transform="translate(-136.07 -1083.9)" fill="#212121"/>
  </g>
  <g id="Group_535" data-name="Group 535" transform="translate(30.563 27.433)">
    <path id="Path_138" data-name="Path 138" d="M135.018,1043.074a88.132,88.132,0,0,0-5.172,14.385l-.463-7.248-3.541-11.363-7.415-1.52L107.75,1008.28l15.182,21.8,7.934-.074Z" transform="translate(-107.75 -1008.28)" fill="#212121"/>
  </g>
  <g id="Group_536" data-name="Group 536" transform="translate(15.061 1.889)">
    <path id="Path_139" data-name="Path 139" d="M155.5,1035.041a71.741,71.741,0,0,0-13.347,19.8l-4.152-13.069-7.934.074-15.182-21.8,10.677,29.048,7.415,1.52,3.541,11.363.463,7.248v.037a125,125,0,0,0-4.023,27.621,2.017,2.017,0,0,1-.019.334.14.14,0,0,1-.074-.037c-24.173-14.107-31.421-22.968-33.274-45.212s9.269-57.465,9.269-57.465c38.928,11.122,46.621,38.928,46.621,38.928S155.5,1034,155.5,1035.041Z" transform="translate(-99.388 -994.5)" fill="#bf527f"/>
  </g>
  <g id="Group_537" data-name="Group 537" transform="translate(0.44 126.896)">
    <path id="Path_140" data-name="Path 140" d="M189.751,1081.519a2.763,2.763,0,0,1-.408-.03l-95.467-14.02a2.78,2.78,0,1,1,.808-5.5l95.467,14.018a2.781,2.781,0,0,1-.4,5.531Z" transform="translate(-91.5 -1061.936)" fill="#212121"/>
  </g>
  <g id="Group_538" data-name="Group 538" transform="translate(30.099 151.114)">
    <path id="Path_141" data-name="Path 141" d="M171.031,1080.908h-.017l-60.75-.347a2.781,2.781,0,0,1,.017-5.561h.017l60.75.347a2.781,2.781,0,0,1-.017,5.561Z" transform="translate(-107.5 -1075)" fill="#212121"/>
  </g>
  <g id="Group_539" data-name="Group 539" transform="translate(0 162.777)">
    <path id="Path_142" data-name="Path 142" d="M94.04,1092.14a2.781,2.781,0,0,1-.148-5.557l96.345-5.283a2.78,2.78,0,1,1,.3,5.552L94.2,1092.136C94.144,1092.14,94.092,1092.14,94.04,1092.14Z" transform="translate(-91.263 -1081.292)" fill="#212121"/>
  </g>
  <g id="Group_540" data-name="Group 540" transform="translate(143.051 177.066)">
    <path id="Path_143" data-name="Path 143" d="M178.753,1089l-6.075,25.055h-4.245Z" transform="translate(-168.433 -1089)" fill="#eae188"/>
  </g>
  <g id="Group_541" data-name="Group 541" transform="translate(109.68 177.955)">
    <path id="Path_144" data-name="Path 144" d="M160.755,1114.542h-.13a2.267,2.267,0,0,0-2.187-1.835s.463-3.726-3.244-3.726a4.689,4.689,0,0,0-.445-1.724l-.019-.018-4.3-17.759Z" transform="translate(-150.43 -1089.48)" fill="#ccc16d"/>
  </g>
  <g id="Group_542" data-name="Group 542" transform="translate(140.396 36.689)">
    <path id="Path_145" data-name="Path 145" d="M202.145,1013.273c-14.305,10.242-26.525,22.158-35.145,37.482,3.706-17.494,18.391-31.971,35.145-37.482Z" transform="translate(-167 -1013.273)" fill="#bd272d"/>
  </g>
  <g id="Group_543" data-name="Group 543" transform="translate(149.664 36.689)">
    <path id="Path_146" data-name="Path 146" d="M207.145,1013.273c-12.909,7.886-24.582,18.433-32.088,31.679-1.21,1.828-1.963,3.882-3.057,5.8,4.988-17.01,18.977-30.744,35.145-37.482Z" transform="translate(-172 -1013.273)" fill="#bd272d"/>
  </g>
</svg>
