<svg xmlns="http://www.w3.org/2000/svg" width="227.962" height="227.962" viewBox="0 0 227.962 227.962">
  <g id="Group_624" data-name="Group 624" transform="translate(-1250.89 -8519.994)">
    <rect id="Rectangle_63" data-name="Rectangle 63" width="227.962" height="227.962" rx="40" transform="translate(1250.89 8519.994)" fill="#1d2233"/>
    <g id="Group_8" data-name="Group 8" transform="translate(1297.124 8567.83)">
      <g id="Rectangle_17-2" data-name="Rectangle 17-2" transform="translate(78.342 0)">
        <path id="Path_26" data-name="Path 26" d="M3471.777,10310.83v18.566a77.879,77.879,0,0,0-8.333,4.744,79.011,79.011,0,0,0-18.991-17.836A70.484,70.484,0,0,1,3471.777,10310.83Z" transform="translate(-3444.453 -10310.83)" fill="#fe0e37"/>
      </g>
      <g id="Rectangle_16-2" data-name="Rectangle 16-2" transform="translate(34.945 0)">
        <path id="Path_27" data-name="Path 27" d="M3136.84,10338.639a78.127,78.127,0,0,0-6.2,5.572,77.326,77.326,0,0,0-15.074,21.238,77.346,77.346,0,0,0-15.077-21.238q-2.726-2.728-5.681-5.152-1.48-1.219-3.016-2.354t-3.118-2.2a77.379,77.379,0,0,0-8.054-4.7v-18.979a70.481,70.481,0,0,1,27.322,5.475q2.09.87,4.107,1.879,2,.99,3.931,2.111A71.026,71.026,0,0,1,3136.84,10338.639Z" transform="translate(-3080.624 -10310.83)" fill="#fe0e37"/>
      </g>
      <g id="Rectangle_14-2" data-name="Rectangle 14-2" transform="translate(73.915 18.305)">
        <path id="Path_28" data-name="Path 28" d="M3473.2,10464.291v44.1a69.88,69.88,0,0,1-62.26,69.477v-43.682a77.185,77.185,0,0,0-3.6-23.432,69.99,69.99,0,0,1,21.565-30.627q1.49-1.225,3.048-2.365,1.534-1.125,3.131-2.162,1.958-1.28,4.006-2.428,1.872-1.052,3.814-1.986,1.876-.9,3.815-1.7A69.672,69.672,0,0,1,3473.2,10464.291Z" transform="translate(-3407.333 -10464.291)" fill="#5e80a9"/>
      </g>
      <g id="Rectangle_15-2" data-name="Rectangle 15-2" transform="translate(0 18.305)">
        <path id="Path_29" data-name="Path 29" d="M2857.542,10534.184v44.094q-1.92,0-3.814-.1-1.922-.1-3.814-.309a69.444,69.444,0,0,1-29.51-10.264q-2.808-1.764-5.434-3.783a69.77,69.77,0,0,1-27.316-55.43v-44.1a69.638,69.638,0,0,1,27.316,5.543q1.938.823,3.814,1.758,1.944.97,3.814,2.055,1.924,1.107,3.767,2.342,1.587,1.055,3.112,2.2,1.548,1.157,3.03,2.4a69.694,69.694,0,0,1,25.034,53.6Z" transform="translate(-2787.653 -10464.291)" fill="#ebf0fc"/>
      </g>
    </g>
  </g>
</svg>
