<svg xmlns="http://www.w3.org/2000/svg" width="1634" height="319.498" viewBox="0 0 1634 319.498">
  <g id="Group_613" data-name="Group 613" transform="translate(-4491.594 -4356.729)">
    <g id="Group_593" data-name="Group 593" transform="translate(4835.594 4365.449)">
      <rect id="Rectangle_153" data-name="Rectangle 153" width="86" height="108" transform="translate(258 115)" fill="#5e80a9"/>
      <path id="Path_237" data-name="Path 237" d="M46.413,8.553C71.126,8.307,73.763,29.4,73.763,29.4V41.958S73.149,52.109,81.11,52.24s7.89,0,7.89,0v6.188H86.459V65.67H89V73.7H3V65.67H5.819V58.428H3V52.24s.21.057,8.122,0,7.126-10.282,7.126-10.282V29.4S21.7,8.8,46.413,8.553Z" transform="translate(255 42)" fill="#496e9a"/>
      <path id="Rectangle_157" data-name="Rectangle 157" d="M11,0h0A11,11,0,0,1,22,11V36a0,0,0,0,1,0,0H0a0,0,0,0,1,0,0V11A11,11,0,0,1,11,0Z" transform="translate(290 187)" fill="#496e9a"/>
    </g>
    <g id="Group_614" data-name="Group 614" transform="translate(5351.594 4364.458)">
      <rect id="Rectangle_153-2" data-name="Rectangle 153" width="86" height="108" transform="translate(258 115)" fill="#5e80a9"/>
      <path id="Path_237-2" data-name="Path 237" d="M46.413,8.553C71.126,8.307,73.763,29.4,73.763,29.4V41.958S73.149,52.109,81.11,52.24s7.89,0,7.89,0v6.188H86.459V65.67H89V73.7H3V65.67H5.819V58.428H3V52.24s.21.057,8.122,0,7.126-10.282,7.126-10.282V29.4S21.7,8.8,46.413,8.553Z" transform="translate(255 42)" fill="#496e9a"/>
      <path id="Rectangle_157-2" data-name="Rectangle 157" d="M11,0h0A11,11,0,0,1,22,11V36a0,0,0,0,1,0,0H0a0,0,0,0,1,0,0V11A11,11,0,0,1,11,0Z" transform="translate(290 187)" fill="#496e9a"/>
    </g>
    <g id="Group_597" data-name="Group 597" transform="translate(5197.594 4327.729)">
      <rect id="Rectangle_150" data-name="Rectangle 150" width="86" height="184" transform="translate(240 76)" fill="#2f394b"/>
      <path id="Path_234" data-name="Path 234" d="M40.032,13.72h11.4L81.11,52.24H89V66H3V52.24h8.122l8.646-11.52V20.3h8.508v9.085Z" transform="translate(237 15.551)" fill="#33425c"/>
      <path id="Rectangle_159" data-name="Rectangle 159" d="M11,0h0A11,11,0,0,1,22,11V36a0,0,0,0,1,0,0H0a0,0,0,0,1,0,0V11A11,11,0,0,1,11,0Z" transform="translate(275 224)" fill="#33425c"/>
    </g>
    <g id="Group_602" data-name="Group 602" transform="translate(4509.594 4327.458)">
      <rect id="Rectangle_150-2" data-name="Rectangle 150" width="86" height="184" transform="translate(240 76)" fill="#2f394b"/>
      <path id="Path_234-2" data-name="Path 234" d="M40.032,13.72h11.4L81.11,52.24H89V66H3V52.24h8.122l8.646-11.52V20.3h8.508v9.085Z" transform="translate(237 15.551)" fill="#33425c"/>
      <path id="Rectangle_159-2" data-name="Rectangle 159" d="M11,0h0A11,11,0,0,1,22,11V36a0,0,0,0,1,0,0H0a0,0,0,0,1,0,0V11A11,11,0,0,1,11,0Z" transform="translate(275 224)" fill="#33425c"/>
    </g>
    <g id="Group_615" data-name="Group 615" transform="translate(5455.594 4327.856)">
      <rect id="Rectangle_150-3" data-name="Rectangle 150" width="86" height="184" transform="translate(240 76)" fill="#2f394b"/>
      <path id="Path_234-3" data-name="Path 234" d="M40.032,13.72h11.4L81.11,52.24H89V66H3V52.24h8.122l8.646-11.52V20.3h8.508v9.085Z" transform="translate(237 15.551)" fill="#33425c"/>
      <path id="Rectangle_159-3" data-name="Rectangle 159" d="M11,0h0A11,11,0,0,1,22,11V36a0,0,0,0,1,0,0H0a0,0,0,0,1,0,0V11A11,11,0,0,1,11,0Z" transform="translate(275 224)" fill="#33425c"/>
    </g>
    <g id="Group_594" data-name="Group 594" transform="translate(5197.594 4274.459)">
      <rect id="Rectangle_154" data-name="Rectangle 154" width="86" height="154" transform="translate(-18 159.541)" fill="#5e80a9"/>
      <path id="Path_238" data-name="Path 238" d="M45.743,6.025c10.044,0,19.764,5.669,19.336,23.375S81.11,52.24,81.11,52.24H89V66H3V52.24h8.122S24.955,47.64,24.9,29.4,35.7,6.025,45.743,6.025Z" transform="translate(-21 98)" fill="#496e9a"/>
      <path id="Rectangle_155" data-name="Rectangle 155" d="M11,0h0A11,11,0,0,1,22,11V36a0,0,0,0,1,0,0H0a0,0,0,0,1,0,0V11A11,11,0,0,1,11,0Z" transform="translate(14 277.541)" fill="#496e9a"/>
    </g>
    <g id="Group_605" data-name="Group 605" transform="translate(4509.594 4259.348)">
      <rect id="Rectangle_154-2" data-name="Rectangle 154" width="86" height="169" transform="translate(-18 159.381)" fill="#5e80a9"/>
      <path id="Path_238-2" data-name="Path 238" d="M45.743,6.025c10.044,0,19.764,5.669,19.336,23.375S81.11,52.24,81.11,52.24H89V66H3V52.24h8.122S24.955,47.64,24.9,29.4,35.7,6.025,45.743,6.025Z" transform="translate(-21 98)" fill="#496e9a"/>
      <path id="Rectangle_155-2" data-name="Rectangle 155" d="M11,0h0A11,11,0,0,1,22,11V36a0,0,0,0,1,0,0H0a0,0,0,0,1,0,0V11A11,11,0,0,1,11,0Z" transform="translate(14 292.381)" fill="#496e9a"/>
    </g>
    <g id="Group_618" data-name="Group 618" transform="translate(5971.594 4291.975)">
      <rect id="Rectangle_154-3" data-name="Rectangle 154" width="86" height="137.092" transform="translate(-18 159.381)" fill="#5e80a9"/>
      <path id="Path_238-3" data-name="Path 238" d="M45.743,6.025c10.044,0,19.764,5.669,19.336,23.375S81.11,52.24,81.11,52.24H89V66H3V52.24h8.122S24.955,47.64,24.9,29.4,35.7,6.025,45.743,6.025Z" transform="translate(-21 98)" fill="#496e9a"/>
      <path id="Rectangle_155-3" data-name="Rectangle 155" d="M11,0h0A11,11,0,0,1,22,11V36a0,0,0,0,1,0,0H0a0,0,0,0,1,0,0V11A11,11,0,0,1,11,0Z" transform="translate(14 260.474)" fill="#496e9a"/>
    </g>
    <g id="Group_596" data-name="Group 596" transform="translate(5202.594 4311.13)">
      <rect id="Rectangle_152" data-name="Rectangle 152" width="86" height="125" transform="translate(149 151.727)" fill="#5e80a9"/>
      <path id="Path_236" data-name="Path 236" d="M39.962,12.87H52.651v7.846h9.71V30.864h11.4V44.635H81.11V55.911H89V71H3V55.911h8.122V44.635h7.126V30.864H29.005V20.716H39.962Z" transform="translate(146 92)" fill="#496e9a"/>
      <path id="Rectangle_156" data-name="Rectangle 156" d="M11,0h0A11,11,0,0,1,22,11V36a0,0,0,0,1,0,0H0a0,0,0,0,1,0,0V11A11,11,0,0,1,11,0Z" transform="translate(181 240.727)" fill="#496e9a"/>
    </g>
    <g id="Group_616" data-name="Group 616" transform="translate(5632.594 4273.614)">
      <rect id="Rectangle_152-2" data-name="Rectangle 152" width="86" height="163.108" transform="translate(149 151.727)" fill="#5e80a9"/>
      <path id="Path_236-2" data-name="Path 236" d="M39.962,12.87H52.651v7.846h9.71V30.864h11.4V44.635H81.11V55.911H89V71H3V55.911h8.122V44.635h7.126V30.864H29.005V20.716H39.962Z" transform="translate(146 92)" fill="#496e9a"/>
      <path id="Rectangle_156-2" data-name="Rectangle 156" d="M11,0h0A11,11,0,0,1,22,11V36a0,0,0,0,1,0,0H0a0,0,0,0,1,0,0V11A11,11,0,0,1,11,0Z" transform="translate(181 278.834)" fill="#496e9a"/>
    </g>
    <g id="Group_603" data-name="Group 603" transform="translate(4514.594 4310.859)">
      <rect id="Rectangle_152-3" data-name="Rectangle 152" width="86" height="125" transform="translate(149 151.727)" fill="#5e80a9"/>
      <path id="Path_236-3" data-name="Path 236" d="M39.962,12.87H52.651v7.846h9.71V30.864h11.4V44.635H81.11V55.911H89V71H3V55.911h8.122V44.635h7.126V30.864H29.005V20.716H39.962Z" transform="translate(146 92)" fill="#496e9a"/>
      <path id="Rectangle_156-3" data-name="Rectangle 156" d="M11,0h0A11,11,0,0,1,22,11V36a0,0,0,0,1,0,0H0a0,0,0,0,1,0,0V11A11,11,0,0,1,11,0Z" transform="translate(181 240.727)" fill="#496e9a"/>
    </g>
    <g id="Group_600" data-name="Group 600" transform="translate(4772.594 4273.614)">
      <rect id="Rectangle_152-4" data-name="Rectangle 152" width="86" height="162.388" transform="translate(149 151.727)" fill="#5e80a9"/>
      <path id="Path_236-4" data-name="Path 236" d="M39.962,12.87H52.651v7.846h9.71V30.864h11.4V44.635H81.11V55.911H89V71H3V55.911h8.122V44.635h7.126V30.864H29.005V20.716H39.962Z" transform="translate(146 92)" fill="#496e9a"/>
      <path id="Rectangle_156-4" data-name="Rectangle 156" d="M11,0h0A11,11,0,0,1,22,11V36a0,0,0,0,1,0,0H0a0,0,0,0,1,0,0V11A11,11,0,0,1,11,0Z" transform="translate(181 278.115)" fill="#496e9a"/>
    </g>
    <g id="Group_598" data-name="Group 598" transform="translate(5197.594 4292.999)">
      <rect id="Rectangle_149" data-name="Rectangle 149" width="86" height="132" transform="translate(326 163)" fill="#2f394b"/>
      <path id="Path_233" data-name="Path 233" d="M45.283,21l28.479,8.4V41.958H81.11V52.24H89V66H3V52.24h8.122V41.958h7.126V29.4Z" transform="translate(323 102)" fill="#33425c"/>
      <path id="Rectangle_158" data-name="Rectangle 158" d="M11,0h0A11,11,0,0,1,22,11V36a0,0,0,0,1,0,0H0a0,0,0,0,1,0,0V11A11,11,0,0,1,11,0Z" transform="translate(364 259)" fill="#33425c"/>
    </g>
    <g id="Group_601" data-name="Group 601" transform="translate(4509.594 4327.728)">
      <rect id="Rectangle_149-2" data-name="Rectangle 149" width="86" height="97" transform="translate(326 163)" fill="#2f394b"/>
      <path id="Path_233-2" data-name="Path 233" d="M45.283,21l28.479,8.4V41.958H81.11V52.24H89V66H3V52.24h8.122V41.958h7.126V29.4Z" transform="translate(323 102)" fill="#33425c"/>
      <path id="Rectangle_158-2" data-name="Rectangle 158" d="M11,0h0A11,11,0,0,1,22,11V36a0,0,0,0,1,0,0H0a0,0,0,0,1,0,0V11A11,11,0,0,1,11,0Z" transform="translate(364 224)" fill="#33425c"/>
    </g>
    <g id="Group_617" data-name="Group 617" transform="translate(5541.594 4328.449)">
      <rect id="Rectangle_149-3" data-name="Rectangle 149" width="86" height="97" transform="translate(326 163)" fill="#2f394b"/>
      <path id="Path_233-3" data-name="Path 233" d="M45.283,21l28.479,8.4V41.958H81.11V52.24H89V66H3V52.24h8.122V41.958h7.126V29.4Z" transform="translate(323 102)" fill="#33425c"/>
      <path id="Rectangle_158-3" data-name="Rectangle 158" d="M11,0h0A11,11,0,0,1,22,11V36a0,0,0,0,1,0,0H0a0,0,0,0,1,0,0V11A11,11,0,0,1,11,0Z" transform="translate(364 224)" fill="#33425c"/>
    </g>
    <g id="Group_595" data-name="Group 595" transform="translate(5186.594 4327.748)">
      <rect id="Rectangle_151" data-name="Rectangle 151" width="86" height="136" transform="translate(79 124)" fill="#2f394b"/>
      <path id="Path_235" data-name="Path 235" d="M46.459,14.162l27.3,18.513V47.93H81.11V60.421H89V77.137H3V60.421h8.122V47.93h7.126V32.674Z" transform="translate(76 54.091)" fill="#33425c"/>
      <path id="Rectangle_160" data-name="Rectangle 160" d="M11,0h0A11,11,0,0,1,22,11V37a0,0,0,0,1,0,0H0a0,0,0,0,1,0,0V11A11,11,0,0,1,11,0Z" transform="translate(109 223)" fill="#33425c"/>
    </g>
    <g id="Group_619" data-name="Group 619" transform="translate(5960.594 4310.232)">
      <rect id="Rectangle_151-2" data-name="Rectangle 151" width="86" height="154.217" transform="translate(79 124)" fill="#2f394b"/>
      <path id="Path_235-2" data-name="Path 235" d="M46.459,14.162l27.3,18.513V47.93H81.11V60.421H89V77.137H3V60.421h8.122V47.93h7.126V32.674Z" transform="translate(76 54.091)" fill="#33425c"/>
      <path id="Rectangle_160-2" data-name="Rectangle 160" d="M11,0h0A11,11,0,0,1,22,11V37a0,0,0,0,1,0,0H0a0,0,0,0,1,0,0V11A11,11,0,0,1,11,0Z" transform="translate(109 241.217)" fill="#33425c"/>
    </g>
    <g id="Group_604" data-name="Group 604" transform="translate(4498.594 4347.477)">
      <rect id="Rectangle_151-3" data-name="Rectangle 151" width="86" height="116" transform="translate(79 124)" fill="#2f394b"/>
      <path id="Path_235-3" data-name="Path 235" d="M46.459,14.162l27.3,18.513V47.93H81.11V60.421H89V77.137H3V60.421h8.122V47.93h7.126V32.674Z" transform="translate(76 54.091)" fill="#33425c"/>
      <path id="Rectangle_160-3" data-name="Rectangle 160" d="M11,0h0A11,11,0,0,1,22,11V37a0,0,0,0,1,0,0H0a0,0,0,0,1,0,0V11A11,11,0,0,1,11,0Z" transform="translate(109 203)" fill="#33425c"/>
    </g>
    <g id="Group_599" data-name="Group 599" transform="translate(4928.594 4328.449)">
      <rect id="Rectangle_151-4" data-name="Rectangle 151" width="86" height="136" transform="translate(79 124)" fill="#2f394b"/>
      <path id="Path_235-4" data-name="Path 235" d="M46.459,14.162l27.3,18.513V47.93H81.11V60.421H89V77.137H3V60.421h8.122V47.93h7.126V32.674Z" transform="translate(76 54.091)" fill="#33425c"/>
      <path id="Rectangle_160-4" data-name="Rectangle 160" d="M11,0h0A11,11,0,0,1,22,11V37a0,0,0,0,1,0,0H0a0,0,0,0,1,0,0V11A11,11,0,0,1,11,0Z" transform="translate(109 223)" fill="#33425c"/>
    </g>
    <rect id="Rectangle_166" data-name="Rectangle 166" width="85" height="13" transform="translate(5135.594 4663.227)" fill="#ebf0fc" opacity="0.152"/>
    <rect id="Rectangle_170" data-name="Rectangle 170" width="85" height="13" transform="translate(4620.594 4663.227)" fill="#ebf0fc" opacity="0.152"/>
    <rect id="Rectangle_174" data-name="Rectangle 174" width="85" height="13" transform="translate(4491.594 4663.227)" fill="#ebf0fc" opacity="0.152"/>
    <rect id="Rectangle_167" data-name="Rectangle 167" width="85" height="13" transform="translate(5264.594 4663.227)" fill="#ebf0fc" opacity="0.152"/>
    <rect id="Rectangle_171" data-name="Rectangle 171" width="85" height="13" transform="translate(4749.594 4663.227)" fill="#ebf0fc" opacity="0.152"/>
    <rect id="Rectangle_168" data-name="Rectangle 168" width="85" height="13" transform="translate(5393.594 4663.227)" fill="#ebf0fc" opacity="0.152"/>
    <rect id="Rectangle_175" data-name="Rectangle 175" width="85" height="13" transform="translate(5651.594 4663.227)" fill="#ebf0fc" opacity="0.152"/>
    <rect id="Rectangle_177" data-name="Rectangle 177" width="85" height="13" transform="translate(5908.594 4663.227)" fill="#ebf0fc" opacity="0.152"/>
    <rect id="Rectangle_172" data-name="Rectangle 172" width="85" height="13" transform="translate(4878.594 4663.227)" fill="#ebf0fc" opacity="0.152"/>
    <rect id="Rectangle_169" data-name="Rectangle 169" width="85" height="13" transform="translate(5522.594 4663.227)" fill="#ebf0fc" opacity="0.152"/>
    <rect id="Rectangle_176" data-name="Rectangle 176" width="85" height="13" transform="translate(5779.594 4663.227)" fill="#ebf0fc" opacity="0.152"/>
    <rect id="Rectangle_178" data-name="Rectangle 178" width="85" height="13" transform="translate(6037.594 4663.227)" fill="#ebf0fc" opacity="0.152"/>
    <rect id="Rectangle_173" data-name="Rectangle 173" width="85" height="13" transform="translate(5006.594 4663.227)" fill="#ebf0fc" opacity="0.152"/>
  </g>
</svg>
