<?xml version="1.0" encoding="utf-8"?>
<!-- Generator: Adobe Illustrator 26.5.0, SVG Export Plug-In . SVG Version: 6.00 Build 0)  -->
<svg version="1.1" id="Laag_1" xmlns="http://www.w3.org/2000/svg" xmlns:xlink="http://www.w3.org/1999/xlink" x="0px" y="0px"
	 viewBox="0 0 8703.2 6291.3" style="enable-background:new 0 0 8703.2 6291.3;" xml:space="preserve">
<style type="text/css">
	.st0{fill:#1D2233;}
	.st1{opacity:0.36;}
	.st2{fill:#2F394B;}
	.st3{fill:#5E80A9;}
	.st4{enable-background:new    ;}
	.st5{fill:#FFFFFF;}
	.st6{opacity:0.543;fill:#FE0E37;enable-background:new    ;}
</style>
<g id="Group_748" transform="translate(-7839.5 3889.731)">
	<g id="Group_745" transform="translate(5850.5 -4209.881)">
		<g id="Group_633" transform="translate(1989.832 320.15)">
			<rect id="Rectangle_181" x="0" y="0" class="st0" width="8702" height="6291.3"/>
		</g>
		<g id="Group_634" transform="translate(10214.635 1524.483)" class="st1">
			<path id="Path_246" d="M476.4,86.6L262,0L0,341.6l285.2,709.7l191.2-112.7V86.6z"/>
		</g>
		<g id="Group_635" transform="translate(6888.566 1978.792)">
			<path id="Path_247" class="st2" d="M2331.2,742.8l391.3,202.3L2895,742.8l99.4-560.4l63-182.4h102.1l40.5,318.3l-132.6,795.9
				l165.8,152.5l-46.4,145.9l-477.5,490.8l-447.7,504l-587,673.2l-427.8,145.9l-537.2,145.9l-116.1-258.7L0,2782.2l341.6-500.7
				L640,1913.4L2056,875.5L2331.2,742.8z"/>
		</g>
		<g id="Group_636" transform="translate(6593.432 4004.941)" class="st1">
			<path id="Path_248" d="M0,729.5h195.7l139.2-228.8L610.2,89.5L494.1,0H366.7L0,729.5z"/>
		</g>
		<g id="Group_637" transform="translate(6251.872 3912.09)" class="st1">
			<path id="Path_249" d="M0,858.9l162.5,13.3l199-179.1L663.2,69.6L454.3,0L0,858.9z"/>
		</g>
		<g id="Group_638" transform="translate(5459.319 1295.671)" class="st1">
			<path id="Path_250" d="M1266.8,2579.9l417.8,112.7l139.3,112.7l248.7-285.2l-129.3-291.8l225.5-169.1l139.3-480.8l-464.3-348.2
				l99.5-354.8L2119,242.1l73-162.5l59.7-56.4L2221.8,0l-454.3,384.7l73,262l-159.2,235.4l-285.2,484.2L726.2,2543.5l-169.1,328.3
				l-69.6,33.2l-169.1,16.6L136,2938.1L0,2961.3l271.9,434.4l126,202.3l119.4-19.9l145.9-126l96.2-136L965,2914.9l659.9-1213.7
				l99.5,39.8L1266.8,2579.9z"/>
		</g>
		<g id="Group_639" transform="translate(7455.624 2900.673)" class="st1">
			<path id="Path_251" d="M354.8,0l381.4,331.6L89.5,822.4L0,640l242.1-185.7L354.8,0z"/>
		</g>
		<g id="Group_640" transform="translate(7439.042 1373.26)" class="st1">
			<path id="Path_252" d="M328.3,0L225.5,356.8L0,1119.5l782.6,709.6l255.3-169.1l-577-517.3L328.3,813.3l39.8-310.6L519,402.3
				V255.4L328.3,0z"/>
		</g>
		<g id="Group_641" transform="translate(7926.512 1723.451)" class="st1">
			<path id="Path_253" class="st3" d="M559.7,255.3L328.3,39.8L172.4,0L106,127.7L0,394.6l112.7,278.6L713,1200.4l245.4-175.8
				l179.1-262L1031.3,703l-79.6,139.3l-89.5-82.9l106.1-132.6l-81.7-62.3l-84.1,102.1l-56.4-46.4l69.6-112.7l-76.3-46.4l-96.2,73
				l-74.6-62l77.9-127l-56.4-43.1l-89.5,109.4L451,374.7L559.7,255.3z"/>
		</g>
		<g id="Group_642" transform="translate(7657.907 5085.996)" class="st1">
			<path id="Path_254" class="st3" d="M0,354.8L984.9,0c0,0,76.3,116.1,202.3,122.7s305.1,179.1,305.1,179.1L142.6,746.1L0,354.8z"
				/>
		</g>
		<g id="Group_643" transform="translate(7840.293 5433.525)" class="st1">
			<path id="Path_255" class="st3" d="M0,488.1L1359.6,0.7c0,0,89.5-16.6,325,116.1s325,172.4,325,172.4l-46.4,63l16.6,89.5
				L189,1041.9L0,488.1z"/>
		</g>
		<g id="Group_644" transform="translate(8672.64 4004.613)" class="st1">
			<path id="Path_256" d="M2018.4,2062.6l-1351.6-716c0,0-36.7-26.5-79.8,0L0,1058.2l822.4-938.5l119.4-86.2l36.5-33.2
				c0,0,33.2-6.6,119.4,39.8s920.7,466.1,920.7,466.1L2018.4,2062.6z"/>
		</g>
		<g id="Group_645" transform="translate(9757.011 3335.085)" class="st1">
			<path id="Path_257" d="M934,1059.8L73,603.5L0,500.7L497.4,0L934,319.1L934,1059.8z"/>
		</g>
		<g id="Group_646" transform="translate(10559.512 3203.146)" class="st1">
			<path id="Path_258" d="M131.5,263.5L0,108.7L131.5,0V263.5z"/>
		</g>
		<g id="Group_647" transform="translate(10430.183 2943.878)" class="st1">
			<path id="Path_259" d="M260.8,71.9L195.1,0L0,132.6l129.3,163.8l131.5-65.4V71.9z"/>
		</g>
		<g id="Group_648" transform="translate(8053.857 6475.45)" class="st1">
			<path id="Path_260" d="M280,135.5L206.3,0L0,67.8v67.8L280,135.5z"/>
		</g>
		<g id="Group_649" transform="translate(8333.894 5891.813)" class="st1">
			<path id="Path_261" class="st3" d="M56.9,719.1L0,563.7L1774.6,0l351.5,162.5l49.7,46.4L661.1,719.1H56.9z"/>
		</g>
		<g id="Group_650" transform="translate(9230.851 6130.574)" class="st1">
			<path id="Path_262" class="st3" d="M0,480.4L1378.4,0l81.8,68.1v412.3L0,480.4z"/>
		</g>
		<g id="Group_651" transform="translate(6340.011 6017.826)" class="st1">
			<path id="Path_263" d="M16.3,593.1L0,402.5L1205.1,0l203.8,593.1H16.3z"/>
		</g>
		<g id="Group_652" transform="translate(3774.731 4893.661)">
			<path id="Path_264" class="st2" d="M3584.7,630.1L2548.9,998.2L1227,772.7L344.4,0L0,222.2l1008,902l1469.1,296.6l1276.7-376.2
				L3584.7,630.1z"/>
		</g>
		<g id="Group_653" transform="translate(3303.842 5175.531)" class="st1">
			<path id="Path_265" d="M2983.5,1435.4v-186L1482.3,971.6L325,0L0,232.1l1156.2,1203.3L2983.5,1435.4z"/>
		</g>
		<g id="Group_654" transform="translate(2505.021 5452.192)">
			<path id="Path_266" class="st2" d="M1864.1,1158.8L696,0L341.2,237.3l-36.5,76.3l-82.9-33.2c0,0-233.8,160.1-221.3,298.9
				l477.3,579.4H1864.1z"/>
		</g>
		<g id="Group_655" transform="translate(1989 5311.293)" class="st1">
			<path id="Path_267" d="M880.1,1299.7H0V0c0,0,0.6,0.4,1.7,1.1c9.7,6.6,60.9,41.7,120.1,95.3c6.7,6,13.4,12.3,20.3,18.8
				c97.7,93,206.8,231.1,187.9,372.4c-33.2,248.7,277.5,515.4,277.5,515.4S796.9,1126.8,880.1,1299.7z"/>
		</g>
		<g id="Group_656" transform="translate(4171.6 322.39)" class="st1">
			<path id="Path_268" class="st3" d="M3186.7,5136.7l-1048,373.1L853.3,5241.1L0,4412.1l57.4-2344.5l557.2-1016.7L850,1195.5
				l-427.8,663.2l-169.1,878.8L133.7,4117L624,4631l299,79.6l557.1,55.4v-35.5l-808.6-159.2l-421.7-447.7l116.1-1386.1l192.3-845.6
				l397.9-683.1l510.7-819.1L1751.4,0h198.9l491.3,396.2l258.7,315.1L2203,1364.6l169.1,126L2896,887.1v-76.3h59.7l59.7,36.5
				l232.1-23.2l152.5,13.3l102.8,79.6l-134.2,134L3022.1,1348l-795.9,1167.3l-364.8,490.8l-96.2,222.2l-94.2,361.5l-28.5,222.2
				l-39.8,49.7l-126,13.3l-208.9-16.6l-43.1,82.9l169.1,328.3l225.5,364.8l102.8,63l547.2-39.8l457.6-1l391.3,186.7l53.1,36.5
				L3186.7,5136.7z"/>
		</g>
		<g id="Group_657" transform="translate(5910.312 1763.244)" class="st1">
			<path id="Path_269" d="M0,2371h71.5l124.2-281.9L1343,129.3L1283.3,0L73,1780.8L0,2371z"/>
		</g>
		<g id="Group_658" transform="translate(1989 4171.135)" class="st1">
			<path id="Path_270" d="M0,945.4l114.4,161.8l218.9,205.6l106.8,304l241.4-88.4l490.8-295.1l-66.3-159.2l-6.6-291.8l-490.8,311.7
				l-73,16.6L0,0V945.4z"/>
		</g>
		<g id="Group_659" transform="translate(2388.592 4439.353)" class="st1">
			<path id="Path_271" d="M703,0L0,404.6l155.9,354.8L703,470.9L703,0z"/>
		</g>
		<g id="Group_660" transform="translate(1989 3278.711)" class="st1">
			<path id="Path_272" class="st2" d="M1149,0l-10.7,506.7l-0.6,26.5l-11.2,529.8l-0.4,19.9l-0.4,18.1l-42.4,23.4v0l-20.1,11.1
				l-634.7,350.7l-17.5,9.6l-41.4,22.9L1.7,692.9L0,689.2V544.4l1.7-0.8L462,325.5l24-11.3l593.1-281l20.1-9.5L1149,0z"/>
		</g>
		<g id="Group_661" transform="translate(1989 1988.74)" class="st1">
			<path id="Path_273" d="M1241.9,0L1149,266.9v942.3l-48.7,23.5l-20.1,9.7l-621.6,299.9l-23.9,11.5l-433,208.9l-1.7,0.8V488.7
				l1.7-0.7l339-133.4l24.7-9.7l395.8-155.8l24.7-9.7L1177,25.5l28.9-11.4L1241.9,0z"/>
		</g>
		<g id="Group_662" transform="translate(1989 1464.793)" class="st1">
			<path id="Path_274" d="M1527.1,0l-55.3,126.8l-8,18.3l-129,295.9l-96.8,38.3l-28.9,11.4v0L770.3,664.5l-24.7,9.8L350.4,830.8
				l-24.7,9.8L1.7,968.8L0,969.5V553.8l1.7-0.6l1077.9-390.9l18.7-6.8l357.5-129.6l26.3-9.5L1527.1,0z"/>
		</g>
		<g id="Group_663" transform="translate(3171.635 1736.715)" class="st1">
			<path id="Path_275" d="M59.3,3607.2l401.2-214.8l-92.9-192.3L434,573.7l195.7-417.8L314.6,0L59.3,490.5L12.8,2855.2L0,3462
				L59.3,3607.2z"/>
		</g>
		<g id="Group_664" transform="translate(3635.453 1949.533)" class="st1">
			<path id="Path_276" d="M99.5,3090l319.1-220.5L504,417.2L623.4,205L274.4,0L63,327.7L0,2911L99.5,3090z"/>
		</g>
		<g id="Group_665" transform="translate(1989 322.39)" class="st1">
			<path id="Path_277" class="st2" d="M2086.7,0l-496.6,1062.8L0,1666.3v-149L572.1,0H2086.7z"/>
		</g>
		<g id="Group_666" transform="translate(1989 322.39)" class="st1">
			<path id="Path_278" d="M494.6,0L0,1365.4V682.7L247.3,0H494.6z"/>
		</g>
		<g id="Group_667" transform="translate(3532.654 322.39)" class="st1">
			<path id="Path_279" d="M682.1,0L0,1328.1l311.7,172.4L1092.2,0H682.1z"/>
		</g>
		<g id="Group_668" transform="translate(3947.168 322.39)" class="st1">
			<path id="Path_280" d="M838.4,0L0,1566.4l311.7,166.1l892-1628.1L838.4,0z"/>
		</g>
		<g id="Group_669" transform="translate(4809.717 430.164)" class="st1">
			<path id="Path_281" d="M454,0L0,865.5l227,126.8L822,119.4L454,0z"/>
		</g>
		<g id="Group_670" transform="translate(5096.456 322.39)" class="st1">
			<path id="Path_282" d="M723.5,0L591.7,184L0,0H723.5z"/>
		</g>
		<g id="Group_671" transform="translate(6313.722 322.39)" class="st1">
			<path id="Path_283" class="st3" d="M1518,0l-64.4,161l218.9,105.9l59.7-106.1l129.3,76.3l-344.9,530.6l-334.9-56.4l-212.2-6.6
				L508.5,509V383.8l-258.7-296l-36.5,59.7L0,0H1518z"/>
		</g>
		<g id="Group_672" transform="translate(8002.406 473.274)" class="st1">
			<path id="Path_284" class="st3" d="M0,616.8v205.6L666.9,1091l640,252l142.6-23.2l136-235.4l-59.7-676.5l-56.4-33.2l-3.3-86.2
				L792.7,153.9V34.1L720,0l-26.5,145.9L547.5,136l-73,68.8L272.3,126L0,616.8z"/>
		</g>
		<g id="Group_673" transform="translate(9690.688 402.572)" class="st1">
			<path id="Path_285" class="st3" d="M1000.3,970.7l-141.5-77.6l-699.7,119.4v83.4h-60L0,471.9h365.7l-4.2-89.5l-155.9-53.1
				l86.2-288.5l103.8,29.8L431.1,0l569.2,167.7V970.7z"/>
		</g>
		<g id="Group_674" transform="translate(5248.746 1004.549)">
			<path id="Path_286" class="st3" d="M5443.4,2272.9v65.7l-1.1,0.5l-74.6,35.2l-183.4,86.7l-65.8,31.1l-160.8-44.9l-2.2-0.6
				l-22.8-11.9l-20-10.5l-83.9-43.8l-46-24l-24.3-12.7l-188.9-98.7l-28.6-17.9l-22.8-14.3l-39.1-24.4l-48.4-30.3l-301.4-188.4
				l-216.2-76.9l-26.6-9.4l-93.5-33.3l-28.1-9.9l-7.4-2.7l-4.2-3.7l-8.6-7.7l-102.1-92.2l-36.6-33.1l-20-18.1l-579.3-522.9
				l-19.7-17.8L2789,963.3l-21.6-19.5L2751,929l-118.5-107l-4.7-4.3l14.5-234.1l-13.3-13.8l-22.3-23.1l-75.7-78.7l-21.3-22.2
				l-10.2-10.6l-78.7-81.7l-27.9-29l-28-29.1l-46.5-48.3l-93.3,6.7l-52.8,3.8h0L1867,279.5l-26.6,1.9l-58.8,4.2l-19.2,1.4l-6.9-6.5
				l-1.2-1.2l-186.2-177.7l-17.5-16.7L375.2,1667.2l-100.5,299.9l-11.5,34.5l-3,52.4v0l-21.5,377.1L85.1,3158.6l-5.7,27.2L59.7,3279
				l398.4,670.5l12.1,20.3l-7.3,37.8L392,4376.9l-5,26.1l-42,218.6l-5,26l-5.4,28.1l-15.9,82.6l-4.1,21.4l-3.7,19.6L251.5,5109
				l-3.7,19.5l-5.3,27.8L220.8,5269l-7.6,39.7l-3.7,19.5L156,5606.4l-0.1,0.5h-51.7l-2.4-0.5l-3.1-0.6l55.1-287.3l3.7-19.6h0
				l7.7-40.2l21.8-113.7l5.3-27.4l3.7-19.5l59.2-308.5l3.7-19.6l4.1-21.3l16.2-84.7l5.2-27.3l5-26.1l41.8-217.8l5-26.1l42.3-220.6
				l5.1-26.6l7.1-37l6.8-35.3l12.9-67.1l-42.8-72.1l-10.3-17.3L0,3288.9l2.3-10.7l141.5-670.7l5.7-27.1l33.1-156.6l24.7-432.9
				l1.2-3.6l32-95.6l18.8-56.2l60.7-181.2l4.5-13.4l2.7-3.6l4.9-6.6l1098-1478.3l12.3-16.5l66.9-90.1l33.8-45.5v0l0.2-0.2l22.9,21.9
				l36.2,34.6l180.8,172.5l15.7-1.1l541.7-38.7l64.1,66.6l53.4,55.5l0.1,0.1l3.4,3.5l55.7,57.9l18.5,19.2l0,0l164.1,170.5l-2.8,45.6
				l-11.1,178.2v0l-0.5,7.8l87.5,79l18.7,16.9l20.2,18.2l862.8,778.7l112.2,101.2l21,7.5l15.8,5.6h0l39.1,13.9l291.1,103.5
				l306.1,191.4l48.5,30.3l38.8,24.2l22.9,14.3l28.2,17.6l193.2,100.9l23.5,12.3l30.7,16.1l108.2,56.5l22.1,11.5l137.1,38.3l19-9
				l197.4-93.3l99.3-47l13.1-9.2L5443.4,2272.9z"/>
		</g>
		<g id="Group_675" transform="translate(5684.285 2478.896)">
			<path id="Path_287" class="st3" d="M4282,0l-257.5,635.7l-10.8,26.7l-18.6,21.4l-296.4,340.4l-696.7,498.6l-510.4,344.7l-2.2,1.5
				l-123.3,123.3l-9.1,33.5l-92.2,57.6l-25.3,15.8l-101.6,63.5l-260.9,482.2l-54.6,24l-163,71.6l-59.7,26.3l-254.4-204.1l0,0
				l-7.7-6.1l-6.2-0.5l-360-27l-1.1-0.1H323.8l-188.8-33.7h0l-112.4-20.1l-12.7-2.3L0,2528.4l27.4,4.9l291.5,52h649.5l347.8,26.1
				l275.1,220.8l0.8-0.4l24.4-10.7l46.7-20.5l182.5-80.2l58-25.5l13.9-6.1l6.1-11.3l11.6-21.5v0l28.8-53.3l216.4-400l154.9-96.8
				l-12.9,47.9l3.4,8.7c1.1,2.7,26.5,65.5,85.3,76.3c9.6,1.8,19.4,2.1,29.1,0.9c17.2-2.1,34.9-8.6,52.8-19.7
				c18.7-11.5,37.7-27.8,57.1-48.8c44.5-48.5,60.4-93.2,47.2-132.9c-20.9-62.8-105.1-80.4-114.6-82.2l-0.6-0.1l43.2-43.2
				l508.5-343.4l700.3-501.2l2.7-1.9l306.6-352.1l18.9-21.7l10.6-26.3l236.7-584.4l0-0.1l24.5-60.5L4282,0z M2482.5,2013.9
				c19.3,5.6,54,19.5,61.5,42c6.1,18.2-6.4,45.6-35.2,77c-34,37-64.1,54.5-87,50.3c-19.8-3.5-33.4-23.2-39.6-34.2l23.6-87.2
				L2482.5,2013.9z"/>
		</g>
		<g id="Group_676" transform="translate(7684.668 320.732)">
			<path id="Path_288" class="st3" d="M3007.5,718.6v57.2l-1.1-0.2l-378.9-66.2l-605.2-53.6h0l-171.6-15.2l-80.1-7.1l-1.2-0.2
				l-19.8-3.5l-27.7-4.9l-1108-196.1l-26.5-4.7l-71-12.6l-1.3-0.2l-73.6-96.8l-95.2-125.2l-3.7-4.8L121.6,65.5L3.1,1.7L0,0h118.9
				l3.1,1.7l20.6,11.1L380,140.6l45.4,59.7l0,0l48.6,63.9l71.7,94.3l0.8,1.1L881,418.9l26.2,4.6L1712,566l27.7,4.9l38.1,6.7l67.7,6
				l167.5,14.8l621.7,55l371.6,64.9L3007.5,718.6z"/>
		</g>
		<g id="Group_677" transform="translate(4636.192 5074.323)">
			<path id="Path_289" class="st3" d="M2366.8,1537.1h-27.6l-0.1-0.5l-14.1-49.7l-7.3-25.7l-82.8-292.6l-29-102.5L2108.5,721
				l-5.4-19.2l-8.2-29l-16.6-58.8l-10.1-35.8l-7.2-25.5l-56.6-200.1L1616,444.9L999.6,333.2l-55.5-10L356.5,216.7L0,23.3L12.6,0
				l352.7,191.3l583.7,105.8l55.5,10l610.7,110.7l407.6-97l3.5,12.2l59.7,211.3l7.2,25.5l9.9,35.2l16.6,58.8l8.1,28.6l5.4,19.2
				l98.1,347l28.7,101.6l82.5,291.8l7.2,25.6l16.7,59L2366.8,1537.1z"/>
		</g>
		<g id="Group_678" transform="translate(1989 4801.108)">
			<path id="Path_290" class="st3" d="M3007.7,890.3L3000,905l-146.2,279.4l-9.6,18.4l-11.4,21.8l-55,105.2L2764,1356l-9.5,18
				l-221.1,422.3l-7,13.5l-0.2,0.5h-29.9l0.2-0.5l7.8-14.9l9.7-18.5l219.7-419.9l9.5-18.1l13.7-26.1l48.7-93.1l14.7-28.2l9.5-18.1
				l144.6-276.4l-846-747.2l-24.1-40.1l-44.1-73.3l-119.9,68.2l-0.1,0.1l-157,89.3l-17.3,9.8l-30.1,17.1l-113.5,64.6l-24,13.7
				l-17.3,9.8L1228.1,509l-76.9,43.7l-17.7,10.1l-17.3,9.8L790.1,758l-17.4,9.8L453.8,949.2l-87.5-241.6L251.9,560.2l-30.1,17.9
				L142,625.4L1.7,708.8l-1.7,1V679l1.7-1l120.1-71.4l79.9-47.5l56.8-33.8l131.4,169.2l78.3,216l293.6-166.9h0l17.3-9.9l323.7-184
				l17.3-9.8l20.9-11.9l77.1-43.8l35.5-20.2l17.3-9.8l298.6-169.8l17.3-9.8l24.1-13.7l112.2-63.8l29.5-16.8l17.3-9.8L2053.3,9.4
				l12.3-7l4.2-2.4l2.8,4.7l0,0l54.1,90l22.5,37.3l852.6,753.1L3007.7,890.3z"/>
		</g>
		<g id="Group_679" transform="translate(7267.234 5274.252)">
			<path id="Path_291" class="st3" d="M457.2,1337.2h-27.9l-0.2-0.5l-84.3-261.1l-8.2-25.2l-95.1-294.6l-25.3-78.4l-124.7-386
				l-6.1-19L79.4,254l-18.9-58.3L54.2,176l-8.2-25.2L9.1,36.4L0,8.2L25.3,0l8.3,25.7l52,161.1l72.1,223l84,260l25,77.5l95.2,294.8
				l8.2,25.3l87,269.3L457.2,1337.2z"/>
		</g>
		<g id="Group_680" transform="translate(6773.265 2374.637)">
			<path id="Path_292" class="st3" d="M3507.1,2140.5L3028.1,3086l-12,23.7l-42.1,83l-41.6,82.2l-9.8,19.3l-4.8,9.4l-5.2,1.7
				l-13.4,4.3l-978.4,316l-53.8,17.4l-640.9,207l-25.3,8.2l-24.9,8.1l-294.8,95.2L864,3967l-25.3,8.2L213,4177.3l-11.6,3.7
				l-13.3,5.6l-118.3,49.7l-1.1,0.5H0l1.1-0.5l179.6-75.4l11.3-4.8l0.5-0.2l13.1-4.2l624.9-201.7l25.3-8.2l16.7-5.4l294.8-95.2
				l24.7-8l25.3-8.2l639.9-206.7l53.8-17.3l962.2-310.7l26-8.4l3.4-6.7l6.4-12.7l41.6-82.1l41.8-82.6l12-23.6l467.3-922.7
				l-515.1-283l-27.5-15.1l-21.7-11.9l-64.4,24.8l-123.8-113.8l-61.8-56.8l-17.1-15.7l-19.5-17.9l-106.6-98l-20-18.3L2357.8,1420
				l138.5-139.9l271.4-182.2l226-255.1l18.8-21.3l10.4-26.9L3206.2,320l14.6-134.1l0-0.1l3.2-29.5l-4.9-41.5L3206,3.1l26.3-3.1
				l18.4,156.2l-0.2,1.5l-18.4,168.7l-0.6,1.6l-185.7,480.9l-10.3,26.6l-19.1,21.5l-231.2,261.1l-1.4,0.9l-270.6,181.7L2396,1419.1
				l279.2,256.6l65.5,60.2l108.3,99.5l60.5-23.3L3507.1,2140.5z"/>
		</g>
		<g id="Group_681" transform="translate(8115.664 4674.831)">
			<path id="Path_293" class="st3" d="M821,1936.6h-60.7l-0.2-0.5l-5.1-13l-91.6-230.9l-9.8-24.7l-8.9-22.3l-31.4-79.2l-11.6-29.2
				l-9.8-24.7l-67.2-169.3l-9.8-24.7l-101.6-256.1l-9.8-24.7l-11.8-29.7l-29.2-73.5l-11.4-28.9l-9.8-24.7L201.5,528.5l-21-52.8
				l-13.3-33.5l-9.8-24.7L25.8,85.7L15.7,60.3L9.1,43.6L0,20.8L52.4,0l9.5,23.9l1,2.5L73,51.9L211.5,401l9.8,24.7l12.6,31.8
				l20.6,51.9l140.4,353.7l9.8,24.7l11.4,28.8l28.6,72.1l11.7,29.5l9.8,24.7l102.4,258l9.8,24.7l67,168.9l9.8,24.7l11.6,29.1
				l31.7,80l8.7,21.9l9.8,24.7l91.8,231.3l9.8,24.7l2.2,5.4L821,1936.6z"/>
		</g>
		<g id="Group_682" transform="translate(8387.387 5905.641)">
			<path id="Path_294" class="st3" d="M1919.4,104.2v160.9l-80,25.4l-0.7,0.2l-502.3,159.1l-28.1,8.9L546.9,699.9l-17,5.4l-1.5,0.5
				h-87.7l1.5-0.5l41.1-13l53.9-17.1l775.3-245.7l28.1-8.9l552.3-175V120.2l-174.6-91.5l-336.9,109.9l-28.2,9.2L445.3,443.9
				l-53.7,17.5L33.3,578.3l40.6,127l0.2,0.5H46.2l-0.2-0.5l-46-144l12.5-4.1l369.3-120.5l53.7-17.5l921.9-300.7l28.2-9.2L1720.7,0
				L1919.4,104.2z"/>
		</g>
		<g id="Group_683" transform="translate(4208.021 4596.208)">
			<path id="Path_295" class="st3" d="M2080.1,1192.5l-3.4-0.7L845.3,951.4L0,136L217.6,0l324.2,371.5l165.1,90.7l414.4,72.4
				l322-6.9l0.6,26.5l-324.6,7l-1.3-0.2l-420-73.3l-1.9-1.1l-171.2-94l-312.5-358l-169.6,106l815.2,786.3l1220.3,238.3l1039.4-340.5
				l8.3,25.2L2080.1,1192.5z"/>
		</g>
		<g id="Group_684" transform="translate(4200.279 1379.763)">
			<path id="Path_296" class="st3" d="M215.2,3240.2L88.7,3094.7L0,3161.2l60.3-2151.9L590.1,0L955,207.5l307.8,128.3l-7.7,18.4
				l-309-128.8l-0.5-0.3L598.2,27.5l-518.1,987l-59,2106l70.5-52.9l138.7,159.5L215.2,3240.2z"/>
		</g>
		<g id="Group_685" transform="translate(4280.471 1512.318)">
			<path id="Path_297" class="st3" d="M19.8,2949.4L0,2947.8l112.8-1396.6l0.1-0.5l169.5-877.4l1.1-1.7L732.8,0l16.5,11.1
				L301.2,680.9l-168.6,872.9L19.8,2949.4z"/>
		</g>
		<g id="Group_686" transform="translate(3339.789 5209.521)">
			<path id="Path_298" class="st3" d="M2922,1244.4v157.5h-19.9v-140.8l-783.8-137.8l-55.5-9.7L1451.4,1006l-2.1-1.8l-45.6-38.7
				L1383,948L295,24.9L30.9,201.4L1163.3,1368l19.4,20l13.1,13.5l0.5,0.5h-27.7l-0.4-0.5l-14.5-14.9L0,198.2L282.9,9l13.4-9l7.4,6.2
				L1392.5,930l20.7,17.6l46.9,39.8l606.4,106.6h0l55.5,9.8L2922,1244.4z"/>
		</g>
		<g id="Group_687" transform="translate(3040.177 320.732)">
			<path id="Path_299" class="st3" d="M1222.1,6290.7h-27.6l-0.4-0.5L159.5,5210.2l-6.7-6.9l-0.6-1l-4.7-8l-22.6-38.7l-32.1-54.9
				L65,5053l-13.4-22.9L0,4942l0-2.8l4-278.6l0.7-46.5v0l0.3-23.8l0.4-26.4l5.1-359.9l0.4-30.8l0.5-31.6l0.7-48.1l0.7-46.3l0.3-23.3
				l10.4-732.2l0.3-22.5l4-278l1.2-80.7l3.3-231.6l0.4-29.2v0l2.9-204.3l0.4-29.3v0l3.4-235l0.4-28.6l1.6-111.8l0.1-0.8l15.5-92.3
				l5.1-30.5v0l26.1-154.9l0.8-1.5l36.7-67.2l32.1-58.7l0,0l3.6-6.6l12.2-22.4v0l112-205l19.5-35.8l60.6-111l38.7-84.1l30.3-66
				L722,479.8l11.9-25.9L942,1.7l0.8-1.7h21.9l-0.8,1.7L754.1,457.8l-8.4,18.2l-284.3,618l-30.6,66.5l-43,93.5v0l-4.1,9l-0.2,0.3
				l-4.7,8.5l-64.1,117.5l-0.2,0.3v0h0l-127.6,233.8l-32.1,58.8l-47.3,86.6l-46,273.6l-1.5,102.3l-0.4,28.6L52,2701.5l-0.3,19.9
				l-2.6,179.4l-1.2,80.8L41,3463.1l-0.4,26.5l-7.6,530.3l-0.3,19.9l-0.6,42.6v0l-0.7,47.7l-6.8,473.4v0l-0.6,44.3l-4.1,288.9
				l48.9,83.6l13.4,22.9l27.6,47.2l31.6,54.1l27.4,46.7l1052.8,1099.1L1222.1,6290.7z"/>
		</g>
		<g id="Group_688" transform="translate(2193.284 771.368)">
			<path id="Path_300" class="st3" d="M7.2,631.4L0,612.8L1589.2,0l1017.1,613.6l-10.3,17L1587.2,22.1L7.2,631.4z"/>
		</g>
		<g id="Group_689" transform="translate(2842.271 5509.696)">
			<path id="Path_301" class="st3" d="M813.6,1101.7H781l-0.6-0.5l-143.1-110l-0.7-0.8L0,242.5l2.2-1.5l16.6-11.4L345.5,5.2l7.6-5.2
				l11.3,16.4l-7,4.8L248.6,95.9L232,107.3l-95.3,65.5l-16.5,11.4l-90.7,62.3l621.6,730.3L813,1101.3L813.6,1101.7z"/>
		</g>
		<g id="Group_690" transform="translate(3068.463 5597.143)">
			<path id="Path_302" class="st3" d="M983.3,1014.3h-27.5l-0.4-0.5L5.8,19.9L0,13.8L14.4,0l8.1,8.5l960.3,1005.3L983.3,1014.3z"/>
		</g>
		<g id="Group_691" transform="translate(2956.611 5674.043)">
			<path id="Path_303" class="st3" d="M867.9,937.4h-26.9l-0.4-0.5L5.8,19.8L0,13.4L14.7,0l7.7,8.4l845,928.5L867.9,937.4z"/>
		</g>
		<g id="Group_692" transform="translate(1989 3823.284)">
			<path id="Path_304" class="st3" d="M877,1926.8l-18.1,8.2l-3.4-7.6l-13.4-29.5l-42.3-92.9l-27-59.4l-11-24.2h0L628.6,1429
				l-33.8-74.3l-161-353.7l-22.6-49.6L1.7,51.6L0,48V0l1.7,3.6L117,256.9l8.3,18.1l288.4,633.5l8.3,18.2l6.8,14.9l22.5,49.3
				l11.3,24.8l11,24.2l116.1,255l11,24.2l11.9,26.2l33.1,72.8l133.5,293.3l11,24.2l26.8,58.9l36.3,79.8l18.9,41.5L877,1926.8z"/>
		</g>
		<g id="Group_693" transform="translate(2096.72 3587.12)">
			
				<rect id="Rectangle_182" x="-55.5" y="247.9" transform="matrix(0.8902 -0.4557 0.4557 0.8902 -63.5523 251.9881)" class="st3" width="1092.7" height="19.9"/>
		</g>
		<g id="Group_694" transform="translate(2393.042 769.798)">
			<path id="Path_305" class="st3" d="M10.2,3984.8L0,3967.7l667.5-397.3l2.9,0.1l1362,34.8l141.8-33l258.3-2013.2l226.2-346.4
				L3363.2,334L3997.9,0l320.2,395.2l-15.5,12.5L3992.7,25.2l-616.5,324.5l-701.7,875.1l-222.9,341.4l-259.4,2022.4l-157.7,36.7
				l-1361.7-34.8L10.2,3984.8z"/>
		</g>
		<g id="Group_695" transform="translate(4925.424 914.743)">
			<path id="Path_306" class="st3" d="M0,2071.3v-306.2l81.6-314.7l301.5-503.8l1.3-1.6L1155.7,0l43.7,35.6l-770,943.5l-295.2,493.3
				l-77.8,299.9v224.4l259.8-73.8l286.9,2.5l-0.5,56.4l-278.8-2.4L0,2071.3z"/>
		</g>
		<g id="Group_696" transform="translate(1989 2403.255)">
			<path id="Path_307" class="st3" d="M3615.4,243.4l-11.6,23.9l-24-11.7l-236-115L2993,283l-26.3,10.7l-3.2-0.2l-27.1-2.3
				L2811,280.8l-19.8-1.7l-101.5-8.4l-20-1.7l-32.5-2.7l-124.4-10.3l-10-0.8l-20-1.7l-198.3-16.4l-19.9-1.7L2234,233l-92.6-7.7
				l-19.8-1.7l-19.9-1.6l-71.9-6L1781.2,26.5h-504l-39.7,15.3L1149,76l-38.3,14.8l-20.1,7.7l-199.9,77.1L182.6,505.6l-24.1,11.2
				L1.7,590L0,590.7v-29.3l1.7-0.8l146.1-68.1l24.1-11.2l323-150.6l24.1-11.2l361.4-168.5l27.7-10.6l24.7-9.6l158.3-61l20-7.7
				l37.9-14.6l89.1-34.4L1272.3,0h517.9l249.6,190.2l62.7,5.2l19.9,1.7l19.9,1.6l92.4,7.7l30.7,2.6l19.9,1.7l202.7,16.8l19.9,1.7
				l10,0.8l125.3,10.4l32.4,2.7l20,1.7l99,8.2l19.8,1.7l125.2,10.3l23,1.9l38.8-15.8l343.5-139.5l247.1,120.4L3615.4,243.4z"/>
		</g>
		<g id="Group_697" transform="translate(2441.631 4492.081)">
			
				<rect id="Rectangle_183" x="-40.5" y="174.5" transform="matrix(0.8667 -0.4988 0.4988 0.8667 -51.9639 181.1454)" class="st3" width="707" height="26.5"/>
		</g>
		<g id="Group_698" transform="translate(2569.118 4881.831)">
			
				<rect id="Rectangle_184" x="-22.9" y="119.2" transform="matrix(0.8916 -0.4528 0.4528 0.8916 -33.5618 124.6745)" class="st3" width="533" height="26.5"/>
		</g>
		<g id="Group_699" transform="translate(1989 2646.293)">
			<path id="Path_308" class="st3" d="M880,1809l-8.3,3.8l-15.8,7.3l-277.5-600.1l-4.4-9.5l-3.8-8.6L462,957.9h0l-27.3-61.6
				L339.6,682l-10.8-24.3L255.3,492l-10.7-24.2l-86.1-194l-10.8-24.3l-95.3-215L1.7,55.9L0,56.6V27.8l1.7-0.7L54.4,4.9l0.2-0.1
				L66.2,0l0.1,0.3l10.8,24.3l94.8,213.7l10.8,24.3l86.2,194.3l10.8,24.2L353.1,647l10.7,24.2l94.7,213.6l27.4,61.8l107.9,243.3
				l4.3,9.8l3.9,8.4l277.5,600.2L880,1809z"/>
		</g>
		<g id="Group_700" transform="translate(1989 2734.768)">
			<path id="Path_309" class="st3" d="M1102.5,24.2l-15.7,7L279.6,392.7l-24.2,10.8L1.7,517.1L0,517.8v-29l1.7-0.7l242.9-108.8
				l24.2-10.8L1087.3,2v0l4.4-2L1102.5,24.2z"/>
		</g>
		<g id="Group_701" transform="translate(1989 2968.421)">
			<path id="Path_310" class="st3" d="M1099.1,24.3l-15.6,6.9L363.9,349.1l-24.3,10.7L1.7,509.1L0,509.9v-29l1.7-0.7l327.2-144.5
				l24.3-10.7L1083.9,2v0l4.5-2L1099.1,24.3z"/>
		</g>
		<g id="Group_702" transform="translate(2043.447 2236.55)">
			
				<rect id="Rectangle_185" x="-34.3" y="206.1" transform="matrix(0.9315 -0.3638 0.3638 0.9315 -43.0737 210.1331)" class="st3" width="1141.1" height="26.5"/>
		</g>
		<g id="Group_703" transform="translate(1989 1685.481)">
			<path id="Path_311" class="st3" d="M1365.9,24.7l-0.3,0.1v0L1336.9,36l-169.6,65.7l-18.5,7.2L704.8,280.8l-24.8,9.6L284.6,443.5
				l-24.7,9.6L1.7,553.1L0,553.7v-28.5l1.7-0.6L1138.6,84.3l18.5-7.2L1356.4,0l0.1,0.2l9.4,24.3L1365.9,24.7z"/>
		</g>
		<g id="Group_704" transform="translate(2244.05 2116.559)">
			
				<rect id="Rectangle_186" x="121.3" y="-18.4" transform="matrix(0.9302 -0.3671 0.3671 0.9302 -106.0483 71.3313)" class="st3" width="26.5" height="665.7"/>
		</g>
		<g id="Group_705" transform="translate(2664.173 1953.792)">
			
				<rect id="Rectangle_187" x="118" y="-18" transform="matrix(0.928 -0.3725 0.3725 0.928 -102.7572 70.5686)" class="st3" width="26.5" height="638.5"/>
		</g>
		<g id="Group_706" transform="translate(2410.196 1301.727)">
			
				<rect id="Rectangle_188" x="85.3" y="-11.1" transform="matrix(0.9346 -0.3558 0.3558 0.9346 -75.7454 50.1887)" class="st3" width="26.5" height="484.3"/>
		</g>
		<g id="Group_707" transform="translate(2522.365 320.732)">
			<path id="Path_312" class="st3" d="M699.5,1625l-18.4,7.6l-1.8-4.4l-63.9-154.6l-10.1-24.5l-59.1-142.7l-17.2-41.6L346.7,824.2
				l-3.7-9l-3.9-9.4L20.8,49.3L0,0h21.6L31,22.3l326.6,776.4l3.7,8.9l3.9,9.5l182.3,440.7l17.3,41.8l58.9,142.4l10.1,24.5
				l57.6,139.3v0L699.5,1625z"/>
		</g>
		<g id="Group_708" transform="translate(3410.355 320.732)">
			<path id="Path_313" class="st3" d="M1779.5,0l-0.9,1.7l-13.8,24.5l-42.2,74.8l-489.9,868.9l-9.6,17l-0.2,0.3l-386.9,699.8
				l-5.1,9.3l-16.2-8.4l-242-124.9l-17.7-9.1l-8.3-4.3l-108.2-55.9l-23.6-12.2l-17.7-9.2l-218.3-112.6l-17.7-9.1l-20.7-10.7
				l-98.1-50.6l-33.8-17.4l-8.6-4.4l9.2-17.7l8.5,4.3v0l32.8,16.9l80.7,41.7l39.3,20.3l17.7,9.1l218,112.5l17.7,9.1l23.9,12.3
				l108.4,56l8.6,4.4l17.7,9.1L823,1669.7l382.8-692.5l0.2-0.3l9.8-17.3l487.2-864.2l42.4-75.3l10.4-18.4l0.9-1.7L1779.5,0z"/>
		</g>
		<g id="Group_709" transform="translate(3700.085 320.732)">
			<path id="Path_314" class="st3" d="M3671.5,5240.1l-12.9,4.8l-589.1,220.4l-25,9.4l-377.9,141.4l19.9,309.3l-134.5,34.3l-2.2-0.4
				l-753.5-146.7l-55.3-10.8l-607.9-118.4l-13.4-2.6l-2-1.8l-8.4-7.4l-987.7-874.8l-0.8-1.4l-12.8-21.6l-44.1-74.8l-9-15.2
				l-13.5-22.8L0,4590.5l7.4-534.6l0.3-19.9L15,3511l0.4-26.5l10.4-743.9l0.3-19.9l8.5-611.7l0.4-26.5l1.6-117.1l1.2-2.2
				l182.4-328.4l34.8-62.7l10.3-18.5l9.6-17.4l393.8-708.8l9.7-17.4L1121.8,12l6.7-12h22.7l-9.8,17.6l-446,802.8l-9.7,17.4
				l-393.1,707.6l-9.7,17.4l-10.4,18.7l-35.2,63.4l-181,325.8l-1.6,111.8l-0.4,26.5l-8.5,612.3l-0.3,19.9l-10.3,743.9l-0.4,26.5
				l-7.3,524.9l-0.3,19.9L20,4585.2l38.8,65.7l13.5,22.9l8.1,13.7l44.5,75.3l12.4,21l981.7,869.5l10,8.9l13.9,2.7l602.1,117.2
				l55.3,10.8l751.3,146.3l114.2-29l-18.9-292.3l-1-15.2l6.9-2.6l2.5-1l383.9-143.6l25-9.3l588.4-220.1l12-4.5L3671.5,5240.1z"/>
		</g>
		<g id="Group_710" transform="translate(4978.462 5684.698)">
			
				<rect id="Rectangle_189" x="679.8" y="-570.6" transform="matrix(0.1686 -0.9857 0.9857 0.1686 447.7619 785.9152)" class="st3" width="19.9" height="1396.2"/>
		</g>
		<g id="Group_711" transform="translate(7873.222 5444.667)">
			<path id="Path_315" class="st3" d="M1943.9,1166.3L1873,986.7l-24.5-62.2l0.5-3.2l1.5-10.6l4.2-29.1l40.9-282l4.2-29.3l2.5-17.3
				l2-14.1l-22.5-86.6l-59.2-228l-2.8-10.7l-17.3-8.4L1383.4,0L698.9,248.3l-53,19.2L25,492.8l-25,9.1l4.4,12.4l87.8,248.9l8.8,25
				l71.5,202.7l671.7-223.8l53.6-17.8l951.5-317.1l7.4,28.7l20.7,79.6l-3.1,21.5l-2.6,17.6l-4.2,29.3l-40.8,281.8l-4.2,29.2l-1.2,8
				l1,2.7l25.7,65.1l67.4,170.9l0.2,0.5h28.5L1943.9,1166.3z M887.9,724.5l-53.6,17.8L188.8,957.5L126.2,780l-8.8-25L33.8,517.8
				l621.9-225.6l53-19.2l673.2-244.2l391.4,191.5l24,11.8l2,7.7l43.3,166.7L887.9,724.5z"/>
		</g>
		<g id="Group_712" transform="translate(7822.906 4216.253)">
			<path id="Path_316" class="st3" d="M8.2,1571.4L0,1546.2l1236.7-403.9L1799.8,55.9L1900.6,0l12.9,23.2l-93.8,52l-564.4,1089
				l-5.2,1.7L8.2,1571.4z"/>
		</g>
		<g id="Group_713" transform="translate(7323.202 4196.952)">
			
				<rect id="Rectangle_190" x="302.6" y="-164.2" transform="matrix(0.512 -0.859 0.859 0.512 -13.884 366.8034)" class="st3" width="26.5" height="719.7"/>
		</g>
		<g id="Group_714" transform="translate(7618.106 2861.119)">
			<path id="Path_317" class="st3" d="M24,1531.9l-24-11.3l212.3-450L978.9,551l273.7-201.1L1539.2,0l20.5,16.8L1271,369.3l-1.3,1
				L994,572.8l-760.8,515.6L24,1531.9z"/>
		</g>
		<g id="Group_715" transform="translate(7654.03 4026.833)">
			<path id="Path_318" class="st3" d="M7.8,1280.1L0,1254.7l781.9-239l227.5-175.8L1748.8,0l19.9,17.5l-741,841.8l-1,0.8
				l-232.4,179.6L7.8,1280.1z"/>
		</g>
		<g id="Group_716" transform="translate(7562.225 3910.71)">
			<path id="Path_319" class="st3" d="M315.4,2048.2L48.8,1290.3L0,1232.6L1718.7,0l15.5,21.6L38.8,1237.4l33.4,39.5l0.8,2.3
				l267.4,760.2L315.4,2048.2z"/>
		</g>
		<g id="Group_717" transform="translate(9224.874 5175.531)">
			<path id="Path_320" class="st3" d="M1467.3,735.1v29.7l-1.1-0.6L564.6,308.8l-23.7-12L0,23.7L12,0l540.9,273.2l23.7,11.9
				l889.6,449.4L1467.3,735.1z"/>
		</g>
		<g id="Group_718" transform="translate(9895.79 3415.368)">
			<path id="Path_321" class="st3" d="M796.4,703.6v30l-1.1-0.6L0,309.3L46.3,263L285.6,23.8L309.5,0l18.8,18.8l-17.6,17.6
				L44.1,302.8L795.2,703L796.4,703.6z"/>
		</g>
		<g id="Group_719" transform="translate(8837.597 1986.475)">
			<path id="Path_322" class="st3" d="M1097.2,1720.1l-145.7-116.2l236.9-263.1l40.5-70.4l-163.9-136.5L1177,746.2l60.6-435.6
				l-36.1-284.1h-71.4L1103.4,93l-9.9,237L983.1,742.2l-1.2,1.8l-171.8,261.2L536.6,894.9l-183.3-90.7l-133,48.7L18.3,1044.9
				L0,1025.6L205.9,830l148.9-54.5l193.1,95.5l252,101.5l158.7-241.3l108.5-405.3l10-238.6L1112.1,0h112.7l39.5,310.7l-0.2,1.8
				L1203,751.8l-0.3,0.9l-107.4,372l167.7,139.7l-53.1,92.1l-219.9,244.3l123.7,98.6L1097.2,1720.1z"/>
		</g>
		<g id="Group_720" transform="translate(3070.645 3582.803)">
			<path id="Path_323" class="st3" d="M1431.6,275.5l-2.6-0.1L0,227.2l0.9-26.5l1426.5,48.1l608.6-222.7l1.8-0.1L2353,0l2.2,26.4
				l-313.4,25.8L1431.6,275.5z"/>
		</g>
		<g id="Group_721" transform="translate(3081.729 3021.912)">
			<path id="Path_324" class="st3" d="M2343.7,1964.5l-3-0.7L1787,1832.6l-428.1-471.7l0.4-4.4L1485.1,65L0,19.9L0.6,0l1506.3,45.7
				l-127.4,1308.4l418,460.6l544.7,129l210.6-81.3l7.2,18.6L2343.7,1964.5z"/>
		</g>
		<g id="Group_722" transform="translate(4029.68 2000.364)">
			<path id="Path_325" class="st3" d="M14.6,2820.6L0,2746.6l0-1.1L68.4,369.6l0.5-1.5L198.3,0L217,6.6L88.2,373.2L20,2744.9
				l14.2,71.9L14.6,2820.6z"/>
		</g>
		<g id="Group_723" transform="translate(3191.027 320.732)">
			<path id="Path_326" class="st3" d="M1111.4,0l-0.9,1.7L806.8,580.6l-9.3,17.7L407.5,1342l-9.3,17.6l-0.6,1.1l-44.1,84.1
				l-235.8,449.6l-6.2,188.1l-0.9,26.5l-19.8,598.2l-0.7,19.9L65.5,3469l-0.9,26.5l-17.5,528.6l-0.7,19.9l-26.4,795l48.7,95.7
				l6.2,12.2l-17.7,9l-5.8-11.4L0,4843.4l0.1-2.6l26.4-797.4l0.7-19.9l17.5-528.7l0.9-26.5l24.6-741.8l0.6-19.9L90.7,2109l0.9-26.5
				l6.4-193.3l1.1-2L335.7,1436l44.5-84.9l0.3-0.6l9.3-17.6l390.7-744.9l9.3-17.7L1088,1.7l0.9-1.7H1111.4z"/>
		</g>
		<g id="Group_724" transform="translate(3497.768 320.732)">
			<path id="Path_327" class="st3" d="M1073.1,0l-0.8,1.7L715.5,710.5l-9,17.8l-370.1,735.3l-9,17.8l-4,8l-37.2,73.9l-200,397.4
				l-3,121.9l-0.7,26.5l-15,606.8l-0.5,19.9l-18.4,743l-0.7,26.5l-13,526.3l-0.5,19.9l-14.5,584L77.9,4755l11.6,23.9l20.5,42.4
				l17.4,36l18.2,37.7l0.9,1.9l-17.9,8.7l-3.8-7.8l-13.9-28.7l-18.5-38.3l-20.3-42l-11.6-23.9L0,4639.8l0.1-2.4L14.6,4051l0.5-19.9
				l13-526.5l0.6-26.5l18.4-742.9l0.5-19.9l15-606.2l0.6-26.5l3.1-126.8l1-2l201-399.2l37.6-74.7l3.7-7.5l9-17.8L689.4,718l9-17.8
				L1050,1.7l0.8-1.7H1073.1z"/>
		</g>
		<g id="Group_725" transform="translate(4857.742 320.732)">
			<path id="Path_328" class="st3" d="M923.8,0l-1.2,1.7l-121,175.1l-34.4,49.8L334.9,852.5l-11.5,16.7l-138.8,200.9L0,939.8
				l443.6-818.2l26.1-48.1l39-71.9l0.9-1.7h22.6l-0.9,1.7l-42.2,77.9l-26.2,48.3L25.9,933.8l153.7,108.5l567.9-822.1l34.3-49.6
				L898.4,1.7l1.2-1.7H923.8z"/>
		</g>
		<g id="Group_726" transform="translate(5173.569 1168.438)">
			<path id="Path_329" class="st3" d="M576.6,204.6l-173.1-23.2L180.9,97.1L0,18.2L8,0l180.7,78.8L408.4,162l170.9,22.9L576.6,204.6
				z"/>
		</g>
		<g id="Group_727" transform="translate(5992.519 320.732)">
			<path id="Path_330" class="st3" d="M403.5,455.3L388.2,468l-7.8-9.5L46.7,56.2L1.4,1.7L0,0h25.9l1.4,1.7l135.3,163.1l235.8,284.3
				L403.5,455.3z"/>
		</g>
		<g id="Group_728" transform="translate(4568.045 320.732)">
			<path id="Path_331" class="st3" d="M1382.3,0h23.7l-1.1,1.7l-314.6,486.2L811.8,933.2L801,950.4l-201.1,321.4l-10.7,17.1
				l-373.4,596.8l-99.3,441.3h0l-5.9,26.2l-91.1,404.9l-0.1,0.6L0,2754.3l1.8-8l88.8-394.8l5.9-26.2l100.7-447.4l0.9-1.4
				l373.1-596.4l10.5-16.9L782.2,943l10.6-17l280.7-448.7L1381.2,1.7L1382.3,0z"/>
		</g>
		<g id="Group_729" transform="translate(5979.121 320.732)">
			<path id="Path_332" class="st3" d="M835.9,705.7l-38.5,41.1L779,729.6L175.9,164.8L60.1,56.2L1.7,1.7L0,0h82.4l1.8,1.7L458.3,352
				l22,20.6L812.8,684v0L835.9,705.7z"/>
		</g>
		<g id="Group_730" transform="translate(6429.666 447.828)">
			<path id="Path_333" class="st3" d="M2939.7,1329.4l-237-60.6L2456.6,1132l-554-169.2l-293-177.2V683.2l-193.9-107.3h-265.2
				l-1.4-0.3c-3.1-0.7-308.6-69.5-408.6-77.6c-65-5.3-128.8-39.1-162.6-86.2c-19.2-26.7-26.3-55.3-20.1-80.4
				c12.9-51.7-63.7-174-274.1-284.2c-45.1-23.6-86.5-26.9-122.9-9.5C63.2,83.9,26.4,259.3,26,261.1l-26-5.3
				C1.6,248,40,65.6,149.3,13.6c44.4-21.1,93.7-17.7,146.6,10C418.8,88,488,151.8,524.4,194c46.8,54.2,68.3,106.6,59.1,143.8
				c-4.3,17.4,1.3,38.2,15.9,58.5c29.5,41,85.7,70.5,143.2,75.2c99.3,8.1,385.1,72.1,410.9,77.9h269.1l213.5,118.2v103.1
				l277.4,167.7l553.6,169l1.2,0.7l244.3,135.7l225,57.6l62-26.3l105.6-192V951.4l-92.4-236l-58.4-353.5L2237,240.7l-0.5-0.1
				c-0.2-0.1-29.8-6.9-51.3,10c-16.5,13-24.9,37.1-25,71.7l-26.5,0c0-43.3,11.9-74.5,35.3-92.7c30.1-23.5,67.9-16.1,73.3-14.9
				l735.2,124.2l61,369.4l93.3,238.1V1090l-113.3,206L2939.7,1329.4z"/>
		</g>
		<g id="Group_731" transform="translate(8041.76 718.595)">
			<path id="Path_334" class="st3" d="M21.5,412.4L0,396.9L230.2,77.2V0h26.5v85.8L21.5,412.4z"/>
		</g>
		<g id="Group_732" transform="translate(9359.16 1753.658)">
			<path id="Path_335" class="st3" d="M565.5,335.8l-315.6-77.7L0,19.2L18.3,0L263,234l308.8,76L565.5,335.8z"/>
		</g>
		<g id="Group_733" transform="translate(7950.505 1391.92)">
			<path id="Path_336" class="st3" d="M673.2,1494.8L98.5,992.2L0,758.2l73.8-226.8L375.7,0l23.1,13.1L98.2,542.2L28.3,757.1
				l92.3,219.2l553.5,484.1l234.5-184.1l16.4,20.9L673.2,1494.8z"/>
		</g>
		<g id="Group_734" transform="translate(7718.623 1526.856)">
			<path id="Path_337" class="st3" d="M140.5,972.6L0,674.1l0.9-4.4L142,0l26,5.5L27.8,670.8L152.6,936l180.3-97.2l202.2-240.2
				l20.3,17.1L350,859.8L140.5,972.6z"/>
		</g>
		<g id="Group_735" transform="translate(7514.5 1426.493)">
			<path id="Path_338" class="st3" d="M913.6,1619.6l-570.7-553.9L0,895.9L250.6,0l25.6,7.1L31.5,881.9l326.9,161.9l1.5,1.4
				l555.3,538.9l186.1-151.4l16.7,20.6L913.6,1619.6z"/>
		</g>
		<g id="Group_736" transform="translate(5462.02 2461.019)">
			<path id="Path_339" class="st3" d="M363.2,2316.2L52.5,1848.8l-0.4-3L0,1451.1L80.5,836L30,478.2l26.3-3.7l51,361.4l-0.2,1.8
				l-80.3,613.4L78,1839.3l291.9,439.1l409.8-299.8L1733,239.5L1712.2,0l664.6,499.4l-114.5,444.1l-213.7,148.9l51.2,107.9
				l859.2-643.6l15.9,21.2l-885.1,663l-74.8-157.4l224-156.2l107.6-417.4l-602.9-453l16.4,188.3l-1.9,3.5L800.1,1996.5L363.2,2316.2
				z"/>
		</g>
		<g id="Group_737" transform="translate(7316.226 2661.522)">
			<path id="Path_340" class="st3" d="M574.7,773.6L0,291.6L95.6,0l25.2,8.3l-90,274.6l560.9,470.4L574.7,773.6z"/>
		</g>
		<g id="Group_738" transform="translate(6767.813 2897.019)">
			<path id="Path_341" class="st3" d="M529.4,1174.4l-141-105.7L0,965.6l426.6-796.3l209.1-66.5l8,25.3l-198.8,63.2L39.2,948.5
				l361,95.8l124.3,93.2l179.6-229.1L584.2,610l236.2-184.7L942.4,0l25.5,7.3L843.6,440.9L616.3,618.6l118.2,294.2L529.4,1174.4z"/>
		</g>
		<g id="Group_739" transform="translate(5582.978 1256.209)">
			<path id="Path_342" class="st3" d="M1459.7,220.6l51.2-29.2l17-9.7l0.4-11.8v0l0.6-18.3l0.9-28.8l3.1-95l0.9-27L1507.2,0l-1,29.7
				l-3.4,103.3l-1.1,33l-57.6,32.9l-20.1-28.2l23.3-136.7l4.3-25.4l-13.1-2.2L1425.5,4l-3.6,21.5v0l-0.6,3.2l-25.2,148.3l24.9,35
				l-89.3,51l-279.9,333.2L166.9,1635.9l-2.6,3l-17.8,147.7l-86.4,333l32.7,207.2L4,2866.9l-4,24.4h205.5l0.5-2.6l5.4-28.8
				l100.5-533.3L430,2062.3l921.3-1294l15.6-21.9l193.3-271.5l2.5-3.4V365.2L1459.7,220.6z M1536.1,463L1343,734.2l-15.6,21.9
				L407.6,2048l-0.8,1.1L287,2317.2l-0.6,1.4l-102.9,546.2H31.2l88.1-535.8l0.4-2.1L87.2,2121l85.5-329.4l17.1-141.5l875.4-1028.6
				l6.9-8.1l10.7-12.7L1349,283.7l87.5-49.9l99.5,139.9L1536.1,463z"/>
		</g>
		<g id="Group_740" transform="translate(7084.386 1244.241)">
			<path id="Path_343" class="st3" d="M118.8,1245.8l-26.5-1.2l8.7-196l167.9-474.6L0,189.8L1.4,145L384.1,0l9.4,24.8L27.4,163.5
				l-0.6,18.3L298.5,570l-2.3,6.4l-168.8,477.3L118.8,1245.8z"/>
		</g>
		<g id="Group_741" transform="translate(6638.776 1849.267)">
			
				<rect id="Rectangle_191" x="435.5" y="-258.6" transform="matrix(0.4565 -0.8897 0.8897 0.4565 31.2847 529.1324)" class="st3" width="26.5" height="995.2"/>
		</g>
		<g id="Group_742" transform="translate(5773.899 2139.803)">
			<path id="Path_344" class="st3" d="M7.1,2007.2L0,1981.7c8.8-2.5,210.5-57.9,307.1-40.4L1415.5,0l23,13.2L320.3,1971.7l-9.8-2.5
				C225.4,1947.1,9.3,2006.6,7.1,2007.2z"/>
		</g>
		<g id="Group_743" transform="translate(5921.52 4089.56)">
			<path id="Path_345" class="st3" d="M63,553.3l-52.5-85.2L0,116h88.5L154.7,0l23,13.1l-73.8,129.4H27.3l9.4,317.7l48.8,79.1
				L63,553.3z"/>
		</g>
		<g id="Group_744" transform="translate(5300.297 4121.274)">
			<path id="Path_346" class="st3" d="M2.6,71.5L0,45.1l142.1-13.7L295.6,0l5.3,26L146.1,57.6l-0.7,0.1L2.6,71.5z"/>
		</g>
	</g>
	<g class="st4">
		<path class="st5" d="M13099.4-3133.6v55.6h-9.1v-24.3h-26.2v24.3h-9.1v-55.6h9.1v23.8h26.2v-23.8H13099.4z"/>
		<path class="st5" d="M13151.5-3096.6h-33.7c0.3,3.5,1.6,6.3,3.9,8.5c2.3,2.1,5.2,3.2,8.6,3.2c4.9,0,8.4-2.1,10.4-6.2h9.8
			c-1.3,4.1-3.7,7.4-7.2,10c-3.5,2.6-7.8,3.9-13,3.9c-4.2,0-8-0.9-11.3-2.8c-3.3-1.9-5.9-4.6-7.8-8c-1.9-3.4-2.8-7.4-2.8-12
			c0-4.5,0.9-8.5,2.8-12s4.4-6.1,7.8-8c3.3-1.9,7.2-2.8,11.5-2.8c4.2,0,7.9,0.9,11.1,2.7c3.3,1.8,5.8,4.4,7.6,7.6
			c1.8,3.3,2.7,7.1,2.7,11.3C13151.8-3099.5,13151.7-3098,13151.5-3096.6z M13142.3-3104c-0.1-3.4-1.3-6.1-3.6-8.1
			c-2.3-2-5.3-3-8.7-3c-3.1,0-5.8,1-8.1,3s-3.6,4.7-4,8.1H13142.3z"/>
		<path class="st5" d="M13171.4-3114.6v24.4c0,1.7,0.4,2.8,1.2,3.6c0.8,0.7,2.1,1.1,4,1.1h5.6v7.6h-7.2c-4.1,0-7.3-1-9.4-2.9
			c-2.2-1.9-3.3-5-3.3-9.4v-24.4h-5.2v-7.4h5.2v-11h9.2v11h10.7v7.4H13171.4z"/>
		<path class="st5" d="M13220.4-3133.6v55.6h-9.1v-55.6H13220.4z"/>
		<path class="st5" d="M13262.8-3133.6v40.1c0,5-1.5,8.9-4.5,11.8c-3,2.9-7,4.3-11.9,4.3c-4.9,0-8.9-1.4-11.9-4.3
			c-3-2.9-4.5-6.8-4.5-11.8h9.2c0.1,2.5,0.7,4.4,1.9,5.8c1.2,1.4,3,2.2,5.3,2.2c2.3,0,4.1-0.7,5.4-2.2c1.2-1.5,1.8-3.4,1.8-5.8
			v-40.1H13262.8z"/>
	</g>
	<path id="Path_347" class="st6" d="M13479-2792.3c638.6,170.6-585.1,795.4,111.7,1035.7s-925.7,927.8-1225,661.1
		s-518.6-470.2-263.8-889.9S12840.5-2962.9,13479-2792.3z"/>
	<path id="Path_348" class="st6" d="M15842.2-632.7c-103,177.6-205.5-22.9-492.4,235.3s-189.9-659.4,8.2-728.8
		c198.1-69.4,347-118.2,474.5,105.1S15945.2-810.3,15842.2-632.7z"/>
	<path id="Path_349" class="st6" d="M12482.6,1280.9c-296.3-205.6-709.3-653.9-435.8-750.4s1030.7-5.5,1165.7,286.8
		c134.9,292.3,231,510.8-110.2,597.6C12761,1501.7,12778.9,1486.5,12482.6,1280.9z"/>
	<g class="st4">
		<path class="st5" d="M12931.8-2549.6c2.5-4.3,6-7.7,10.3-10.1c4.3-2.4,9.1-3.6,14.3-3.6c5.9,0,11.2,1.5,15.8,4.4
			c4.6,2.9,8,7,10,12.4h-11c-1.4-2.9-3.4-5.1-6-6.6c-2.6-1.4-5.5-2.2-8.9-2.2c-3.7,0-7,0.8-9.8,2.5c-2.9,1.7-5.1,4-6.8,7.1
			c-1.6,3.1-2.4,6.7-2.4,10.8c0,4.1,0.8,7.7,2.4,10.8c1.6,3.1,3.9,5.5,6.8,7.2c2.9,1.7,6.2,2.5,9.8,2.5c3.4,0,6.3-0.7,8.9-2.2
			c2.6-1.4,4.6-3.6,6-6.6h11c-2.1,5.3-5.4,9.4-10,12.3c-4.6,2.9-9.9,4.3-15.8,4.3c-5.2,0-10-1.2-14.3-3.6
			c-4.3-2.4-7.7-5.8-10.3-10.1c-2.5-4.3-3.8-9.2-3.8-14.6C12928-2540.4,12929.2-2545.2,12931.8-2549.6z"/>
		<path class="st5" d="M13032.9-2525.6h-33.7c0.3,3.5,1.6,6.3,3.9,8.5c2.3,2.1,5.2,3.2,8.6,3.2c4.9,0,8.4-2.1,10.4-6.2h9.8
			c-1.3,4.1-3.7,7.4-7.2,10c-3.5,2.6-7.8,3.9-13,3.9c-4.2,0-8-0.9-11.3-2.8c-3.3-1.9-5.9-4.6-7.8-8c-1.9-3.4-2.8-7.4-2.8-12
			c0-4.5,0.9-8.5,2.8-12c1.8-3.4,4.4-6.1,7.8-8c3.3-1.9,7.2-2.8,11.5-2.8c4.2,0,7.9,0.9,11.1,2.7c3.3,1.8,5.8,4.4,7.6,7.6
			c1.8,3.3,2.7,7.1,2.7,11.3C13033.2-2528.5,13033.1-2527,13032.9-2525.6z M13023.7-2533c-0.1-3.4-1.3-6.1-3.6-8.1
			c-2.3-2-5.3-3-8.7-3c-3.1,0-5.8,1-8.1,3s-3.6,4.7-4,8.1H13023.7z"/>
		<path class="st5" d="M13073.8-2549.6c2.7,1.4,4.9,3.6,6.4,6.4c1.5,2.8,2.3,6.2,2.3,10.2v26h-9v-24.6c0-3.9-1-7-3-9.1
			c-2-2.1-4.7-3.2-8.1-3.2c-3.4,0-6.1,1.1-8.1,3.2c-2,2.1-3,5.1-3,9.1v24.6h-9.1v-44.1h9.1v5c1.5-1.8,3.4-3.2,5.7-4.2
			c2.3-1,4.8-1.5,7.4-1.5C13067.9-2551.8,13071-2551.1,13073.8-2549.6z"/>
		<path class="st5" d="M13104.8-2543.6v24.4c0,1.7,0.4,2.8,1.2,3.6c0.8,0.7,2.1,1.1,4,1.1h5.6v7.6h-7.2c-4.1,0-7.3-1-9.4-2.9
			c-2.2-1.9-3.3-5-3.3-9.4v-24.4h-5.2v-7.4h5.2v-11h9.2v11h10.7v7.4H13104.8z"/>
		<path class="st5" d="M13123.6-2541c1.8-3.4,4.3-6.1,7.5-8c3.2-1.9,6.7-2.8,10.5-2.8c3.5,0,6.5,0.7,9.1,2c2.6,1.4,4.7,3.1,6.2,5.1
			v-6.4h9.2v44.1h-9.2v-6.6c-1.5,2.1-3.7,3.8-6.3,5.2c-2.7,1.4-5.7,2.1-9.1,2.1c-3.8,0-7.3-1-10.4-2.9c-3.1-1.9-5.6-4.7-7.5-8.2
			c-1.8-3.5-2.8-7.5-2.8-11.9C13120.8-2533.7,13121.8-2537.6,13123.6-2541z M13155-2537c-1.3-2.2-2.9-3.9-4.9-5.1
			c-2-1.2-4.2-1.8-6.6-1.8c-2.3,0-4.5,0.6-6.6,1.7c-2,1.1-3.7,2.8-4.9,5c-1.3,2.2-1.9,4.8-1.9,7.9s0.6,5.7,1.9,8
			c1.3,2.3,2.9,4,5,5.2c2.1,1.2,4.2,1.8,6.5,1.8c2.3,0,4.5-0.6,6.6-1.8c2-1.2,3.7-2.9,4.9-5.2c1.3-2.3,1.9-4.9,1.9-8
			S13156.3-2534.8,13155-2537z"/>
		<path class="st5" d="M13187.2-2566.2v59.2h-9.1v-59.2H13187.2z"/>
		<path class="st5" d="M13226.7-2508.2c-2.7-1.3-4.9-3-6.5-5.1s-2.5-4.6-2.6-7.2h9.4c0.2,1.9,1.1,3.4,2.7,4.7
			c1.6,1.3,3.7,1.9,6.1,1.9c2.6,0,4.5-0.5,6-1.5c1.4-1,2.1-2.3,2.1-3.8c0-1.7-0.8-2.9-2.4-3.7c-1.6-0.8-4.1-1.7-7.5-2.6
			c-3.3-0.9-6-1.8-8.1-2.6c-2.1-0.9-3.9-2.2-5.4-3.9s-2.3-4.1-2.3-7c0-2.3,0.7-4.5,2.1-6.4c1.4-1.9,3.4-3.5,6-4.6s5.6-1.7,8.9-1.7
			c5,0,9.1,1.3,12.1,3.8c3.1,2.5,4.7,6,4.9,10.4h-9.1c-0.2-2-1-3.5-2.4-4.7c-1.4-1.2-3.4-1.8-5.8-1.8c-2.4,0-4.2,0.5-5.5,1.4
			c-1.3,0.9-1.9,2.1-1.9,3.6c0,1.2,0.4,2.2,1.3,3c0.9,0.8,1.9,1.4,3.1,1.9c1.2,0.5,3,1,5.4,1.7c3.2,0.9,5.8,1.7,7.9,2.6
			c2.1,0.9,3.8,2.2,5.3,3.9c1.5,1.7,2.3,4,2.3,6.8c0,2.5-0.7,4.7-2.1,6.7c-1.4,2-3.3,3.5-5.9,4.6s-5.5,1.7-8.9,1.7
			C13232.6-2506.3,13229.5-2506.9,13226.7-2508.2z"/>
		<path class="st5" d="M13273.4-2543.6v24.4c0,1.7,0.4,2.8,1.2,3.6c0.8,0.7,2.1,1.1,4,1.1h5.6v7.6h-7.2c-4.1,0-7.3-1-9.4-2.9
			c-2.2-1.9-3.3-5-3.3-9.4v-24.4h-5.2v-7.4h5.2v-11h9.2v11h10.7v7.4H13273.4z"/>
		<path class="st5" d="M13292.2-2541c1.8-3.4,4.3-6.1,7.5-8c3.2-1.9,6.7-2.8,10.5-2.8c3.5,0,6.5,0.7,9.1,2c2.6,1.4,4.7,3.1,6.2,5.1
			v-6.4h9.2v44.1h-9.2v-6.6c-1.5,2.1-3.7,3.8-6.3,5.2c-2.7,1.4-5.7,2.1-9.1,2.1c-3.8,0-7.3-1-10.4-2.9c-3.1-1.9-5.6-4.7-7.5-8.2
			c-1.8-3.5-2.8-7.5-2.8-11.9C13289.5-2533.7,13290.4-2537.6,13292.2-2541z M13323.7-2537c-1.3-2.2-2.9-3.9-4.9-5.1
			c-2-1.2-4.2-1.8-6.6-1.8c-2.3,0-4.5,0.6-6.6,1.7c-2,1.1-3.7,2.8-4.9,5c-1.3,2.2-1.9,4.8-1.9,7.9s0.6,5.7,1.9,8
			c1.3,2.3,2.9,4,5,5.2c2.1,1.2,4.2,1.8,6.5,1.8c2.3,0,4.5-0.6,6.6-1.8c2-1.2,3.7-2.9,4.9-5.2c1.3-2.3,1.9-4.9,1.9-8
			S13324.9-2534.8,13323.7-2537z"/>
		<path class="st5" d="M13357.4-2543.6v24.4c0,1.7,0.4,2.8,1.2,3.6c0.8,0.7,2.1,1.1,4,1.1h5.6v7.6h-7.2c-4.1,0-7.3-1-9.4-2.9
			c-2.2-1.9-3.3-5-3.3-9.4v-24.4h-5.2v-7.4h5.2v-11h9.2v11h10.7v7.4H13357.4z"/>
		<path class="st5" d="M13377-2558.6c-1.1-1.1-1.7-2.5-1.7-4.2c0-1.7,0.6-3,1.7-4.2c1.1-1.1,2.5-1.7,4.2-1.7c1.6,0,3,0.6,4.1,1.7
			c1.1,1.1,1.7,2.5,1.7,4.2c0,1.7-0.6,3-1.7,4.2c-1.1,1.1-2.5,1.7-4.1,1.7C13379.5-2556.9,13378.1-2557.5,13377-2558.6z
			 M13385.6-2551.1v44.1h-9.1v-44.1H13385.6z"/>
		<path class="st5" d="M13405.5-2509.1c-3.4-1.9-6-4.6-7.9-8c-1.9-3.4-2.9-7.4-2.9-12c0-4.5,1-8.5,3-11.9c2-3.5,4.7-6.1,8.1-8
			c3.4-1.9,7.2-2.8,11.4-2.8c4.2,0,8,0.9,11.4,2.8c3.4,1.9,6.1,4.5,8.1,8c2,3.5,3,7.4,3,11.9c0,4.5-1,8.5-3,11.9
			c-2,3.5-4.8,6.1-8.3,8c-3.5,1.9-7.3,2.8-11.6,2.8C13412.6-2506.3,13408.8-2507.2,13405.5-2509.1z M13423.4-2515.9
			c2.1-1.1,3.7-2.8,5-5c1.3-2.2,1.9-5,1.9-8.2s-0.6-5.9-1.8-8.1c-1.2-2.2-2.9-3.9-4.9-5s-4.2-1.7-6.6-1.7s-4.5,0.6-6.5,1.7
			s-3.6,2.8-4.8,5c-1.2,2.2-1.8,4.9-1.8,8.1c0,4.7,1.2,8.4,3.6,11c2.4,2.6,5.5,3.9,9.2,3.9
			C13419.1-2514.2,13421.3-2514.8,13423.4-2515.9z"/>
		<path class="st5" d="M13480.2-2549.6c2.7,1.4,4.9,3.6,6.4,6.4c1.5,2.8,2.3,6.2,2.3,10.2v26h-9v-24.6c0-3.9-1-7-3-9.1
			c-2-2.1-4.7-3.2-8.1-3.2c-3.4,0-6.1,1.1-8.1,3.2c-2,2.1-3,5.1-3,9.1v24.6h-9.1v-44.1h9.1v5c1.5-1.8,3.4-3.2,5.7-4.2
			c2.3-1,4.8-1.5,7.4-1.5C13474.4-2551.8,13477.5-2551.1,13480.2-2549.6z"/>
	</g>
	<g class="st4">
		<path class="st5" d="M12562.7-1706.2c4.5,2.3,7.9,5.5,10.3,9.8c2.4,4.2,3.6,9.2,3.6,14.8s-1.2,10.6-3.6,14.7
			c-2.4,4.2-5.9,7.3-10.3,9.6c-4.5,2.2-9.6,3.3-15.6,3.3h-18.2v-55.6h18.2C12553.1-1709.6,12558.3-1708.5,12562.7-1706.2z
			 M12562.1-1666.7c3.5-3.5,5.2-8.5,5.2-14.9c0-6.5-1.7-11.5-5.2-15.1c-3.5-3.6-8.5-5.4-15-5.4h-9v40.7h9
			C12553.7-1661.4,12558.7-1663.2,12562.1-1666.7z"/>
		<path class="st5" d="M12585.4-1688c1.8-3.4,4.3-6.1,7.5-8c3.2-1.9,6.7-2.8,10.5-2.8c3.5,0,6.5,0.7,9.1,2c2.6,1.4,4.7,3.1,6.2,5.1
			v-6.4h9.2v44.1h-9.2v-6.6c-1.5,2.1-3.7,3.8-6.3,5.2c-2.7,1.4-5.7,2.1-9.1,2.1c-3.8,0-7.3-1-10.4-2.9c-3.1-1.9-5.6-4.7-7.5-8.2
			c-1.8-3.5-2.8-7.5-2.8-11.9C12582.7-1680.7,12583.6-1684.6,12585.4-1688z M12616.9-1684c-1.3-2.2-2.9-3.9-4.9-5.1
			c-2-1.2-4.2-1.8-6.6-1.8c-2.3,0-4.5,0.6-6.6,1.7c-2,1.1-3.7,2.8-4.9,5c-1.3,2.2-1.9,4.8-1.9,7.9s0.6,5.7,1.9,8
			c1.3,2.3,2.9,4,5,5.2c2.1,1.2,4.2,1.8,6.5,1.8c2.3,0,4.5-0.6,6.6-1.8c2-1.2,3.7-2.9,4.9-5.2c1.3-2.3,1.9-4.9,1.9-8
			S12618.1-1681.8,12616.9-1684z"/>
		<path class="st5" d="M12702.6-1696.6c2.7,1.4,4.9,3.6,6.5,6.4c1.6,2.8,2.4,6.2,2.4,10.2v26h-9v-24.6c0-3.9-1-7-3-9.1
			c-2-2.1-4.7-3.2-8.1-3.2s-6.1,1.1-8.1,3.2c-2,2.1-3,5.1-3,9.1v24.6h-9v-24.6c0-3.9-1-7-3-9.1c-2-2.1-4.7-3.2-8.1-3.2
			c-3.4,0-6.1,1.1-8.1,3.2c-2,2.1-3,5.1-3,9.1v24.6h-9.1v-44.1h9.1v5c1.5-1.8,3.4-3.2,5.7-4.2c2.3-1,4.7-1.5,7.4-1.5
			c3.5,0,6.7,0.7,9.4,2.2c2.8,1.5,4.9,3.7,6.4,6.5c1.3-2.7,3.4-4.8,6.2-6.4c2.8-1.6,5.9-2.4,9.1-2.4
			C12696.8-1698.8,12699.9-1698.1,12702.6-1696.6z"/>
		<path class="st5" d="M12729.8-1655.2c-2.7-1.3-4.9-3-6.5-5.1s-2.5-4.6-2.6-7.2h9.4c0.2,1.9,1.1,3.4,2.7,4.7
			c1.6,1.3,3.7,1.9,6.1,1.9c2.6,0,4.5-0.5,6-1.5c1.4-1,2.1-2.3,2.1-3.8c0-1.7-0.8-2.9-2.4-3.7c-1.6-0.8-4.1-1.7-7.5-2.6
			c-3.3-0.9-6-1.8-8.1-2.6c-2.1-0.9-3.9-2.2-5.4-3.9c-1.5-1.8-2.3-4.1-2.3-7c0-2.3,0.7-4.5,2.1-6.4c1.4-1.9,3.4-3.5,6-4.6
			s5.6-1.7,8.9-1.7c5,0,9.1,1.3,12.1,3.8c3.1,2.5,4.7,6,4.9,10.4h-9.1c-0.2-2-1-3.5-2.4-4.7c-1.4-1.2-3.4-1.8-5.8-1.8
			c-2.4,0-4.2,0.5-5.5,1.4c-1.3,0.9-1.9,2.1-1.9,3.6c0,1.2,0.4,2.2,1.3,3c0.9,0.8,1.9,1.4,3.1,1.9c1.2,0.5,3,1,5.4,1.7
			c3.2,0.9,5.8,1.7,7.9,2.6c2.1,0.9,3.8,2.2,5.3,3.9c1.5,1.7,2.3,4,2.3,6.8c0,2.5-0.7,4.7-2.1,6.7c-1.4,2-3.3,3.5-5.9,4.6
			s-5.5,1.7-8.9,1.7C12735.6-1653.3,12732.5-1653.9,12729.8-1655.2z"/>
		<path class="st5" d="M12765.5-1688c1.8-3.4,4.3-6.1,7.5-8c3.2-1.9,6.7-2.8,10.6-2.8c3.4,0,6.4,0.7,9.1,2.1c2.6,1.4,4.7,3.1,6.1,5
			v-6.4h9.2v65h-9.2v-27.4c-1.4,2-3.5,3.7-6.2,5c-2.7,1.4-5.8,2.1-9.3,2.1c-3.8,0-7.2-1-10.4-2.9c-3.1-1.9-5.6-4.7-7.4-8.2
			c-1.8-3.5-2.8-7.5-2.8-11.9C12762.8-1680.7,12763.7-1684.6,12765.5-1688z M12797-1684c-1.3-2.2-2.9-3.9-4.9-5.1
			c-2-1.2-4.2-1.8-6.6-1.8c-2.3,0-4.5,0.6-6.6,1.7c-2,1.1-3.7,2.8-4.9,5c-1.3,2.2-1.9,4.8-1.9,7.9s0.6,5.7,1.9,8
			c1.3,2.3,2.9,4,5,5.2c2.1,1.2,4.2,1.8,6.5,1.8c2.3,0,4.5-0.6,6.6-1.8c2-1.2,3.7-2.9,4.9-5.2c1.3-2.3,1.9-4.9,1.9-8
			S12798.2-1681.8,12797-1684z"/>
		<path class="st5" d="M12860-1698.1v44.1h-9.1v-5.2c-1.4,1.8-3.3,3.2-5.6,4.3s-4.8,1.6-7.4,1.6c-3.5,0-6.6-0.7-9.3-2.2
			c-2.7-1.4-4.9-3.6-6.5-6.4c-1.6-2.8-2.4-6.2-2.4-10.2v-25.9h9v24.6c0,3.9,1,7,3,9.1c2,2.1,4.7,3.2,8.1,3.2c3.4,0,6.1-1.1,8.1-3.2
			c2-2.1,3-5.1,3-9.1v-24.6H12860z"/>
		<path class="st5" d="M12871.7-1688c1.8-3.4,4.3-6.1,7.5-8c3.2-1.9,6.7-2.8,10.5-2.8c3.5,0,6.5,0.7,9.1,2c2.6,1.4,4.7,3.1,6.2,5.1
			v-6.4h9.2v44.1h-9.2v-6.6c-1.5,2.1-3.7,3.8-6.3,5.2c-2.7,1.4-5.7,2.1-9.1,2.1c-3.8,0-7.3-1-10.4-2.9c-3.1-1.9-5.6-4.7-7.5-8.2
			c-1.8-3.5-2.8-7.5-2.8-11.9C12868.9-1680.7,12869.8-1684.6,12871.7-1688z M12903.1-1684c-1.3-2.2-2.9-3.9-4.9-5.1
			c-2-1.2-4.2-1.8-6.6-1.8c-2.3,0-4.5,0.6-6.6,1.7c-2,1.1-3.7,2.8-4.9,5c-1.3,2.2-1.9,4.8-1.9,7.9s0.6,5.7,1.9,8
			c1.3,2.3,2.9,4,5,5.2c2.1,1.2,4.2,1.8,6.5,1.8c2.3,0,4.5-0.6,6.6-1.8c2-1.2,3.7-2.9,4.9-5.2c1.3-2.3,1.9-4.9,1.9-8
			S12904.4-1681.8,12903.1-1684z"/>
		<path class="st5" d="M12940.6-1696.9c2.2-1.3,4.8-1.9,7.9-1.9v9.4h-2.3c-3.6,0-6.3,0.9-8.1,2.7c-1.8,1.8-2.8,5-2.8,9.4v23.2h-9.1
			v-44.1h9.1v6.4C12936.6-1693.9,12938.4-1695.7,12940.6-1696.9z"/>
		<path class="st5" d="M12997-1672.6h-33.7c0.3,3.5,1.6,6.3,3.9,8.5c2.3,2.1,5.2,3.2,8.6,3.2c4.9,0,8.4-2.1,10.4-6.2h9.8
			c-1.3,4.1-3.7,7.4-7.2,10c-3.5,2.6-7.8,3.9-13,3.9c-4.2,0-8-0.9-11.3-2.8c-3.3-1.9-5.9-4.6-7.8-8c-1.9-3.4-2.8-7.4-2.8-12
			c0-4.5,0.9-8.5,2.8-12s4.4-6.1,7.8-8c3.3-1.9,7.2-2.8,11.5-2.8c4.2,0,7.9,0.9,11.1,2.7c3.3,1.8,5.8,4.4,7.6,7.6
			c1.8,3.3,2.7,7.1,2.7,11.3C12997.3-1675.5,12997.2-1674,12997-1672.6z M12987.8-1680c-0.1-3.4-1.3-6.1-3.6-8.1c-2.3-2-5.3-3-8.7-3
			c-3.1,0-5.8,1-8.1,3c-2.2,2-3.6,4.7-4,8.1H12987.8z"/>
	</g>
	<g class="st4">
		<path class="st5" d="M11928.7-89.2c4.5,2.3,7.9,5.5,10.3,9.8c2.4,4.2,3.6,9.2,3.6,14.8c0,5.7-1.2,10.6-3.6,14.7
			c-2.4,4.2-5.9,7.3-10.3,9.6c-4.5,2.2-9.6,3.3-15.6,3.3h-18.2v-55.6h18.2C11919.1-92.6,11924.3-91.5,11928.7-89.2z M11928.1-49.7
			c3.5-3.5,5.2-8.5,5.2-14.9c0-6.5-1.7-11.5-5.2-15.1c-3.5-3.6-8.5-5.4-15-5.4h-9v40.7h9C11919.7-44.4,11924.7-46.2,11928.1-49.7z"
			/>
		<path class="st5" d="M11991.8-55.6h-33.7c0.3,3.5,1.6,6.3,3.9,8.5c2.3,2.1,5.2,3.2,8.6,3.2c4.9,0,8.4-2.1,10.4-6.2h9.8
			c-1.3,4.1-3.7,7.4-7.2,10c-3.5,2.6-7.8,3.9-13,3.9c-4.2,0-8-0.9-11.3-2.8c-3.3-1.9-5.9-4.6-7.8-8c-1.9-3.4-2.8-7.4-2.8-12
			c0-4.5,0.9-8.5,2.8-12c1.8-3.4,4.4-6.1,7.8-8c3.3-1.9,7.2-2.8,11.5-2.8c4.2,0,7.9,0.9,11.1,2.7c3.3,1.8,5.8,4.4,7.6,7.6
			c1.8,3.3,2.7,7.1,2.7,11.3C11992.1-58.5,11992-57,11991.8-55.6z M11982.6-63c-0.1-3.4-1.3-6.1-3.6-8.1c-2.3-2-5.3-3-8.7-3
			c-3.1,0-5.8,1-8.1,3c-2.2,2-3.6,4.7-4,8.1H11982.6z"/>
		<path class="st5" d="M12081.1-81.1l-13.7,44.1h-9.6l-8.9-32.6L12040-37h-9.6l-13.8-44.1h9.3l9.2,35.4l9.4-35.4h9.5l9,35.3
			l9.1-35.3H12081.1z"/>
		<path class="st5" d="M12087.6-71c1.8-3.4,4.3-6.1,7.5-8c3.2-1.9,6.7-2.8,10.5-2.8c3.5,0,6.5,0.7,9.1,2c2.6,1.4,4.7,3.1,6.2,5.1
			v-6.4h9.2V-37h-9.2v-6.6c-1.5,2.1-3.7,3.8-6.3,5.2c-2.7,1.4-5.7,2.1-9.1,2.1c-3.8,0-7.3-1-10.4-2.9s-5.6-4.7-7.5-8.2
			c-1.8-3.5-2.8-7.5-2.8-11.9C12084.8-63.7,12085.8-67.6,12087.6-71z M12119-67c-1.3-2.2-2.9-3.9-4.9-5.1c-2-1.2-4.2-1.8-6.6-1.8
			c-2.3,0-4.5,0.6-6.6,1.7c-2,1.1-3.7,2.8-4.9,5c-1.3,2.2-1.9,4.8-1.9,7.9c0,3,0.6,5.7,1.9,8c1.3,2.3,2.9,4,5,5.2
			c2.1,1.2,4.2,1.8,6.5,1.8c2.3,0,4.5-0.6,6.6-1.8c2-1.2,3.7-2.9,4.9-5.2c1.3-2.3,1.9-4.9,1.9-8C12120.9-62.1,12120.3-64.8,12119-67
			z"/>
		<path class="st5" d="M12151.2-96.2V-37h-9.1v-59.2H12151.2z"/>
		<path class="st5" d="M12172.4-96.2V-37h-9.1v-59.2H12172.4z"/>
		<path class="st5" d="M12224.4-55.6h-33.7c0.3,3.5,1.6,6.3,3.9,8.5c2.3,2.1,5.2,3.2,8.6,3.2c4.9,0,8.4-2.1,10.4-6.2h9.8
			c-1.3,4.1-3.7,7.4-7.2,10c-3.5,2.6-7.8,3.9-13,3.9c-4.2,0-8-0.9-11.3-2.8c-3.3-1.9-5.9-4.6-7.8-8c-1.9-3.4-2.8-7.4-2.8-12
			c0-4.5,0.9-8.5,2.8-12c1.8-3.4,4.4-6.1,7.8-8c3.3-1.9,7.2-2.8,11.5-2.8c4.2,0,7.9,0.9,11.1,2.7c3.3,1.8,5.8,4.4,7.6,7.6
			c1.8,3.3,2.7,7.1,2.7,11.3C12224.8-58.5,12224.6-57,12224.4-55.6z M12215.2-63c-0.1-3.4-1.3-6.1-3.6-8.1c-2.3-2-5.3-3-8.7-3
			c-3.1,0-5.8,1-8.1,3c-2.2,2-3.6,4.7-4,8.1H12215.2z"/>
		<path class="st5" d="M12265.3-79.6c2.7,1.4,4.9,3.6,6.4,6.4c1.5,2.8,2.3,6.2,2.3,10.2v26h-9v-24.6c0-3.9-1-7-3-9.1
			s-4.7-3.2-8.1-3.2c-3.4,0-6.1,1.1-8.1,3.2s-3,5.1-3,9.1V-37h-9.1v-44.1h9.1v5c1.5-1.8,3.4-3.2,5.7-4.2c2.3-1,4.8-1.5,7.4-1.5
			C12259.4-81.8,12262.5-81.1,12265.3-79.6z"/>
	</g>
	<g class="st4">
		<path class="st5" d="M12288.4,910.2c2.1,2.6,3.1,5.6,3.1,8.9c0,2.8-0.7,5.4-2.2,7.6c-1.5,2.3-3.6,4.1-6.4,5.4c-2.8,1.3-6,2-9.7,2
			h-22.2v-55.6h21.2c3.8,0,7,0.6,9.8,1.9s4.8,3,6.2,5.2c1.4,2.2,2.1,4.6,2.1,7.2c0,3.2-0.9,5.9-2.6,8c-1.7,2.1-4,3.7-6.9,4.7
			C12283.7,906,12286.3,907.5,12288.4,910.2z M12260.1,901.8h11.3c3,0,5.3-0.7,7-2s2.5-3.3,2.5-5.9c0-2.5-0.8-4.5-2.5-5.9
			c-1.7-1.4-4-2.1-7-2.1h-11.3V901.8z M12279.7,924.3c1.8-1.5,2.6-3.6,2.6-6.2c0-2.7-0.9-4.9-2.8-6.5c-1.9-1.6-4.3-2.4-7.4-2.4h-12
			v17.4h12.3C12275.5,926.6,12278,925.8,12279.7,924.3z"/>
		<path class="st5" d="M12310.5,874.8V934h-9.1v-59.2H12310.5z"/>
		<path class="st5" d="M12330.4,931.9c-3.4-1.9-6-4.6-7.9-8s-2.9-7.4-2.9-12c0-4.5,1-8.5,3-11.9c2-3.5,4.7-6.1,8.1-8
			c3.4-1.9,7.2-2.8,11.4-2.8c4.2,0,8,0.9,11.4,2.8c3.4,1.9,6.1,4.5,8.1,8c2,3.5,3,7.4,3,11.9c0,4.5-1,8.5-3,11.9
			c-2,3.5-4.8,6.1-8.3,8c-3.5,1.9-7.3,2.8-11.6,2.8C12337.5,934.7,12333.7,933.8,12330.4,931.9z M12348.2,925.1c2.1-1.1,3.7-2.8,5-5
			c1.3-2.2,1.9-5,1.9-8.2c0-3.2-0.6-5.9-1.8-8.1c-1.2-2.2-2.9-3.9-4.9-5c-2-1.1-4.2-1.7-6.6-1.7c-2.3,0-4.5,0.6-6.5,1.7
			c-2,1.1-3.6,2.8-4.8,5c-1.2,2.2-1.8,4.9-1.8,8.1c0,4.7,1.2,8.4,3.6,11c2.4,2.6,5.5,3.9,9.2,3.9
			C12344,926.8,12346.2,926.2,12348.2,925.1z"/>
		<path class="st5" d="M12413.6,915.4h-33.7c0.3,3.5,1.6,6.3,3.9,8.5c2.3,2.1,5.2,3.2,8.6,3.2c4.9,0,8.4-2.1,10.4-6.2h9.8
			c-1.3,4.1-3.7,7.4-7.2,10c-3.5,2.6-7.8,3.9-13,3.9c-4.2,0-8-0.9-11.3-2.8c-3.3-1.9-5.9-4.6-7.8-8c-1.9-3.4-2.8-7.4-2.8-12
			c0-4.5,0.9-8.5,2.8-12c1.8-3.4,4.4-6.1,7.8-8c3.3-1.9,7.2-2.8,11.5-2.8c4.2,0,7.9,0.9,11.1,2.7c3.3,1.8,5.8,4.4,7.6,7.6
			c1.8,3.3,2.7,7.1,2.7,11.3C12414,912.5,12413.8,914,12413.6,915.4z M12404.4,908c-0.1-3.4-1.3-6.1-3.6-8.1c-2.3-2-5.3-3-8.7-3
			c-3.1,0-5.8,1-8.1,3c-2.2,2-3.6,4.7-4,8.1H12404.4z"/>
		<path class="st5" d="M12485.6,891.4c2.7,1.4,4.9,3.6,6.5,6.4c1.6,2.8,2.4,6.2,2.4,10.2v26h-9v-24.6c0-3.9-1-7-3-9.1
			c-2-2.1-4.7-3.2-8.1-3.2s-6.1,1.1-8.1,3.2s-3,5.1-3,9.1V934h-9v-24.6c0-3.9-1-7-3-9.1c-2-2.1-4.7-3.2-8.1-3.2
			c-3.4,0-6.1,1.1-8.1,3.2s-3,5.1-3,9.1V934h-9.1v-44.1h9.1v5c1.5-1.8,3.4-3.2,5.7-4.2c2.3-1,4.7-1.5,7.4-1.5c3.5,0,6.7,0.7,9.4,2.2
			c2.8,1.5,4.9,3.7,6.4,6.5c1.3-2.7,3.4-4.8,6.2-6.4c2.8-1.6,5.9-2.4,9.1-2.4C12479.7,889.2,12482.8,889.9,12485.6,891.4z"/>
		<path class="st5" d="M12546.1,915.4h-33.7c0.3,3.5,1.6,6.3,3.9,8.5c2.3,2.1,5.2,3.2,8.6,3.2c4.9,0,8.4-2.1,10.4-6.2h9.8
			c-1.3,4.1-3.7,7.4-7.2,10c-3.5,2.6-7.8,3.9-13,3.9c-4.2,0-8-0.9-11.3-2.8c-3.3-1.9-5.9-4.6-7.8-8c-1.9-3.4-2.8-7.4-2.8-12
			c0-4.5,0.9-8.5,2.8-12c1.8-3.4,4.4-6.1,7.8-8c3.3-1.9,7.2-2.8,11.5-2.8c4.2,0,7.9,0.9,11.1,2.7c3.3,1.8,5.8,4.4,7.6,7.6
			c1.8,3.3,2.7,7.1,2.7,11.3C12546.4,912.5,12546.3,914,12546.1,915.4z M12536.9,908c-0.1-3.4-1.3-6.1-3.6-8.1c-2.3-2-5.3-3-8.7-3
			c-3.1,0-5.8,1-8.1,3s-3.6,4.7-4,8.1H12536.9z"/>
		<path class="st5" d="M12587,891.4c2.7,1.4,4.9,3.6,6.4,6.4c1.5,2.8,2.3,6.2,2.3,10.2v26h-9v-24.6c0-3.9-1-7-3-9.1
			c-2-2.1-4.7-3.2-8.1-3.2c-3.4,0-6.1,1.1-8.1,3.2s-3,5.1-3,9.1V934h-9.1v-44.1h9.1v5c1.5-1.8,3.4-3.2,5.7-4.2s4.8-1.5,7.4-1.5
			C12581.1,889.2,12584.2,889.9,12587,891.4z"/>
		<path class="st5" d="M12670,891.4c2.7,1.4,4.9,3.6,6.5,6.4c1.6,2.8,2.4,6.2,2.4,10.2v26h-9v-24.6c0-3.9-1-7-3-9.1
			c-2-2.1-4.7-3.2-8.1-3.2c-3.4,0-6.1,1.1-8.1,3.2s-3,5.1-3,9.1V934h-9v-24.6c0-3.9-1-7-3-9.1s-4.7-3.2-8.1-3.2
			c-3.4,0-6.1,1.1-8.1,3.2s-3,5.1-3,9.1V934h-9.1v-44.1h9.1v5c1.5-1.8,3.4-3.2,5.7-4.2s4.7-1.5,7.4-1.5c3.5,0,6.7,0.7,9.4,2.2
			c2.8,1.5,4.9,3.7,6.4,6.5c1.3-2.7,3.4-4.8,6.2-6.4c2.8-1.6,5.9-2.4,9.1-2.4C12664.1,889.2,12667.2,889.9,12670,891.4z"/>
		<path class="st5" d="M12690.2,900c1.8-3.4,4.3-6.1,7.5-8c3.2-1.9,6.7-2.8,10.5-2.8c3.5,0,6.5,0.7,9.1,2s4.7,3.1,6.2,5.1v-6.4h9.2
			V934h-9.2v-6.6c-1.5,2.1-3.7,3.8-6.3,5.2c-2.7,1.4-5.7,2.1-9.1,2.1c-3.8,0-7.3-1-10.4-2.9c-3.1-1.9-5.6-4.7-7.5-8.2
			c-1.8-3.5-2.8-7.5-2.8-11.9C12687.4,907.3,12688.3,903.4,12690.2,900z M12721.6,904c-1.3-2.2-2.9-3.9-4.9-5.1
			c-2-1.2-4.2-1.8-6.6-1.8c-2.3,0-4.5,0.6-6.6,1.7c-2,1.1-3.7,2.8-4.9,5c-1.3,2.2-1.9,4.8-1.9,7.9c0,3,0.6,5.7,1.9,8
			c1.3,2.3,2.9,4,5,5.2c2.1,1.2,4.2,1.8,6.5,1.8c2.3,0,4.5-0.6,6.6-1.8c2-1.2,3.7-2.9,4.9-5.2c1.3-2.3,1.9-4.9,1.9-8
			C12723.5,908.9,12722.8,906.2,12721.6,904z"/>
		<path class="st5" d="M12759.1,891.1c2.2-1.3,4.8-1.9,7.9-1.9v9.4h-2.3c-3.6,0-6.3,0.9-8.1,2.7c-1.8,1.8-2.8,5-2.8,9.4V934h-9.1
			v-44.1h9.1v6.4C12755.1,894.1,12756.9,892.3,12759.1,891.1z"/>
		<path class="st5" d="M12792.8,912l20.3,22h-12.3l-16.3-19v19h-9.1v-59.2h9.1v34.4l16-19.3h12.6L12792.8,912z"/>
		<path class="st5" d="M12830.3,897.4v24.4c0,1.7,0.4,2.8,1.2,3.6c0.8,0.7,2.1,1.1,4,1.1h5.6v7.6h-7.2c-4.1,0-7.3-1-9.4-2.9
			c-2.2-1.9-3.3-5-3.3-9.4v-24.4h-5.2v-7.4h5.2v-11h9.2v11h10.7v7.4H12830.3z"/>
	</g>
	<g class="st4">
		<path class="st5" d="M9988.7-89.2c4.5,2.3,7.9,5.5,10.3,9.8c2.4,4.2,3.6,9.2,3.6,14.8c0,5.7-1.2,10.6-3.6,14.7
			c-2.4,4.2-5.9,7.3-10.3,9.6c-4.5,2.2-9.6,3.3-15.6,3.3H9955v-55.6h18.2C9979.1-92.6,9984.3-91.5,9988.7-89.2z M9988.1-49.7
			c3.5-3.5,5.2-8.5,5.2-14.9c0-6.5-1.7-11.5-5.2-15.1c-3.5-3.6-8.5-5.4-15-5.4h-9v40.7h9C9979.7-44.4,9984.7-46.2,9988.1-49.7z"/>
		<path class="st5" d="M10051.8-55.6h-33.7c0.3,3.5,1.6,6.3,3.9,8.5c2.3,2.1,5.2,3.2,8.6,3.2c4.9,0,8.4-2.1,10.4-6.2h9.8
			c-1.3,4.1-3.7,7.4-7.2,10c-3.5,2.6-7.8,3.9-13,3.9c-4.2,0-8-0.9-11.3-2.8c-3.3-1.9-5.9-4.6-7.8-8c-1.9-3.4-2.8-7.4-2.8-12
			c0-4.5,0.9-8.5,2.8-12c1.8-3.4,4.4-6.1,7.8-8c3.3-1.9,7.2-2.8,11.5-2.8c4.2,0,7.9,0.9,11.1,2.7c3.3,1.8,5.8,4.4,7.6,7.6
			c1.8,3.3,2.7,7.1,2.7,11.3C10052.1-58.5,10052-57,10051.8-55.6z M10042.6-63c-0.1-3.4-1.3-6.1-3.6-8.1c-2.3-2-5.3-3-8.7-3
			c-3.1,0-5.8,1-8.1,3c-2.2,2-3.6,4.7-4,8.1H10042.6z"/>
		<path class="st5" d="M10112.2-92.6v40.1c0,5-1.5,8.9-4.5,11.8c-3,2.9-7,4.3-11.9,4.3c-4.9,0-8.9-1.4-11.9-4.3
			c-3-2.9-4.5-6.8-4.5-11.8h9.2c0.1,2.5,0.7,4.4,1.9,5.8c1.2,1.4,3,2.2,5.3,2.2c2.3,0,4.1-0.7,5.4-2.2s1.8-3.4,1.8-5.8v-40.1
			H10112.2z"/>
		<path class="st5" d="M10134.8-39.1c-3.4-1.9-6-4.6-7.9-8s-2.9-7.4-2.9-12c0-4.5,1-8.5,3-11.9c2-3.5,4.7-6.1,8.1-8
			c3.4-1.9,7.2-2.8,11.4-2.8s8,0.9,11.4,2.8c3.4,1.9,6.1,4.5,8.1,8c2,3.5,3,7.4,3,11.9c0,4.5-1,8.5-3,11.9c-2,3.5-4.8,6.1-8.3,8
			c-3.5,1.9-7.3,2.8-11.6,2.8C10142-36.3,10138.2-37.2,10134.8-39.1z M10152.7-45.9c2.1-1.1,3.7-2.8,5-5c1.3-2.2,1.9-5,1.9-8.2
			c0-3.2-0.6-5.9-1.8-8.1c-1.2-2.2-2.9-3.9-4.9-5c-2-1.1-4.2-1.7-6.6-1.7s-4.5,0.6-6.5,1.7c-2,1.1-3.6,2.8-4.8,5
			c-1.2,2.2-1.8,4.9-1.8,8.1c0,4.7,1.2,8.4,3.6,11c2.4,2.6,5.5,3.9,9.2,3.9C10148.5-44.2,10150.7-44.8,10152.7-45.9z"/>
		<path class="st5" d="M10192.5-79.9c2.2-1.3,4.8-1.9,7.9-1.9v9.4h-2.3c-3.6,0-6.3,0.9-8.1,2.7c-1.8,1.8-2.8,5-2.8,9.4V-37h-9.1
			v-44.1h9.1v6.4C10188.5-76.9,10190.3-78.7,10192.5-79.9z"/>
		<path class="st5" d="M10208.5-71c1.8-3.4,4.3-6.1,7.5-8c3.2-1.9,6.7-2.8,10.6-2.8c2.9,0,5.7,0.6,8.5,1.9c2.8,1.3,5,2.9,6.7,5
			v-21.3h9.2V-37h-9.2v-6.6c-1.5,2.1-3.6,3.9-6.2,5.3c-2.6,1.4-5.7,2.1-9.1,2.1c-3.8,0-7.3-1-10.5-2.9c-3.2-1.9-5.7-4.7-7.5-8.2
			c-1.8-3.5-2.8-7.5-2.8-11.9C10205.7-63.7,10206.6-67.6,10208.5-71z M10239.9-67c-1.3-2.2-2.9-3.9-4.9-5.1c-2-1.2-4.2-1.8-6.6-1.8
			c-2.3,0-4.5,0.6-6.6,1.7c-2,1.1-3.7,2.8-4.9,5c-1.3,2.2-1.9,4.8-1.9,7.9c0,3,0.6,5.7,1.9,8c1.3,2.3,2.9,4,5,5.2
			c2.1,1.2,4.2,1.8,6.5,1.8c2.3,0,4.5-0.6,6.6-1.8c2-1.2,3.7-2.9,4.9-5.2c1.3-2.3,1.9-4.9,1.9-8
			C10241.8-62.1,10241.2-64.8,10239.9-67z"/>
		<path class="st5" d="M10262.7-71c1.8-3.4,4.3-6.1,7.5-8c3.2-1.9,6.7-2.8,10.5-2.8c3.5,0,6.5,0.7,9.1,2c2.6,1.4,4.7,3.1,6.2,5.1
			v-6.4h9.2V-37h-9.2v-6.6c-1.5,2.1-3.7,3.8-6.3,5.2c-2.7,1.4-5.7,2.1-9.1,2.1c-3.8,0-7.3-1-10.4-2.9s-5.6-4.7-7.5-8.2
			c-1.8-3.5-2.8-7.5-2.8-11.9C10260-63.7,10260.9-67.6,10262.7-71z M10294.2-67c-1.3-2.2-2.9-3.9-4.9-5.1c-2-1.2-4.2-1.8-6.6-1.8
			c-2.3,0-4.5,0.6-6.6,1.7c-2,1.1-3.7,2.8-4.9,5c-1.3,2.2-1.9,4.8-1.9,7.9c0,3,0.6,5.7,1.9,8c1.3,2.3,2.9,4,5,5.2
			c2.1,1.2,4.2,1.8,6.5,1.8c2.3,0,4.5-0.6,6.6-1.8c2-1.2,3.7-2.9,4.9-5.2c1.3-2.3,1.9-4.9,1.9-8C10296-62.1,10295.4-64.8,10294.2-67
			z"/>
		<path class="st5" d="M10317-71c1.8-3.4,4.3-6.1,7.5-8c3.2-1.9,6.7-2.8,10.5-2.8c3.5,0,6.5,0.7,9.1,2s4.7,3.1,6.2,5.1v-6.4h9.2V-37
			h-9.2v-6.6c-1.5,2.1-3.7,3.8-6.3,5.2c-2.7,1.4-5.7,2.1-9.1,2.1c-3.8,0-7.3-1-10.4-2.9c-3.1-1.9-5.6-4.7-7.5-8.2
			c-1.8-3.5-2.8-7.5-2.8-11.9C10314.2-63.7,10315.1-67.6,10317-71z M10348.4-67c-1.3-2.2-2.9-3.9-4.9-5.1c-2-1.2-4.2-1.8-6.6-1.8
			c-2.3,0-4.5,0.6-6.6,1.7c-2,1.1-3.7,2.8-4.9,5c-1.3,2.2-1.9,4.8-1.9,7.9c0,3,0.6,5.7,1.9,8c1.3,2.3,2.9,4,5,5.2
			c2.1,1.2,4.2,1.8,6.5,1.8c2.3,0,4.5-0.6,6.6-1.8c2-1.2,3.7-2.9,4.9-5.2c1.3-2.3,1.9-4.9,1.9-8
			C10350.3-62.1,10349.6-64.8,10348.4-67z"/>
		<path class="st5" d="M10403-79.6c2.7,1.4,4.9,3.6,6.4,6.4c1.5,2.8,2.3,6.2,2.3,10.2v26h-9v-24.6c0-3.9-1-7-3-9.1
			c-2-2.1-4.7-3.2-8.1-3.2c-3.4,0-6.1,1.1-8.1,3.2s-3,5.1-3,9.1V-37h-9.1v-44.1h9.1v5c1.5-1.8,3.4-3.2,5.7-4.2s4.8-1.5,7.4-1.5
			C10397.2-81.8,10400.3-81.1,10403-79.6z"/>
	</g>
	<g class="st4">
		<path class="st5" d="M8917.4-1997.6l-16.5,55.6h-10.3l-11.7-42.1l-12.4,42.1l-10.2,0.1l-15.8-55.7h9.7l11.5,45.3l12.5-45.3h10.2
			l11.6,45l11.6-45H8917.4z"/>
		<path class="st5" d="M8965-1960.6h-33.7c0.3,3.5,1.6,6.3,3.9,8.5c2.3,2.1,5.2,3.2,8.6,3.2c4.9,0,8.4-2.1,10.4-6.2h9.8
			c-1.3,4.1-3.7,7.4-7.2,10c-3.5,2.6-7.8,3.9-13,3.9c-4.2,0-8-0.9-11.3-2.8c-3.3-1.9-5.9-4.6-7.8-8c-1.9-3.4-2.8-7.4-2.8-12
			c0-4.5,0.9-8.5,2.8-12c1.8-3.4,4.4-6.1,7.8-8c3.3-1.9,7.2-2.8,11.5-2.8c4.2,0,7.9,0.9,11.1,2.7c3.3,1.8,5.8,4.4,7.6,7.6
			c1.8,3.3,2.7,7.1,2.7,11.3C8965.3-1963.5,8965.2-1962,8965-1960.6z M8955.8-1968c-0.1-3.4-1.3-6.1-3.6-8.1c-2.3-2-5.3-3-8.7-3
			c-3.1,0-5.8,1-8.1,3c-2.2,2-3.6,4.7-4,8.1H8955.8z"/>
		<path class="st5" d="M8981-1943.2c-2.7-1.3-4.9-3-6.5-5.1c-1.6-2.2-2.5-4.6-2.6-7.2h9.4c0.2,1.9,1.1,3.4,2.7,4.7
			c1.6,1.3,3.7,1.9,6.1,1.9c2.6,0,4.5-0.5,6-1.5c1.4-1,2.1-2.3,2.1-3.8c0-1.7-0.8-2.9-2.4-3.7c-1.6-0.8-4.1-1.7-7.5-2.6
			c-3.3-0.9-6-1.8-8.1-2.6c-2.1-0.9-3.9-2.2-5.4-3.9c-1.5-1.8-2.3-4.1-2.3-7c0-2.3,0.7-4.5,2.1-6.4c1.4-1.9,3.4-3.5,6-4.6
			c2.6-1.1,5.6-1.7,8.9-1.7c5,0,9.1,1.3,12.1,3.8c3.1,2.5,4.7,6,4.9,10.4h-9.1c-0.2-2-1-3.5-2.4-4.7c-1.4-1.2-3.4-1.8-5.8-1.8
			c-2.4,0-4.2,0.5-5.5,1.4c-1.3,0.9-1.9,2.1-1.9,3.6c0,1.2,0.4,2.2,1.3,3c0.9,0.8,1.9,1.4,3.1,1.9c1.2,0.5,3,1,5.4,1.7
			c3.2,0.9,5.8,1.7,7.9,2.6c2.1,0.9,3.8,2.2,5.3,3.9c1.5,1.7,2.3,4,2.3,6.8c0,2.5-0.7,4.7-2.1,6.7c-1.4,2-3.3,3.5-5.9,4.6
			c-2.5,1.1-5.5,1.7-8.9,1.7C8986.8-1941.3,8983.7-1941.9,8981-1943.2z"/>
		<path class="st5" d="M9027.6-1978.6v24.4c0,1.7,0.4,2.8,1.2,3.6c0.8,0.7,2.1,1.1,4,1.1h5.6v7.6h-7.2c-4.1,0-7.3-1-9.4-2.9
			c-2.2-1.9-3.3-5-3.3-9.4v-24.4h-5.2v-7.4h5.2v-11h9.2v11h10.7v7.4H9027.6z"/>
		<path class="st5" d="M9086.8-1960.6h-33.7c0.3,3.5,1.6,6.3,3.9,8.5c2.3,2.1,5.2,3.2,8.6,3.2c4.9,0,8.4-2.1,10.4-6.2h9.8
			c-1.3,4.1-3.7,7.4-7.2,10c-3.5,2.6-7.8,3.9-13,3.9c-4.2,0-8-0.9-11.3-2.8c-3.3-1.9-5.9-4.6-7.8-8c-1.9-3.4-2.8-7.4-2.8-12
			c0-4.5,0.9-8.5,2.8-12c1.8-3.4,4.4-6.1,7.8-8c3.3-1.9,7.2-2.8,11.5-2.8c4.2,0,7.9,0.9,11.1,2.7c3.3,1.8,5.8,4.4,7.6,7.6
			c1.8,3.3,2.7,7.1,2.7,11.3C9087.2-1963.5,9087.1-1962,9086.8-1960.6z M9077.6-1968c-0.1-3.4-1.3-6.1-3.6-8.1c-2.3-2-5.3-3-8.7-3
			c-3.1,0-5.8,1-8.1,3s-3.6,4.7-4,8.1H9077.6z"/>
		<path class="st5" d="M9110.6-1984.9c2.2-1.3,4.8-1.9,7.9-1.9v9.4h-2.3c-3.6,0-6.3,0.9-8.1,2.7c-1.8,1.8-2.8,5-2.8,9.4v23.2h-9.1
			v-44.1h9.1v6.4C9106.6-1981.9,9108.3-1983.7,9110.6-1984.9z"/>
		<path class="st5" d="M9142.3-1984.7c2.7-1.4,5.7-2.1,9-2.1c3.8,0,7.3,0.9,10.5,2.8c3.2,1.9,5.7,4.5,7.5,8
			c1.8,3.4,2.7,7.3,2.7,11.8c0,4.4-0.9,8.4-2.7,11.9c-1.8,3.5-4.3,6.2-7.5,8.2c-3.2,1.9-6.7,2.9-10.5,2.9c-3.4,0-6.3-0.7-9-2
			c-2.6-1.4-4.7-3.1-6.4-5.1v27.4h-9.1v-65h9.1v6.5C9137.5-1981.6,9139.6-1983.3,9142.3-1984.7z M9160.9-1972.1
			c-1.3-2.2-2.9-3.9-5-5c-2.1-1.1-4.3-1.7-6.6-1.7c-2.3,0-4.5,0.6-6.5,1.8c-2.1,1.2-3.7,2.9-5,5.1c-1.3,2.2-1.9,4.9-1.9,7.9
			s0.6,5.7,1.9,8c1.3,2.3,2.9,4,5,5.2c2.1,1.2,4.2,1.8,6.5,1.8c2.3,0,4.5-0.6,6.6-1.8c2.1-1.2,3.7-2.9,5-5.2c1.3-2.3,1.9-5,1.9-8
			S9162.1-1969.9,9160.9-1972.1z"/>
		<path class="st5" d="M9188.9-1944.1c-3.4-1.9-6-4.6-7.9-8c-1.9-3.4-2.9-7.4-2.9-12c0-4.5,1-8.5,3-11.9c2-3.5,4.7-6.1,8.1-8
			c3.4-1.9,7.2-2.8,11.4-2.8c4.2,0,8,0.9,11.4,2.8c3.4,1.9,6.1,4.5,8.1,8c2,3.5,3,7.4,3,11.9c0,4.5-1,8.5-3,11.9
			c-2,3.5-4.8,6.1-8.3,8c-3.5,1.9-7.3,2.8-11.6,2.8C9196-1941.3,9192.3-1942.2,9188.9-1944.1z M9206.8-1950.9c2.1-1.1,3.7-2.8,5-5
			c1.3-2.2,1.9-5,1.9-8.2s-0.6-5.9-1.8-8.1c-1.2-2.2-2.9-3.9-4.9-5c-2-1.1-4.2-1.7-6.6-1.7c-2.3,0-4.5,0.6-6.5,1.7s-3.6,2.8-4.8,5
			c-1.2,2.2-1.8,4.9-1.8,8.1c0,4.7,1.2,8.4,3.6,11c2.4,2.6,5.5,3.9,9.2,3.9C9202.5-1949.2,9204.7-1949.8,9206.8-1950.9z"/>
		<path class="st5" d="M9240-1944.1c-3.4-1.9-6-4.6-7.9-8c-1.9-3.4-2.9-7.4-2.9-12c0-4.5,1-8.5,3-11.9c2-3.5,4.7-6.1,8.1-8
			c3.4-1.9,7.2-2.8,11.4-2.8c4.2,0,8,0.9,11.4,2.8c3.4,1.9,6.1,4.5,8.1,8c2,3.5,3,7.4,3,11.9c0,4.5-1,8.5-3,11.9
			c-2,3.5-4.8,6.1-8.3,8c-3.5,1.9-7.3,2.8-11.6,2.8C9247.1-1941.3,9243.3-1942.2,9240-1944.1z M9257.8-1950.9c2.1-1.1,3.7-2.8,5-5
			c1.3-2.2,1.9-5,1.9-8.2s-0.6-5.9-1.8-8.1c-1.2-2.2-2.9-3.9-4.9-5c-2-1.1-4.2-1.7-6.6-1.7c-2.3,0-4.5,0.6-6.5,1.7s-3.6,2.8-4.8,5
			c-1.2,2.2-1.8,4.9-1.8,8.1c0,4.7,1.2,8.4,3.6,11c2.4,2.6,5.5,3.9,9.2,3.9C9253.6-1949.2,9255.8-1949.8,9257.8-1950.9z"/>
		<path class="st5" d="M9297.6-1984.9c2.2-1.3,4.8-1.9,7.9-1.9v9.4h-2.3c-3.6,0-6.3,0.9-8.1,2.7c-1.8,1.8-2.8,5-2.8,9.4v23.2h-9.1
			v-44.1h9.1v6.4C9293.6-1981.9,9295.4-1983.7,9297.6-1984.9z"/>
		<path class="st5" d="M9324.5-1978.6v24.4c0,1.7,0.4,2.8,1.2,3.6c0.8,0.7,2.1,1.1,4,1.1h5.6v7.6h-7.2c-4.1,0-7.3-1-9.4-2.9
			c-2.2-1.9-3.3-5-3.3-9.4v-24.4h-5.2v-7.4h5.2v-11h9.2v11h10.7v7.4H9324.5z"/>
	</g>
	<g class="st4">
		<path class="st5" d="M15300.4-855.6v55.6h-9.1v-24.3h-26.2v24.3h-9.1v-55.6h9.1v23.8h26.2v-23.8H15300.4z"/>
		<path class="st5" d="M15360.3-855.6l-20.9,55.6h-10.6l-21-55.6h9.8l16.5,46.2l16.6-46.2H15360.3z"/>
		<path class="st5" d="M15401.4-811.4h-23.3l-4,11.4h-9.5l19.9-55.7h10.6l19.9,55.7h-9.6L15401.4-811.4z M15398.9-818.8l-9-25.8
			l-9.1,25.8H15398.9z"/>
		<path class="st5" d="M15453.3-875.5l-21.8,89.5h-9l21.7-89.5H15453.3z"/>
		<path class="st5" d="M15473.8-855.6v35.4c0,4.2,1.1,7.4,3.3,9.5c2.2,2.1,5.3,3.2,9.2,3.2c4,0,7.1-1.1,9.3-3.2
			c2.2-2.1,3.3-5.3,3.3-9.5v-35.4h9.1v35.3c0,4.5-1,8.4-3,11.5c-2,3.1-4.6,5.5-7.9,7c-3.3,1.5-7,2.3-11,2.3s-7.6-0.8-10.9-2.3
			c-3.3-1.5-5.9-3.9-7.8-7c-1.9-3.1-2.9-7-2.9-11.5v-35.3H15473.8z"/>
		<path class="st5" d="M15567.9-855.6L15547-800h-10.6l-21-55.6h9.8l16.5,46.2l16.6-46.2H15567.9z"/>
		<path class="st5" d="M15609-811.4h-23.3l-4,11.4h-9.5l19.9-55.7h10.6l19.9,55.7h-9.6L15609-811.4z M15606.5-818.8l-9-25.8
			l-9.1,25.8H15606.5z"/>
	</g>
	<g class="st4">
		<path class="st5" d="M14682.1-2168.1c-4.3-2.4-7.8-5.8-10.3-10.2c-2.5-4.3-3.8-9.2-3.8-14.7c0-5.4,1.3-10.3,3.8-14.6
			c2.5-4.3,6-7.7,10.3-10.1c4.3-2.4,9.1-3.6,14.3-3.6c5.2,0,10,1.2,14.4,3.6c4.3,2.4,7.8,5.8,10.3,10.1c2.5,4.3,3.8,9.2,3.8,14.6
			c0,5.4-1.3,10.3-3.8,14.7c-2.5,4.3-5.9,7.7-10.3,10.2c-4.3,2.4-9.1,3.6-14.4,3.6C14691.2-2164.4,14686.4-2165.7,14682.1-2168.1z
			 M14706.2-2174.9c2.9-1.7,5.1-4.1,6.8-7.2c1.6-3.1,2.4-6.7,2.4-10.8c0-4.1-0.8-7.7-2.4-10.8c-1.6-3.1-3.9-5.5-6.8-7.1
			c-2.9-1.7-6.2-2.5-9.8-2.5c-3.7,0-7,0.8-9.8,2.5c-2.9,1.7-5.1,4-6.8,7.1c-1.6,3.1-2.4,6.7-2.4,10.8c0,4.1,0.8,7.7,2.4,10.8
			s3.9,5.5,6.8,7.2c2.9,1.7,6.2,2.5,9.8,2.5C14700-2172.4,14703.3-2173.2,14706.2-2174.9z"/>
		<path class="st5" d="M14741.6-2167.1c-3.4-1.9-6-4.6-7.9-8c-1.9-3.4-2.9-7.4-2.9-12c0-4.5,1-8.5,3-11.9c2-3.5,4.7-6.1,8.1-8
			c3.4-1.9,7.2-2.8,11.4-2.8c4.2,0,8,0.9,11.4,2.8c3.4,1.9,6.1,4.5,8.1,8c2,3.5,3,7.4,3,11.9c0,4.5-1,8.5-3,11.9
			c-2,3.5-4.8,6.1-8.3,8c-3.5,1.9-7.3,2.8-11.6,2.8C14748.7-2164.3,14744.9-2165.2,14741.6-2167.1z M14759.4-2173.9
			c2.1-1.1,3.7-2.8,5-5c1.3-2.2,1.9-5,1.9-8.2s-0.6-5.9-1.8-8.1c-1.2-2.2-2.9-3.9-4.9-5c-2-1.1-4.2-1.7-6.6-1.7
			c-2.3,0-4.5,0.6-6.5,1.7s-3.6,2.8-4.8,5c-1.2,2.2-1.8,4.9-1.8,8.1c0,4.7,1.2,8.4,3.6,11c2.4,2.6,5.5,3.9,9.2,3.9
			C14755.2-2172.2,14757.4-2172.8,14759.4-2173.9z"/>
		<path class="st5" d="M14791.4-2166.2c-2.7-1.3-4.9-3-6.5-5.1c-1.6-2.2-2.5-4.6-2.6-7.2h9.4c0.2,1.9,1.1,3.4,2.7,4.7
			c1.6,1.3,3.7,1.9,6.1,1.9c2.6,0,4.5-0.5,6-1.5c1.4-1,2.1-2.3,2.1-3.8c0-1.7-0.8-2.9-2.4-3.7c-1.6-0.8-4.1-1.7-7.5-2.6
			c-3.3-0.9-6-1.8-8.1-2.6c-2.1-0.9-3.9-2.2-5.4-3.9c-1.5-1.8-2.3-4.1-2.3-7c0-2.3,0.7-4.5,2.1-6.4c1.4-1.9,3.4-3.5,6-4.6
			c2.6-1.1,5.6-1.7,8.9-1.7c5,0,9.1,1.3,12.1,3.8c3.1,2.5,4.7,6,4.9,10.4h-9.1c-0.2-2-1-3.5-2.4-4.7c-1.4-1.2-3.4-1.8-5.8-1.8
			c-2.4,0-4.2,0.5-5.5,1.4c-1.3,0.9-1.9,2.1-1.9,3.6c0,1.2,0.4,2.2,1.3,3c0.9,0.8,1.9,1.4,3.1,1.9c1.2,0.5,3,1,5.4,1.7
			c3.2,0.9,5.8,1.7,7.9,2.6c2.1,0.9,3.8,2.2,5.3,3.9c1.5,1.7,2.3,4,2.3,6.8c0,2.5-0.7,4.7-2.1,6.7c-1.4,2-3.3,3.5-5.9,4.6
			c-2.5,1.1-5.5,1.7-8.9,1.7C14797.3-2164.3,14794.2-2164.9,14791.4-2166.2z"/>
		<path class="st5" d="M14838.1-2201.6v24.4c0,1.7,0.4,2.8,1.2,3.6c0.8,0.7,2.1,1.1,4,1.1h5.6v7.6h-7.2c-4.1,0-7.3-1-9.4-2.9
			c-2.2-1.9-3.3-5-3.3-9.4v-24.4h-5.2v-7.4h5.2v-11h9.2v11h10.7v7.4H14838.1z"/>
		<path class="st5" d="M14897.3-2183.6h-33.7c0.3,3.5,1.6,6.3,3.9,8.5c2.3,2.1,5.2,3.2,8.6,3.2c4.9,0,8.4-2.1,10.4-6.2h9.8
			c-1.3,4.1-3.7,7.4-7.2,10c-3.5,2.6-7.8,3.9-13,3.9c-4.2,0-8-0.9-11.3-2.8c-3.3-1.9-5.9-4.6-7.8-8c-1.9-3.4-2.8-7.4-2.8-12
			c0-4.5,0.9-8.5,2.8-12c1.8-3.4,4.4-6.1,7.8-8c3.3-1.9,7.2-2.8,11.5-2.8c4.2,0,7.9,0.9,11.1,2.7c3.3,1.8,5.8,4.4,7.6,7.6
			c1.8,3.3,2.7,7.1,2.7,11.3C14897.6-2186.5,14897.5-2185,14897.3-2183.6z M14888.1-2191c-0.1-3.4-1.3-6.1-3.6-8.1
			c-2.3-2-5.3-3-8.7-3c-3.1,0-5.8,1-8.1,3c-2.2,2-3.6,4.7-4,8.1H14888.1z"/>
		<path class="st5" d="M14921-2207.9c2.2-1.3,4.8-1.9,7.9-1.9v9.4h-2.3c-3.6,0-6.3,0.9-8.1,2.7c-1.8,1.8-2.8,5-2.8,9.4v23.2h-9.1
			v-44.1h9.1v6.4C14917-2204.9,14918.8-2206.7,14921-2207.9z"/>
		<path class="st5" d="M14952.8-2207.8c2.7-1.4,5.7-2,9-2c3.9,0,7.4,0.9,10.6,2.8c3.1,1.9,5.6,4.5,7.4,8c1.8,3.4,2.7,7.4,2.7,11.8
			c0,4.4-0.9,8.4-2.7,11.9c-1.8,3.5-4.3,6.2-7.5,8.2c-3.2,1.9-6.7,2.9-10.5,2.9c-3.4,0-6.4-0.7-9.1-2c-2.6-1.3-4.7-3-6.3-5.1v6.4
			h-9.1v-59.2h9.1v21.7C14948-2204.7,14950.1-2206.4,14952.8-2207.8z M14971.4-2195.1c-1.3-2.2-2.9-3.9-5-5
			c-2.1-1.1-4.3-1.7-6.6-1.7c-2.3,0-4.5,0.6-6.5,1.8c-2.1,1.2-3.7,2.9-5,5.1c-1.3,2.2-1.9,4.9-1.9,7.9s0.6,5.7,1.9,8
			c1.3,2.3,2.9,4,5,5.2c2.1,1.2,4.2,1.8,6.5,1.8c2.3,0,4.5-0.6,6.6-1.8c2.1-1.2,3.7-2.9,5-5.2c1.3-2.3,1.9-5,1.9-8
			S14972.6-2192.9,14971.4-2195.1z"/>
		<path class="st5" d="M15000.7-2224.2v59.2h-9.1v-59.2H15000.7z"/>
		<path class="st5" d="M15020.5-2167.1c-3.4-1.9-6-4.6-7.9-8c-1.9-3.4-2.9-7.4-2.9-12c0-4.5,1-8.5,3-11.9c2-3.5,4.7-6.1,8.1-8
			c3.4-1.9,7.2-2.8,11.4-2.8c4.2,0,8,0.9,11.4,2.8c3.4,1.9,6.1,4.5,8.1,8c2,3.5,3,7.4,3,11.9c0,4.5-1,8.5-3,11.9
			c-2,3.5-4.8,6.1-8.3,8c-3.5,1.9-7.3,2.8-11.6,2.8C15027.6-2164.3,15023.9-2165.2,15020.5-2167.1z M15038.4-2173.9
			c2.1-1.1,3.7-2.8,5-5c1.3-2.2,1.9-5,1.9-8.2s-0.6-5.9-1.8-8.1c-1.2-2.2-2.9-3.9-4.9-5c-2-1.1-4.2-1.7-6.6-1.7
			c-2.3,0-4.5,0.6-6.5,1.7s-3.6,2.8-4.8,5c-1.2,2.2-1.8,4.9-1.8,8.1c0,4.7,1.2,8.4,3.6,11c2.4,2.6,5.5,3.9,9.2,3.9
			C15034.1-2172.2,15036.3-2172.8,15038.4-2173.9z"/>
		<path class="st5" d="M15081.2-2187l20.3,22h-12.3l-16.3-19v19h-9.1v-59.2h9.1v34.4l16-19.3h12.6L15081.2-2187z"/>
	</g>
	<g class="st4">
		<path class="st5" d="M14677.5,201.6h-23.3l-4,11.4h-9.5l19.9-55.7h10.6l19.9,55.7h-9.6L14677.5,201.6z M14675,194.2l-9-25.8
			l-9.1,25.8H14675z"/>
		<path class="st5" d="M14708.9,153.8V213h-9.1v-59.2H14708.9z"/>
		<path class="st5" d="M14736.4,170.2c2.7-1.4,5.7-2,9-2c3.9,0,7.4,0.9,10.6,2.8c3.1,1.9,5.6,4.5,7.4,8c1.8,3.4,2.7,7.4,2.7,11.8
			c0,4.4-0.9,8.4-2.7,11.9c-1.8,3.5-4.3,6.2-7.5,8.2c-3.2,1.9-6.7,2.9-10.5,2.9c-3.4,0-6.4-0.7-9.1-2c-2.6-1.3-4.7-3-6.3-5.1v6.4
			h-9.1v-59.2h9.1v21.7C14731.5,173.3,14733.7,171.6,14736.4,170.2z M14754.9,182.9c-1.3-2.2-2.9-3.9-5-5c-2.1-1.1-4.3-1.7-6.6-1.7
			c-2.3,0-4.5,0.6-6.5,1.8c-2.1,1.2-3.7,2.9-5,5.1c-1.3,2.2-1.9,4.9-1.9,7.9c0,3,0.6,5.7,1.9,8c1.3,2.3,2.9,4,5,5.2
			c2.1,1.2,4.2,1.8,6.5,1.8c2.3,0,4.5-0.6,6.6-1.8c2.1-1.2,3.7-2.9,5-5.2c1.3-2.3,1.9-5,1.9-8
			C14756.8,187.7,14756.2,185.1,14754.9,182.9z"/>
		<path class="st5" d="M14815.2,194.4h-33.7c0.3,3.5,1.6,6.3,3.9,8.5c2.3,2.1,5.2,3.2,8.6,3.2c4.9,0,8.4-2.1,10.4-6.2h9.8
			c-1.3,4.1-3.7,7.4-7.2,10c-3.5,2.6-7.8,3.9-13,3.9c-4.2,0-8-0.9-11.3-2.8c-3.3-1.9-5.9-4.6-7.8-8c-1.9-3.4-2.8-7.4-2.8-12
			c0-4.5,0.9-8.5,2.8-12c1.8-3.4,4.4-6.1,7.8-8c3.3-1.9,7.2-2.8,11.5-2.8c4.2,0,7.9,0.9,11.1,2.7c3.3,1.8,5.8,4.4,7.6,7.6
			c1.8,3.3,2.7,7.1,2.7,11.3C14815.5,191.5,14815.4,193,14815.2,194.4z M14806,187c-0.1-3.4-1.3-6.1-3.6-8.1c-2.3-2-5.3-3-8.7-3
			c-3.1,0-5.8,1-8.1,3c-2.2,2-3.6,4.7-4,8.1H14806z"/>
		<path class="st5" d="M14838.9,170.1c2.2-1.3,4.8-1.9,7.9-1.9v9.4h-2.3c-3.6,0-6.3,0.9-8.1,2.7s-2.8,5-2.8,9.4V213h-9.1v-44.1h9.1
			v6.4C14834.9,173.1,14836.7,171.3,14838.9,170.1z"/>
		<path class="st5" d="M14865.8,176.4v24.4c0,1.7,0.4,2.8,1.2,3.6c0.8,0.7,2.1,1.1,4,1.1h5.6v7.6h-7.2c-4.1,0-7.3-1-9.4-2.9
			c-2.2-1.9-3.3-5-3.3-9.4v-24.4h-5.2v-7.4h5.2v-11h9.2v11h10.7v7.4H14865.8z"/>
		<path class="st5" d="M14905.5,179c1.8-3.4,4.4-6.1,7.6-8c3.3-1.9,7-2.8,11.2-2.8c5.3,0,9.7,1.3,13.2,3.8c3.5,2.5,5.9,6.1,7.1,10.8
			h-9.8c-0.8-2.2-2.1-3.9-3.8-5.1s-4-1.8-6.6-1.8c-3.7,0-6.7,1.3-8.9,4c-2.2,2.6-3.3,6.3-3.3,11.1c0,4.7,1.1,8.5,3.3,11.1
			c2.2,2.7,5.2,4,8.9,4c5.3,0,8.8-2.3,10.5-7h9.8c-1.3,4.5-3.7,8-7.2,10.7c-3.5,2.6-7.9,4-13.1,4c-4.2,0-7.9-0.9-11.2-2.8
			c-3.3-1.9-5.8-4.6-7.6-8c-1.8-3.4-2.8-7.4-2.8-12C14902.7,186.4,14903.6,182.4,14905.5,179z"/>
		<path class="st5" d="M14993.7,168.9V213h-9.1v-5.2c-1.4,1.8-3.3,3.2-5.6,4.3c-2.3,1-4.8,1.6-7.4,1.6c-3.5,0-6.6-0.7-9.3-2.2
			c-2.7-1.4-4.9-3.6-6.5-6.4c-1.6-2.8-2.4-6.2-2.4-10.2v-25.9h9v24.6c0,3.9,1,7,3,9.1c2,2.1,4.7,3.2,8.1,3.2c3.4,0,6.1-1.1,8.1-3.2
			c2-2.1,3-5.1,3-9.1v-24.6H14993.7z"/>
		<path class="st5" d="M15045.4,168.9l-27,64.8h-9.4l9-21.4l-17.4-43.4h10.2l12.4,33.6l12.9-33.6H15045.4z"/>
		<path class="st5" d="M15067.7,170.3c2.7-1.4,5.7-2.1,9-2.1c3.8,0,7.3,0.9,10.5,2.8c3.2,1.9,5.7,4.5,7.5,8
			c1.8,3.4,2.7,7.3,2.7,11.8c0,4.4-0.9,8.4-2.7,11.9c-1.8,3.5-4.3,6.2-7.5,8.2c-3.2,1.9-6.7,2.9-10.5,2.9c-3.4,0-6.3-0.7-9-2
			c-2.6-1.4-4.7-3.1-6.4-5.1V234h-9.1v-65h9.1v6.5C15062.9,173.4,15065,171.7,15067.7,170.3z M15086.3,182.9c-1.3-2.2-2.9-3.9-5-5
			c-2.1-1.1-4.3-1.7-6.6-1.7c-2.3,0-4.5,0.6-6.5,1.8c-2.1,1.2-3.7,2.9-5,5.1c-1.3,2.2-1.9,4.9-1.9,7.9c0,3,0.6,5.7,1.9,8
			c1.3,2.3,2.9,4,5,5.2c2.1,1.2,4.2,1.8,6.5,1.8c2.3,0,4.5-0.6,6.6-1.8c2.1-1.2,3.7-2.9,5-5.2c1.3-2.3,1.9-5,1.9-8
			C15088.2,187.7,15087.5,185.1,15086.3,182.9z"/>
	</g>
	<g class="st4">
		<path class="st5" d="M10865.6,1667.4v55.6h-9.1v-38.1l-17,38.1h-6.3l-17-38.1v38.1h-9.1v-55.6h9.8l19.5,43.6l19.4-43.6H10865.6z"
			/>
		<path class="st5" d="M10917.5,1678.9v44.1h-9.1v-5.2c-1.4,1.8-3.3,3.2-5.6,4.3c-2.3,1-4.8,1.6-7.4,1.6c-3.5,0-6.6-0.7-9.3-2.2
			c-2.7-1.4-4.9-3.6-6.5-6.4c-1.6-2.8-2.4-6.2-2.4-10.2v-25.9h9v24.6c0,3.9,1,7,3,9.1c2,2.1,4.7,3.2,8.1,3.2c3.4,0,6.1-1.1,8.1-3.2
			c2-2.1,3-5.1,3-9.1v-24.6H10917.5z"/>
		<path class="st5" d="M10936.2,1721.8c-2.7-1.3-4.9-3-6.5-5.1c-1.6-2.2-2.5-4.6-2.6-7.2h9.4c0.2,1.9,1.1,3.4,2.7,4.7
			c1.6,1.3,3.7,1.9,6.1,1.9c2.6,0,4.5-0.5,6-1.5c1.4-1,2.1-2.3,2.1-3.8c0-1.7-0.8-2.9-2.4-3.7c-1.6-0.8-4.1-1.7-7.5-2.6
			c-3.3-0.9-6-1.8-8.1-2.6s-3.9-2.2-5.4-3.9s-2.3-4.1-2.3-7c0-2.3,0.7-4.5,2.1-6.4c1.4-1.9,3.4-3.5,6-4.6c2.6-1.1,5.6-1.7,8.9-1.7
			c5,0,9.1,1.3,12.1,3.8c3.1,2.5,4.7,6,4.9,10.4h-9.1c-0.2-2-1-3.5-2.4-4.7c-1.4-1.2-3.4-1.8-5.8-1.8c-2.4,0-4.2,0.5-5.5,1.4
			c-1.3,0.9-1.9,2.1-1.9,3.6c0,1.2,0.4,2.2,1.3,3c0.9,0.8,1.9,1.4,3.1,1.9c1.2,0.5,3,1,5.4,1.7c3.2,0.9,5.8,1.7,7.9,2.6
			c2.1,0.9,3.8,2.2,5.3,3.9s2.3,4,2.3,6.8c0,2.5-0.7,4.7-2.1,6.7c-1.4,2-3.3,3.5-5.9,4.6c-2.5,1.1-5.5,1.7-8.9,1.7
			C10942,1723.7,10938.9,1723.1,10936.2,1721.8z"/>
		<path class="st5" d="M11012.3,1704.4h-33.7c0.3,3.5,1.6,6.3,3.9,8.5c2.3,2.1,5.2,3.2,8.6,3.2c4.9,0,8.4-2.1,10.4-6.2h9.8
			c-1.3,4.1-3.7,7.4-7.2,10c-3.5,2.6-7.8,3.9-13,3.9c-4.2,0-8-0.9-11.3-2.8c-3.3-1.9-5.9-4.6-7.8-8c-1.9-3.4-2.8-7.4-2.8-12
			c0-4.5,0.9-8.5,2.8-12c1.8-3.4,4.4-6.1,7.8-8c3.3-1.9,7.2-2.8,11.5-2.8c4.2,0,7.9,0.9,11.1,2.7c3.3,1.8,5.8,4.4,7.6,7.6
			c1.8,3.3,2.7,7.1,2.7,11.3C11012.6,1701.5,11012.5,1703,11012.3,1704.4z M11003.1,1697c-0.1-3.4-1.3-6.1-3.6-8.1
			c-2.3-2-5.3-3-8.7-3c-3.1,0-5.8,1-8.1,3s-3.6,4.7-4,8.1H11003.1z"/>
		<path class="st5" d="M11061.5,1678.9v44.1h-9.1v-5.2c-1.4,1.8-3.3,3.2-5.6,4.3c-2.3,1-4.8,1.6-7.4,1.6c-3.5,0-6.6-0.7-9.3-2.2
			c-2.7-1.4-4.9-3.6-6.5-6.4c-1.6-2.8-2.4-6.2-2.4-10.2v-25.9h9v24.6c0,3.9,1,7,3,9.1c2,2.1,4.7,3.2,8.1,3.2c3.4,0,6.1-1.1,8.1-3.2
			c2-2.1,3-5.1,3-9.1v-24.6H11061.5z"/>
		<path class="st5" d="M11136.2,1680.4c2.7,1.4,4.9,3.6,6.5,6.4c1.6,2.8,2.4,6.2,2.4,10.2v26h-9v-24.6c0-3.9-1-7-3-9.1
			c-2-2.1-4.7-3.2-8.1-3.2c-3.4,0-6.1,1.1-8.1,3.2s-3,5.1-3,9.1v24.6h-9v-24.6c0-3.9-1-7-3-9.1s-4.7-3.2-8.1-3.2
			c-3.4,0-6.1,1.1-8.1,3.2s-3,5.1-3,9.1v24.6h-9.1v-44.1h9.1v5c1.5-1.8,3.4-3.2,5.7-4.2s4.7-1.5,7.4-1.5c3.5,0,6.7,0.7,9.4,2.2
			c2.8,1.5,4.9,3.7,6.4,6.5c1.3-2.7,3.4-4.8,6.2-6.4c2.8-1.6,5.9-2.4,9.1-2.4C11130.3,1678.2,11133.4,1678.9,11136.2,1680.4z"/>
		<path class="st5" d="M11172,1680.3c2.7-1.4,5.7-2.1,9-2.1c3.8,0,7.3,0.9,10.5,2.8c3.2,1.9,5.7,4.5,7.5,8c1.8,3.4,2.7,7.3,2.7,11.8
			c0,4.4-0.9,8.4-2.7,11.9c-1.8,3.5-4.3,6.2-7.5,8.2c-3.2,1.9-6.7,2.9-10.5,2.9c-3.4,0-6.3-0.7-9-2c-2.6-1.4-4.7-3.1-6.4-5.1v27.4
			h-9.1v-65h9.1v6.5C11167.3,1683.4,11169.4,1681.7,11172,1680.3z M11190.6,1692.9c-1.3-2.2-2.9-3.9-5-5c-2.1-1.1-4.3-1.7-6.6-1.7
			c-2.3,0-4.5,0.6-6.5,1.8c-2.1,1.2-3.7,2.9-5,5.1c-1.3,2.2-1.9,4.9-1.9,7.9c0,3,0.6,5.7,1.9,8c1.3,2.3,2.9,4,5,5.2
			c2.1,1.2,4.2,1.8,6.5,1.8c2.3,0,4.5-0.6,6.6-1.8c2.1-1.2,3.7-2.9,5-5.2c1.3-2.3,1.9-5,1.9-8
			C11192.5,1697.7,11191.9,1695.1,11190.6,1692.9z"/>
		<path class="st5" d="M11220,1663.8v59.2h-9.1v-59.2H11220z"/>
		<path class="st5" d="M11272,1704.4h-33.7c0.3,3.5,1.6,6.3,3.9,8.5c2.3,2.1,5.2,3.2,8.6,3.2c4.9,0,8.4-2.1,10.4-6.2h9.8
			c-1.3,4.1-3.7,7.4-7.2,10c-3.5,2.6-7.8,3.9-13,3.9c-4.2,0-8-0.9-11.3-2.8c-3.3-1.9-5.9-4.6-7.8-8c-1.9-3.4-2.8-7.4-2.8-12
			c0-4.5,0.9-8.5,2.8-12c1.8-3.4,4.4-6.1,7.8-8c3.3-1.9,7.2-2.8,11.5-2.8c4.2,0,7.9,0.9,11.1,2.7c3.3,1.8,5.8,4.4,7.6,7.6
			c1.8,3.3,2.7,7.1,2.7,11.3C11272.4,1701.5,11272.2,1703,11272,1704.4z M11262.8,1697c-0.1-3.4-1.3-6.1-3.6-8.1c-2.3-2-5.3-3-8.7-3
			c-3.1,0-5.8,1-8.1,3s-3.6,4.7-4,8.1H11262.8z"/>
		<path class="st5" d="M11281.8,1671.4c-1.1-1.1-1.7-2.5-1.7-4.2c0-1.7,0.6-3,1.7-4.2c1.1-1.1,2.5-1.7,4.2-1.7c1.6,0,3,0.6,4.1,1.7
			c1.1,1.1,1.7,2.5,1.7,4.2c0,1.7-0.6,3-1.7,4.2c-1.1,1.1-2.5,1.7-4.1,1.7C11284.3,1673.1,11282.9,1672.5,11281.8,1671.4z
			 M11290.4,1678.9v44.1h-9.1v-44.1H11290.4z"/>
		<path class="st5" d="M11334,1680.4c2.7,1.4,4.9,3.6,6.4,6.4c1.5,2.8,2.3,6.2,2.3,10.2v26h-9v-24.6c0-3.9-1-7-3-9.1
			c-2-2.1-4.7-3.2-8.1-3.2c-3.4,0-6.1,1.1-8.1,3.2s-3,5.1-3,9.1v24.6h-9.1v-44.1h9.1v5c1.5-1.8,3.4-3.2,5.7-4.2
			c2.3-1,4.8-1.5,7.4-1.5C11328.1,1678.2,11331.2,1678.9,11334,1680.4z"/>
	</g>
	<g class="st4">
		<path class="st5" d="M9444.9,1335.4L9424,1391h-10.6l-21-55.6h9.8l16.5,46.2l16.6-46.2H9444.9z"/>
		<path class="st5" d="M9460.4,1388.9c-3.4-1.9-6-4.6-7.9-8s-2.9-7.4-2.9-12c0-4.5,1-8.5,3-11.9c2-3.5,4.7-6.1,8.1-8
			c3.4-1.9,7.2-2.8,11.4-2.8c4.2,0,8,0.9,11.4,2.8c3.4,1.9,6.1,4.5,8.1,8c2,3.5,3,7.4,3,11.9c0,4.5-1,8.5-3,11.9
			c-2,3.5-4.8,6.1-8.3,8c-3.5,1.9-7.3,2.8-11.6,2.8C9467.5,1391.7,9463.7,1390.8,9460.4,1388.9z M9478.2,1382.1c2.1-1.1,3.7-2.8,5-5
			c1.3-2.2,1.9-5,1.9-8.2c0-3.2-0.6-5.9-1.8-8.1c-1.2-2.2-2.9-3.9-4.9-5c-2-1.1-4.2-1.7-6.6-1.7c-2.3,0-4.5,0.6-6.5,1.7
			c-2,1.1-3.6,2.8-4.8,5c-1.2,2.2-1.8,4.9-1.8,8.1c0,4.7,1.2,8.4,3.6,11c2.4,2.6,5.5,3.9,9.2,3.9
			C9474,1383.8,9476.2,1383.2,9478.2,1382.1z"/>
		<path class="st5" d="M9535.1,1348.4c2.7,1.4,4.9,3.6,6.4,6.4c1.5,2.8,2.3,6.2,2.3,10.2v26h-9v-24.6c0-3.9-1-7-3-9.1
			s-4.7-3.2-8.1-3.2c-3.4,0-6.1,1.1-8.1,3.2s-3,5.1-3,9.1v24.6h-9.1v-44.1h9.1v5c1.5-1.8,3.4-3.2,5.7-4.2c2.3-1,4.8-1.5,7.4-1.5
			C9529.3,1346.2,9532.4,1346.9,9535.1,1348.4z"/>
		<path class="st5" d="M9555.2,1357c1.8-3.4,4.3-6.1,7.5-8c3.2-1.9,6.7-2.8,10.6-2.8c2.9,0,5.7,0.6,8.5,1.9c2.8,1.3,5,2.9,6.7,5
			v-21.3h9.2v59.2h-9.2v-6.6c-1.5,2.1-3.6,3.9-6.2,5.3c-2.6,1.4-5.7,2.1-9.1,2.1c-3.8,0-7.3-1-10.5-2.9c-3.2-1.9-5.7-4.7-7.5-8.2
			c-1.8-3.5-2.8-7.5-2.8-11.9C9552.4,1364.3,9553.4,1360.4,9555.2,1357z M9586.6,1361c-1.3-2.2-2.9-3.9-4.9-5.1
			c-2-1.2-4.2-1.8-6.6-1.8c-2.3,0-4.5,0.6-6.6,1.7c-2,1.1-3.7,2.8-4.9,5c-1.3,2.2-1.9,4.8-1.9,7.9c0,3,0.6,5.7,1.9,8
			c1.3,2.3,2.9,4,5,5.2c2.1,1.2,4.2,1.8,6.5,1.8c2.3,0,4.5-0.6,6.6-1.8c2-1.2,3.7-2.9,4.9-5.2c1.3-2.3,1.9-4.9,1.9-8
			C9588.5,1365.9,9587.9,1363.2,9586.6,1361z"/>
		<path class="st5" d="M9649.8,1372.4h-33.7c0.3,3.5,1.6,6.3,3.9,8.5c2.3,2.1,5.2,3.2,8.6,3.2c4.9,0,8.4-2.1,10.4-6.2h9.8
			c-1.3,4.1-3.7,7.4-7.2,10c-3.5,2.6-7.8,3.9-13,3.9c-4.2,0-8-0.9-11.3-2.8c-3.3-1.9-5.9-4.6-7.8-8c-1.9-3.4-2.8-7.4-2.8-12
			c0-4.5,0.9-8.5,2.8-12c1.8-3.4,4.4-6.1,7.8-8c3.3-1.9,7.2-2.8,11.5-2.8c4.2,0,7.9,0.9,11.1,2.7c3.3,1.8,5.8,4.4,7.6,7.6
			c1.8,3.3,2.7,7.1,2.7,11.3C9650.1,1369.5,9650,1371,9649.8,1372.4z M9640.6,1365c-0.1-3.4-1.3-6.1-3.6-8.1c-2.3-2-5.3-3-8.7-3
			c-3.1,0-5.8,1-8.1,3c-2.2,2-3.6,4.7-4,8.1H9640.6z"/>
		<path class="st5" d="M9668.2,1331.8v59.2h-9.1v-59.2H9668.2z"/>
		<path class="st5" d="M9695.6,1348.3c2.7-1.4,5.7-2.1,9-2.1c3.8,0,7.3,0.9,10.5,2.8c3.2,1.9,5.7,4.5,7.5,8
			c1.8,3.4,2.7,7.3,2.7,11.8c0,4.4-0.9,8.4-2.7,11.9c-1.8,3.5-4.3,6.2-7.5,8.2c-3.2,1.9-6.7,2.9-10.5,2.9c-3.4,0-6.3-0.7-9-2
			c-2.6-1.4-4.7-3.1-6.4-5.1v27.4h-9.1v-65h9.1v6.5C9690.9,1351.4,9693,1349.7,9695.6,1348.3z M9714.2,1360.9c-1.3-2.2-2.9-3.9-5-5
			c-2.1-1.1-4.3-1.7-6.6-1.7c-2.3,0-4.5,0.6-6.5,1.8c-2.1,1.2-3.7,2.9-5,5.1c-1.3,2.2-1.9,4.9-1.9,7.9c0,3,0.6,5.7,1.9,8
			c1.3,2.3,2.9,4,5,5.2c2.1,1.2,4.2,1.8,6.5,1.8c2.3,0,4.5-0.6,6.6-1.8c2.1-1.2,3.7-2.9,5-5.2c1.3-2.3,1.9-5,1.9-8
			C9716.1,1365.7,9715.5,1363.1,9714.2,1360.9z"/>
		<path class="st5" d="M9734.2,1357c1.8-3.4,4.3-6.1,7.5-8c3.2-1.9,6.7-2.8,10.5-2.8c3.5,0,6.5,0.7,9.1,2s4.7,3.1,6.2,5.1v-6.4h9.2
			v44.1h-9.2v-6.6c-1.5,2.1-3.7,3.8-6.3,5.2c-2.7,1.4-5.7,2.1-9.1,2.1c-3.8,0-7.3-1-10.4-2.9c-3.1-1.9-5.6-4.7-7.5-8.2
			c-1.8-3.5-2.8-7.5-2.8-11.9C9731.4,1364.3,9732.3,1360.4,9734.2,1357z M9765.6,1361c-1.3-2.2-2.9-3.9-4.9-5.1
			c-2-1.2-4.2-1.8-6.6-1.8c-2.3,0-4.5,0.6-6.6,1.7c-2,1.1-3.7,2.8-4.9,5c-1.3,2.2-1.9,4.8-1.9,7.9c0,3,0.6,5.7,1.9,8
			c1.3,2.3,2.9,4,5,5.2c2.1,1.2,4.2,1.8,6.5,1.8c2.3,0,4.5-0.6,6.6-1.8c2-1.2,3.7-2.9,4.9-5.2c1.3-2.3,1.9-4.9,1.9-8
			C9767.5,1365.9,9766.8,1363.2,9765.6,1361z"/>
		<path class="st5" d="M9803.1,1348.1c2.2-1.3,4.8-1.9,7.9-1.9v9.4h-2.3c-3.6,0-6.3,0.9-8.1,2.7c-1.8,1.8-2.8,5-2.8,9.4v23.2h-9.1
			v-44.1h9.1v6.4C9799.1,1351.1,9800.9,1349.3,9803.1,1348.1z"/>
		<path class="st5" d="M9836.8,1369l20.3,22h-12.3l-16.3-19v19h-9.1v-59.2h9.1v34.4l16-19.3h12.6L9836.8,1369z"/>
	</g>
</g>
</svg>
