<svg xmlns="http://www.w3.org/2000/svg" xmlns:xlink="http://www.w3.org/1999/xlink" width="375" height="667" viewBox="0 0 375 667">
  <defs>
    <clipPath id="clip-Ontwerp_-_Coordinatepagina_-_1_5">
      <rect width="375" height="667"/>
    </clipPath>
  </defs>
  <g id="Ontwerp_-_Coordinatepagina_-_1_5" data-name="Ontwerp - Coordinatepagina - 1 – 5" clip-path="url(#clip-Ontwerp_-_Coordinatepagina_-_1_5)">
    <rect width="375" height="667" fill="#fff"/>
    <g id="Group_467" data-name="Group 467">
      <rect id="Rectangle_138" data-name="Rectangle 138" width="375" height="667" fill="#1d2233"/>
      <g id="Pattern" transform="translate(1873.998 256.085)" opacity="0.063">
        <g id="Group_11" data-name="Group 11" transform="matrix(0.996, -0.087, 0.087, 0.996, -1604.595, -361.528)" opacity="0.527">
          <line id="Line_152" data-name="Line 152" y2="1244.571" transform="translate(181.13 0)" fill="none" stroke="#ebf0fc" stroke-width="2"/>
          <line id="Line_148" data-name="Line 148" y2="1237.06" transform="translate(59.566 1.823)" fill="none" stroke="#ebf0fc" stroke-width="2"/>
          <line id="Line_150" data-name="Line 150" y2="1244.571" transform="translate(301.478 0.912)" fill="none" stroke="#ebf0fc" stroke-width="2"/>
          <line id="Line_146" data-name="Line 146" y2="1258.241" transform="translate(0 0.912)" fill="none" stroke="#ebf0fc" stroke-width="2"/>
          <line id="Line_151" data-name="Line 151" y2="1235.512" transform="translate(241.912 0)" fill="none" stroke="#ebf0fc" stroke-width="2"/>
          <line id="Line_147" data-name="Line 147" y2="1258.241" transform="translate(120.348 1.823)" fill="none" stroke="#ebf0fc" stroke-width="2"/>
          <line id="Line_149" data-name="Line 149" y2="1235.512" transform="translate(362.26 0.912)" fill="none" stroke="#ebf0fc" stroke-width="2"/>
        </g>
        <g id="Group_434" data-name="Group 434" transform="matrix(0.996, -0.087, 0.087, 0.996, -1173.511, -353.256)" opacity="0.527">
          <line id="Line_152-2" data-name="Line 152" y2="955.49" transform="translate(181.13 0)" fill="none" stroke="#ebf0fc" stroke-width="2"/>
          <line id="Line_148-2" data-name="Line 148" y2="947.979" transform="translate(59.566 1.823)" fill="none" stroke="#ebf0fc" stroke-width="2"/>
          <line id="Line_150-2" data-name="Line 150" y2="955.49" transform="translate(301.478 0.912)" fill="none" stroke="#ebf0fc" stroke-width="2"/>
          <line id="Line_146-2" data-name="Line 146" y2="969.16" transform="translate(0 0.912)" fill="none" stroke="#ebf0fc" stroke-width="2"/>
          <line id="Line_151-2" data-name="Line 151" y2="946.432" transform="translate(241.912 0)" fill="none" stroke="#ebf0fc" stroke-width="2"/>
          <line id="Line_147-2" data-name="Line 147" y2="969.16" transform="translate(120.348 1.823)" fill="none" stroke="#ebf0fc" stroke-width="2"/>
          <line id="Line_149-2" data-name="Line 149" y2="946.432" transform="translate(362.26 0.912)" fill="none" stroke="#ebf0fc" stroke-width="2"/>
        </g>
        <g id="Group_435" data-name="Group 435" transform="matrix(0.996, -0.087, 0.087, 0.996, -745.593, -353.256)" opacity="0.527">
          <line id="Line_152-3" data-name="Line 152" y2="955.49" transform="translate(181.13 0)" fill="none" stroke="#ebf0fc" stroke-width="2"/>
          <line id="Line_148-3" data-name="Line 148" y2="947.979" transform="translate(59.566 1.823)" fill="none" stroke="#ebf0fc" stroke-width="2"/>
          <line id="Line_150-3" data-name="Line 150" y2="955.49" transform="translate(301.478 0.912)" fill="none" stroke="#ebf0fc" stroke-width="2"/>
          <line id="Line_146-3" data-name="Line 146" y2="969.16" transform="translate(0 0.912)" fill="none" stroke="#ebf0fc" stroke-width="2"/>
          <line id="Line_151-3" data-name="Line 151" y2="946.432" transform="translate(241.912 0)" fill="none" stroke="#ebf0fc" stroke-width="2"/>
          <line id="Line_147-3" data-name="Line 147" y2="969.16" transform="translate(120.348 1.823)" fill="none" stroke="#ebf0fc" stroke-width="2"/>
          <line id="Line_149-3" data-name="Line 149" y2="946.432" transform="translate(362.26 0.912)" fill="none" stroke="#ebf0fc" stroke-width="2"/>
        </g>
        <g id="Group_436" data-name="Group 436" transform="matrix(0.996, -0.087, 0.087, 0.996, -321.294, -370.445)" opacity="0.527">
          <line id="Line_152-4" data-name="Line 152" y2="955.49" transform="translate(181.13 0)" fill="none" stroke="#ebf0fc" stroke-width="2"/>
          <line id="Line_148-4" data-name="Line 148" y2="947.979" transform="translate(59.566 1.823)" fill="none" stroke="#ebf0fc" stroke-width="2"/>
          <line id="Line_150-4" data-name="Line 150" y2="955.49" transform="translate(301.478 0.912)" fill="none" stroke="#ebf0fc" stroke-width="2"/>
          <line id="Line_146-4" data-name="Line 146" y2="969.16" transform="translate(0 0.912)" fill="none" stroke="#ebf0fc" stroke-width="2"/>
          <line id="Line_151-4" data-name="Line 151" y2="946.432" transform="translate(241.912 0)" fill="none" stroke="#ebf0fc" stroke-width="2"/>
          <line id="Line_147-4" data-name="Line 147" y2="969.16" transform="translate(120.348 1.823)" fill="none" stroke="#ebf0fc" stroke-width="2"/>
          <line id="Line_149-4" data-name="Line 149" y2="946.432" transform="translate(362.26 0.912)" fill="none" stroke="#ebf0fc" stroke-width="2"/>
        </g>
        <g id="Group_13" data-name="Group 13" transform="matrix(0.996, -0.087, 0.087, 0.996, -2087.827, -347.959)" opacity="0.527">
          <line id="Line_145" data-name="Line 145" y2="184.929" transform="translate(0 0.912)" fill="none" stroke="#ebf0fc" stroke-width="2"/>
          <line id="Line_152-5" data-name="Line 152" y2="1304.844" transform="translate(241.912 0)" fill="none" stroke="#ebf0fc" stroke-width="2"/>
          <line id="Line_148-5" data-name="Line 148" y2="1297.333" transform="translate(120.348 1.823)" fill="none" stroke="#ebf0fc" stroke-width="2"/>
          <line id="Line_150-5" data-name="Line 150" y2="1304.844" transform="translate(362.26 0.912)" fill="none" stroke="#ebf0fc" stroke-width="2"/>
          <line id="Line_146-5" data-name="Line 146" y2="1318.514" transform="translate(60.782 0.912)" fill="none" stroke="#ebf0fc" stroke-width="2"/>
          <line id="Line_151-5" data-name="Line 151" y2="1295.785" transform="translate(302.694 0)" fill="none" stroke="#ebf0fc" stroke-width="2"/>
          <line id="Line_147-5" data-name="Line 147" y2="1318.514" transform="translate(181.13 1.823)" fill="none" stroke="#ebf0fc" stroke-width="2"/>
          <line id="Line_149-5" data-name="Line 149" y2="1295.785" transform="translate(423.042 0.912)" fill="none" stroke="#ebf0fc" stroke-width="2"/>
        </g>
        <g id="Group_12" data-name="Group 12" transform="matrix(0.087, 0.996, -0.996, 0.087, 325.35, -519.623)" opacity="0.527">
          <line id="Line_145-2" data-name="Line 145" y2="184.929" transform="translate(0 9.803)" fill="none" stroke="#ebf0fc" stroke-width="2"/>
          <line id="Line_152-6" data-name="Line 152" y2="2579.131" transform="translate(241.912 8.891)" fill="none" stroke="#ebf0fc" stroke-width="2"/>
          <line id="Line_148-6" data-name="Line 148" y2="2571.62" transform="translate(120.348 10.714)" fill="none" stroke="#ebf0fc" stroke-width="2"/>
          <line id="Line_150-6" data-name="Line 150" y2="2579.131" transform="translate(362.26 9.803)" fill="none" stroke="#ebf0fc" stroke-width="2"/>
          <line id="Line_146-6" data-name="Line 146" y2="2592.802" transform="translate(60.782 9.803)" fill="none" stroke="#ebf0fc" stroke-width="2"/>
          <line id="Line_151-6" data-name="Line 151" y2="2570.073" transform="translate(302.694 8.891)" fill="none" stroke="#ebf0fc" stroke-width="2"/>
          <line id="Line_147-6" data-name="Line 147" y2="2592.802" transform="translate(181.13 10.714)" fill="none" stroke="#ebf0fc" stroke-width="2"/>
          <line id="Line_149-6" data-name="Line 149" y2="2570.073" transform="translate(423.042 9.803)" fill="none" stroke="#ebf0fc" stroke-width="2"/>
          <line id="Line_214" data-name="Line 214" y2="2570.073" transform="translate(482.268 0)" fill="none" stroke="#ebf0fc" stroke-width="2"/>
          <line id="Line_215" data-name="Line 215" y2="2570.073" transform="translate(542.454 5.266)" fill="none" stroke="#ebf0fc" stroke-width="2"/>
        </g>
        <g id="Group_437" data-name="Group 437" transform="matrix(0.087, 0.996, -0.996, 0.087, 366.966, 17.762)" opacity="0.527">
          <line id="Line_145-3" data-name="Line 145" y2="184.929" transform="translate(0 9.803)" fill="none" stroke="#ebf0fc" stroke-width="2"/>
          <line id="Line_152-7" data-name="Line 152" y2="2579.131" transform="translate(241.912 8.891)" fill="none" stroke="#ebf0fc" stroke-width="2"/>
          <line id="Line_148-7" data-name="Line 148" y2="2571.62" transform="translate(120.348 10.714)" fill="none" stroke="#ebf0fc" stroke-width="2"/>
          <line id="Line_150-7" data-name="Line 150" y2="2579.131" transform="translate(362.26 9.803)" fill="none" stroke="#ebf0fc" stroke-width="2"/>
          <line id="Line_146-7" data-name="Line 146" y2="2592.802" transform="translate(60.782 9.803)" fill="none" stroke="#ebf0fc" stroke-width="2"/>
          <line id="Line_151-7" data-name="Line 151" y2="2570.073" transform="translate(302.694 8.891)" fill="none" stroke="#ebf0fc" stroke-width="2"/>
          <line id="Line_147-7" data-name="Line 147" y2="2592.802" transform="translate(181.13 10.714)" fill="none" stroke="#ebf0fc" stroke-width="2"/>
          <line id="Line_149-7" data-name="Line 149" y2="2570.073" transform="translate(423.042 9.803)" fill="none" stroke="#ebf0fc" stroke-width="2"/>
          <line id="Line_214-2" data-name="Line 214" y2="2570.073" transform="translate(482.268 0)" fill="none" stroke="#ebf0fc" stroke-width="2"/>
          <line id="Line_215-2" data-name="Line 215" y2="2570.073" transform="translate(542.454 5.266)" fill="none" stroke="#ebf0fc" stroke-width="2"/>
        </g>
      </g>
      <path id="Path_70" data-name="Path 70" d="M762.491,5230.251l-35.275-318.437L574.752,4755.543v-48.685l176.442,190.424,31.69,341.839Z" transform="translate(-611 -4554)" fill="#2f394b"/>
      <path id="Path_73" data-name="Path 73" d="M778.166,5062.215l-50.949-150.4L446.841,4629.346l20.315-6.709,284.038,274.645,47.365,173.8Z" transform="translate(-387.252 -4661)" fill="#2f394b"/>
      <path id="Path_71" data-name="Path 71" d="M741.275,5006.122H589.16v13.43H741.275v-13.43Z" transform="translate(-611 -4554)" fill="#2f394b"/>
      <path id="Path_76" data-name="Path 76" d="M687.265,5004.933c-23.766,0-98.106.9-98.106.9v10.2h95.062c104.852,15.529,57.537,102.034,57.537,102.034s37.874-60.262,51.721-73.765" transform="translate(-3736.773 -3001.395) rotate(-45)" fill="#2f394b"/>
      <path id="Path_72" data-name="Path 72" d="M764.074,5006.122H589.16v13.43H764.074v-13.43Z" transform="translate(-1302.915 -4248.462) rotate(-8)" fill="#2f394b"/>
      <path id="Path_74" data-name="Path 74" d="M595.651,4675.971,762.158,4853.9s23.821,28.135,28.115,64.02,35.231,336.95,35.231,336.95" transform="translate(-626 -4555.336)" fill="none" stroke="#5e80a9" stroke-width="5"/>
      <path id="Path_75" data-name="Path 75" d="M473.676,4547.218,762.158,4853.9s23.821,28.135,28.115,64.02,35.231,336.95,35.231,336.95" transform="translate(-437 -4577.336)" fill="none" stroke="#5e80a9" stroke-width="5"/>
      <path id="Path_77" data-name="Path 77" d="M574.77,4750.555s-8.889-86.508-10.123-96.819-8.079-18.4-8.079-18.4-120.844-90.456-106.088-112.256S636.934,4299.8,636.934,4299.8" transform="translate(-4352.203 83.17) rotate(-83)" fill="none" stroke="#5e80a9" stroke-width="2"/>
    </g>
  </g>
</svg>
