<svg xmlns="http://www.w3.org/2000/svg" width="124.121" height="116.31" viewBox="0 0 124.121 116.31">
  <g id="Group_622" data-name="Group 622" transform="translate(0 0)">
    <path id="Path_185" data-name="Path 185" d="M111.425,1045.3a68.517,68.517,0,0,1-16.582,14.5c-10.705,6.4-24.708,17.259-26.689,31.128-3.265,22.853,13.059,57.133,70.193,57.133s44.074-42.442,44.074-42.442-4.9-16.786,8.162-48.387C202.372,1028.7,130.346,1023.268,111.425,1045.3Z" transform="translate(-67.757 -1031.748)" fill="#441d00"/>
    <path id="Path_187" data-name="Path 187" d="M118.285,1123.106s26.118-4.9,22.853-27.75a54.115,54.115,0,0,1,6.308-34.687,7.6,7.6,0,0,0-.369-8.431c-1.962-2.532-5.455-3.27-11.36,5.573C124.815,1074.134,95.432,1121.474,118.285,1123.106Z" transform="translate(-41.167 -1019.855)" fill="#6b2b00"/>
  </g>
</svg>
