<svg xmlns="http://www.w3.org/2000/svg" width="71.236" height="26.487" viewBox="0 0 71.236 26.487">
  <g id="Group_621" data-name="Group 621" transform="translate(-293.55 -1015.985)">
    <path id="Path_189" data-name="Path 189" d="M208.4,1020.967s8.129-11.427,21.2,0,10.475,11,10.475,11-13.723,5.325-25.15,2.06S208.4,1020.967,208.4,1020.967Z" transform="translate(-137.021 80.561) rotate(-13)" fill="#639e9c"/>
    <path id="Path_190" data-name="Path 190" d="M261.227,1031.938s-5.557,12.875-20.735,4.437-12.545-8.562-12.545-8.562,12.3-8.08,24.163-7.279S261.227,1031.938,261.227,1031.938Z" transform="translate(-123.791 80.485) rotate(-13)" fill="#639e9c"/>
    <path id="Path_191" data-name="Path 191" d="M230.649,1022.386a5.592,5.592,0,1,1-4.313,1.074A5.594,5.594,0,0,1,230.649,1022.386Z" transform="translate(-125.769 82.131) rotate(-13)" fill="#332c1a"/>
  </g>
</svg>
